<svg width="170" height="349" viewBox="0 0 170 349" fill="none" xmlns="http://www.w3.org/2000/svg">
<rect x="0.5" y="0.5" width="169" height="348" rx="21.5" stroke="black"/>
<rect x="6.5" y="9.5" width="157" height="330" rx="9.5" fill="white" stroke="black"/>
<path d="M6 18C6 12.4772 10.4772 8 16 8H154C159.523 8 164 12.4772 164 18V37H6V18Z" fill="#7E7E7E"/>
<path d="M78.2622 28H76.9043V25.2271H74.3599V28H72.9976V21.5752H74.3599V24.0933H76.9043V21.5752H78.2622V28ZM84.2476 25.5347C84.2476 25.9448 84.1919 26.3081 84.0806 26.6245C83.9722 26.9409 83.8125 27.209 83.6016 27.4287C83.3936 27.6455 83.1416 27.8096 82.8457 27.9209C82.5527 28.0322 82.2217 28.0879 81.8525 28.0879C81.5068 28.0879 81.189 28.0322 80.8989 27.9209C80.6118 27.8096 80.3613 27.6455 80.1475 27.4287C79.9365 27.209 79.7725 26.9409 79.6553 26.6245C79.541 26.3081 79.4839 25.9448 79.4839 25.5347C79.4839 24.9897 79.5806 24.5283 79.7739 24.1504C79.9673 23.7725 80.2427 23.4854 80.6001 23.2891C80.9575 23.0928 81.3838 22.9946 81.8789 22.9946C82.3389 22.9946 82.7461 23.0928 83.1006 23.2891C83.458 23.4854 83.7378 23.7725 83.9399 24.1504C84.145 24.5283 84.2476 24.9897 84.2476 25.5347ZM80.8506 25.5347C80.8506 25.8569 80.8857 26.1279 80.9561 26.3477C81.0264 26.5674 81.1362 26.7329 81.2856 26.8442C81.4351 26.9556 81.6299 27.0112 81.8701 27.0112C82.1074 27.0112 82.2993 26.9556 82.4458 26.8442C82.5952 26.7329 82.7036 26.5674 82.771 26.3477C82.8413 26.1279 82.8765 25.8569 82.8765 25.5347C82.8765 25.2095 82.8413 24.9399 82.771 24.7261C82.7036 24.5093 82.5952 24.3467 82.4458 24.2383C82.2964 24.1299 82.1016 24.0757 81.8613 24.0757C81.5068 24.0757 81.249 24.1973 81.0879 24.4404C80.9297 24.6836 80.8506 25.0483 80.8506 25.5347ZM91.125 22.9946C91.6816 22.9946 92.1021 23.1382 92.3862 23.4253C92.6733 23.7095 92.8169 24.1665 92.8169 24.7964V28H91.4722V25.1304C91.4722 24.7788 91.4121 24.5137 91.292 24.335C91.1719 24.1562 90.9858 24.0669 90.7339 24.0669C90.3794 24.0669 90.1274 24.1943 89.978 24.4492C89.8286 24.7012 89.7539 25.063 89.7539 25.5347V28H88.4136V25.1304C88.4136 24.896 88.3872 24.6997 88.3345 24.5415C88.2817 24.3833 88.2012 24.2646 88.0928 24.1855C87.9844 24.1064 87.8452 24.0669 87.6753 24.0669C87.4263 24.0669 87.23 24.1299 87.0864 24.2559C86.9458 24.3789 86.8447 24.562 86.7832 24.8052C86.7246 25.0454 86.6953 25.3398 86.6953 25.6885V28H85.355V23.0869H86.3789L86.5591 23.7153H86.6338C86.7334 23.5454 86.8579 23.4077 87.0073 23.3022C87.1597 23.1968 87.3267 23.1191 87.5083 23.0693C87.6899 23.0195 87.8745 22.9946 88.062 22.9946C88.4224 22.9946 88.7271 23.0532 88.9761 23.1704C89.228 23.2876 89.4214 23.4692 89.5562 23.7153H89.6748C89.8213 23.4634 90.0278 23.2803 90.2944 23.166C90.564 23.0518 90.8408 22.9946 91.125 22.9946ZM96.2227 22.9946C96.6768 22.9946 97.0679 23.0825 97.396 23.2583C97.7241 23.4312 97.9775 23.6831 98.1562 24.0142C98.335 24.3452 98.4243 24.7495 98.4243 25.2271V25.8774H95.2559C95.2705 26.2554 95.3833 26.5527 95.5942 26.7695C95.8081 26.9834 96.104 27.0903 96.4819 27.0903C96.7954 27.0903 97.0825 27.0581 97.3433 26.9937C97.604 26.9292 97.8721 26.8325 98.1475 26.7036V27.7407C97.9043 27.8608 97.6494 27.9487 97.3828 28.0044C97.1191 28.0601 96.7983 28.0879 96.4204 28.0879C95.9282 28.0879 95.4917 27.9971 95.1108 27.8154C94.7329 27.6338 94.4355 27.3569 94.2188 26.9849C94.0049 26.6128 93.8979 26.144 93.8979 25.5786C93.8979 25.0044 93.9946 24.5269 94.188 24.146C94.3843 23.7622 94.6567 23.4751 95.0054 23.2847C95.354 23.0913 95.7598 22.9946 96.2227 22.9946ZM96.2314 23.9482C95.9707 23.9482 95.7539 24.0317 95.5811 24.1987C95.4111 24.3657 95.313 24.6279 95.2866 24.9854H97.1675C97.1646 24.7861 97.1279 24.6089 97.0576 24.4536C96.9902 24.2983 96.8877 24.1753 96.75 24.0845C96.6152 23.9937 96.4424 23.9482 96.2314 23.9482Z" fill="white"/>
<path d="M150.49 20C147.735 20 145.498 22.24 145.498 25C145.498 27.76 147.735 30 150.49 30C153.246 30 155.482 27.76 155.482 25C155.482 22.24 153.246 20 150.49 20ZM150.989 28.5H149.991V27.5H150.989V28.5ZM152.023 24.625L151.574 25.085C151.214 25.45 150.989 25.75 150.989 26.5H149.991V26.25C149.991 25.7 150.216 25.2 150.575 24.835L151.194 24.205C151.379 24.025 151.489 23.775 151.489 23.5C151.489 22.95 151.039 22.5 150.49 22.5C149.941 22.5 149.492 22.95 149.492 23.5H148.493C148.493 22.395 149.387 21.5 150.49 21.5C151.594 21.5 152.487 22.395 152.487 23.5C152.487 23.94 152.307 24.34 152.023 24.625Z" fill="white"/>
<path d="M153 8C159.075 8 164 12.9249 164 19L164 329C164 335.075 159.075 340 153 340H17C10.9249 340 6 335.075 6 329L6 19C6 12.9249 10.9249 8 17 8L153 8Z" fill="#C5C5C5"/>
<circle cx="26" cy="30" r="10" transform="rotate(90 26 30)" fill="#6F6F6F"/>
<path d="M27.6158 27.499L27.4846 27.2H27.158H25.0587C24.993 27.2 24.9409 27.1859 24.9058 27.1694C24.8782 27.1564 24.8674 27.1452 24.8659 27.1437L24.8632 27.1396C24.5113 26.62 24.0676 26.1541 23.5643 25.7399L25.1796 24.5472C25.2064 24.5275 25.2688 24.5 25.3567 24.5C25.4498 24.5 25.5106 24.5265 25.5375 24.5451C27.405 25.9978 28.5 27.921 28.5 30C28.5 32.079 27.405 34.0022 25.5374 35.4549C25.5105 35.4735 25.4498 35.5 25.3567 35.5C25.2688 35.5 25.2064 35.4725 25.1796 35.4528L23.5614 34.258C24.0667 33.847 24.5111 33.3803 24.8632 32.8604L24.8633 32.8604L24.8659 32.8564C24.8671 32.8552 24.8778 32.8438 24.9058 32.8306C24.9409 32.8141 24.993 32.8 25.0587 32.8H27.158H27.4846L27.6158 32.501C27.9609 31.7149 28.1456 30.8716 28.1456 30C28.1456 29.1284 27.9609 28.2851 27.6158 27.499Z" fill="#6F6F6F" stroke="white"/>
<circle cx="26.0664" cy="55" r="10" transform="rotate(90 26.0664 55)" fill="#6F6F6F"/>
<path d="M29.4633 55.1349L28.5672 54.2518L27.671 55.1349M29.8921 51.8687L29.3475 51.332L27.3195 53.3306V51.332H24.7468V53.0222L22.603 55.1349H25.4886L23.662 56.9306C23.4434 56.6475 23.2633 56.3306 23.1604 55.9799H22.2728C22.41 56.563 22.6801 57.0912 23.0489 57.5349L22.1742 58.4011L22.7187 58.9377L26.5777 55.1349M26.0331 58.0926C25.6301 58.0926 25.2528 58.0081 24.9012 57.8644L24.2537 58.5025C24.7854 58.7771 25.39 58.9377 26.0331 58.9377C27.8683 58.9377 29.4033 57.6701 29.7935 55.9799H28.9102C28.5415 57.2011 27.3923 58.0926 26.0331 58.0926ZM26.0331 57.0363C26.7921 57.0363 27.4438 56.6137 27.7611 55.9799H26.8135L25.763 57.0151C25.8488 57.0363 25.9431 57.0363 26.0331 57.0363Z" fill="white"/>
<path d="M98 187.6C98 188.502 97.6237 189.367 96.954 190.004C96.2842 190.642 95.3758 191 94.4286 191H76.5714C75.6242 191 74.7158 190.642 74.046 190.004C73.3763 189.367 73 188.502 73 187.6V160.4C73 158.513 74.6071 157 76.5714 157H94.4286C96.4107 157 98 158.513 98 160.4V187.6ZM78.3571 162.1V185.9L89.0714 178.25L81.0357 172.3L86.3929 168.05L78.3571 162.1Z" fill="#4D4D4D"/>
<rect x="155" y="20" width="40" height="18" rx="2" transform="rotate(90 155 20)" fill="#6F6F6F"/>
<path d="M142 30.8984H149.139V32.4121H143.25V35.3076H142V30.8984ZM147.459 37.9248H142V36.4355H147.459V37.9248ZM149.598 37.1826C149.598 37.404 149.546 37.5944 149.441 37.7539C149.34 37.9134 149.15 37.9932 148.87 37.9932C148.593 37.9932 148.401 37.9134 148.294 37.7539C148.19 37.5944 148.138 37.404 148.138 37.1826C148.138 36.958 148.19 36.766 148.294 36.6064C148.401 36.4502 148.593 36.3721 148.87 36.3721C149.15 36.3721 149.34 36.4502 149.441 36.6064C149.546 36.766 149.598 36.958 149.598 37.1826ZM142 40.791L147.459 38.7109V40.2686L144.349 41.3232C144.166 41.3818 143.974 41.4274 143.772 41.46C143.571 41.4958 143.39 41.5202 143.23 41.5332V41.5723C143.403 41.582 143.587 41.6048 143.782 41.6406C143.978 41.6797 144.166 41.7301 144.349 41.792L147.459 42.8418V44.3994L142 42.3193V40.791ZM147.562 47.4365C147.562 47.9411 147.464 48.3757 147.269 48.7402C147.076 49.1048 146.797 49.3864 146.429 49.585C146.061 49.7835 145.612 49.8828 145.081 49.8828H144.358V46.3623C143.938 46.3786 143.608 46.5039 143.367 46.7383C143.13 46.9759 143.011 47.3047 143.011 47.7246C143.011 48.0729 143.047 48.3919 143.118 48.6816C143.19 48.9714 143.297 49.2692 143.44 49.5752H142.288C142.155 49.305 142.057 49.0218 141.995 48.7256C141.933 48.4326 141.902 48.0762 141.902 47.6562C141.902 47.1094 142.003 46.6243 142.205 46.2012C142.407 45.7812 142.715 45.4508 143.128 45.21C143.541 44.9723 144.062 44.8535 144.69 44.8535C145.328 44.8535 145.859 44.9609 146.282 45.1758C146.709 45.3939 147.028 45.6966 147.239 46.084C147.454 46.4714 147.562 46.9222 147.562 47.4365ZM146.502 47.4463C146.502 47.1566 146.409 46.9157 146.224 46.7236C146.038 46.5348 145.747 46.4258 145.35 46.3965V48.4863C145.571 48.4831 145.768 48.4424 145.94 48.3643C146.113 48.2894 146.25 48.1755 146.351 48.0225C146.451 47.8727 146.502 47.6807 146.502 47.4463Z" fill="white"/>
<path d="M27 326H32V328H29V331H27V326ZM18 326H23V331H21V328H18V326ZM21 317H23V322H18V320H21V317ZM32 320V322H27V317H29V320H32Z" fill="#4D4D4D"/>
</svg>
