<svg width="170" height="349" viewBox="0 0 170 349" fill="none" xmlns="http://www.w3.org/2000/svg">
<rect x="0.5" y="0.5" width="169" height="348" rx="21.5" stroke="black"/>
<rect x="6.5" y="9.5" width="157" height="330" rx="9.5" fill="white" stroke="black"/>
<path d="M6 19C6 13.4772 10.4772 9 16 9H154C159.523 9 164 13.4772 164 19V38H6V19Z" fill="#7E7E7E"/>
<path d="M58.1362 30.8896C57.9604 30.8896 57.8066 30.8794 57.6748 30.8589C57.54 30.8413 57.4258 30.8193 57.332 30.793V29.6592C57.4258 29.6797 57.5269 29.6987 57.6353 29.7163C57.7407 29.7368 57.8535 29.7471 57.9736 29.7471C58.1318 29.7471 58.2739 29.7163 58.3999 29.6548C58.5259 29.5962 58.6255 29.4834 58.6987 29.3164C58.772 29.1494 58.8086 28.9092 58.8086 28.5957V22.5752H60.1709V28.5869C60.1709 29.1377 60.0845 29.5815 59.9116 29.9185C59.7417 30.2583 59.5029 30.5044 59.1953 30.6567C58.8906 30.812 58.5376 30.8896 58.1362 30.8896ZM63.6953 23.9858C64.3545 23.9858 64.8599 24.1294 65.2114 24.4165C65.563 24.7036 65.7388 25.1401 65.7388 25.7261V29H64.8027L64.5435 28.332H64.5083C64.3677 28.5078 64.2241 28.6514 64.0776 28.7627C63.9312 28.874 63.7627 28.9561 63.5723 29.0088C63.3818 29.0615 63.1504 29.0879 62.8779 29.0879C62.5879 29.0879 62.3271 29.0322 62.0957 28.9209C61.8672 28.8096 61.687 28.6396 61.5552 28.4111C61.4233 28.1797 61.3574 27.8867 61.3574 27.5322C61.3574 27.0107 61.5405 26.627 61.9067 26.3809C62.2729 26.1318 62.8223 25.9941 63.5547 25.9678L64.4072 25.9414V25.7261C64.4072 25.4683 64.3398 25.2793 64.2051 25.1592C64.0703 25.0391 63.8828 24.979 63.6426 24.979C63.4053 24.979 63.1724 25.0127 62.9438 25.0801C62.7153 25.1475 62.4868 25.2324 62.2583 25.335L61.8145 24.4297C62.0752 24.292 62.3667 24.1836 62.689 24.1045C63.0142 24.0254 63.3496 23.9858 63.6953 23.9858ZM64.4072 26.7236L63.8887 26.7412C63.4551 26.7529 63.1533 26.8306 62.9834 26.9741C62.8164 27.1177 62.7329 27.3066 62.7329 27.541C62.7329 27.7461 62.793 27.8926 62.9131 27.9805C63.0332 28.0654 63.1899 28.1079 63.3833 28.1079C63.6704 28.1079 63.9121 28.0229 64.1084 27.853C64.3076 27.6831 64.4072 27.4414 64.4072 27.1279V26.7236ZM68.4634 22.1621V25.2207C68.4634 25.4053 68.4561 25.5898 68.4414 25.7744C68.4268 25.959 68.4106 26.1436 68.3931 26.3281H68.4106C68.5015 26.1992 68.5938 26.0718 68.6875 25.9458C68.7842 25.8198 68.8867 25.6982 68.9951 25.5811L70.3706 24.0869H71.8823L69.9312 26.2183L72.001 29H70.4541L69.0391 27.0093L68.4634 27.4707V29H67.123V22.1621H68.4634ZM74.73 23.9946C75.1841 23.9946 75.5752 24.0825 75.9033 24.2583C76.2314 24.4312 76.4849 24.6831 76.6636 25.0142C76.8423 25.3452 76.9316 25.7495 76.9316 26.2271V26.8774H73.7632C73.7778 27.2554 73.8906 27.5527 74.1016 27.7695C74.3154 27.9834 74.6113 28.0903 74.9893 28.0903C75.3027 28.0903 75.5898 28.0581 75.8506 27.9937C76.1113 27.9292 76.3794 27.8325 76.6548 27.7036V28.7407C76.4116 28.8608 76.1567 28.9487 75.8901 29.0044C75.6265 29.0601 75.3057 29.0879 74.9277 29.0879C74.4355 29.0879 73.999 28.9971 73.6182 28.8154C73.2402 28.6338 72.9429 28.3569 72.7261 27.9849C72.5122 27.6128 72.4053 27.144 72.4053 26.5786C72.4053 26.0044 72.502 25.5269 72.6953 25.146C72.8916 24.7622 73.1641 24.4751 73.5127 24.2847C73.8613 24.0913 74.2671 23.9946 74.73 23.9946ZM74.7388 24.9482C74.478 24.9482 74.2612 25.0317 74.0884 25.1987C73.9185 25.3657 73.8203 25.6279 73.7939 25.9854H75.6748C75.6719 25.7861 75.6353 25.6089 75.5649 25.4536C75.4976 25.2983 75.395 25.1753 75.2573 25.0845C75.1226 24.9937 74.9497 24.9482 74.7388 24.9482ZM79.1025 22.5752L79.1641 22.6719C79.1113 22.8857 79.0425 23.1143 78.9575 23.3574C78.8755 23.5977 78.7847 23.8394 78.6851 24.0825C78.5884 24.3257 78.4902 24.5571 78.3906 24.7769H77.4282C77.4692 24.6011 77.5103 24.4165 77.5513 24.2231C77.5952 24.0298 77.6362 23.8364 77.6743 23.6431C77.7153 23.4497 77.752 23.2622 77.7842 23.0806C77.8164 22.8989 77.8442 22.7305 77.8677 22.5752H79.1025ZM83.4004 27.541C83.4004 27.875 83.3213 28.1577 83.1631 28.3892C83.0078 28.6177 82.7749 28.792 82.4644 28.9121C82.1538 29.0293 81.7671 29.0879 81.3042 29.0879C80.9614 29.0879 80.667 29.0659 80.4209 29.022C80.1777 28.978 79.9316 28.9048 79.6826 28.8022V27.6948C79.9492 27.8149 80.2349 27.9146 80.5396 27.9937C80.8472 28.0698 81.1167 28.1079 81.3481 28.1079C81.6089 28.1079 81.7949 28.0698 81.9062 27.9937C82.0205 27.9146 82.0776 27.812 82.0776 27.686C82.0776 27.604 82.0542 27.5308 82.0073 27.4663C81.9634 27.3989 81.8667 27.3242 81.7173 27.2422C81.5679 27.1572 81.3335 27.0474 81.0142 26.9126C80.7065 26.7837 80.4531 26.6533 80.2539 26.5215C80.0576 26.3896 79.9111 26.2344 79.8145 26.0557C79.7207 25.874 79.6738 25.644 79.6738 25.3657C79.6738 24.9116 79.8496 24.5703 80.2012 24.3418C80.5557 24.1104 81.0288 23.9946 81.6206 23.9946C81.9253 23.9946 82.2153 24.0254 82.4907 24.0869C82.769 24.1484 83.0547 24.2466 83.3477 24.3813L82.9434 25.3481C82.7002 25.2427 82.4702 25.1562 82.2534 25.0889C82.0396 25.0215 81.8213 24.9878 81.5986 24.9878C81.4023 24.9878 81.2544 25.0142 81.1548 25.0669C81.0552 25.1196 81.0054 25.2002 81.0054 25.3086C81.0054 25.3877 81.0303 25.458 81.0801 25.5195C81.1328 25.5811 81.2324 25.6499 81.3789 25.7261C81.5283 25.7993 81.7466 25.8945 82.0337 26.0117C82.312 26.126 82.5537 26.2461 82.7588 26.3721C82.9639 26.4951 83.1221 26.6489 83.2334 26.8335C83.3447 27.0151 83.4004 27.251 83.4004 27.541ZM92.1543 29H90.7964V26.2271H88.252V29H86.8896V22.5752H88.252V25.0933H90.7964V22.5752H92.1543V29ZM98.1396 26.5347C98.1396 26.9448 98.084 27.3081 97.9727 27.6245C97.8643 27.9409 97.7046 28.209 97.4937 28.4287C97.2856 28.6455 97.0337 28.8096 96.7378 28.9209C96.4448 29.0322 96.1138 29.0879 95.7446 29.0879C95.3989 29.0879 95.0811 29.0322 94.791 28.9209C94.5039 28.8096 94.2534 28.6455 94.0396 28.4287C93.8286 28.209 93.6646 27.9409 93.5474 27.6245C93.4331 27.3081 93.376 26.9448 93.376 26.5347C93.376 25.9897 93.4727 25.5283 93.666 25.1504C93.8594 24.7725 94.1348 24.4854 94.4922 24.2891C94.8496 24.0928 95.2759 23.9946 95.771 23.9946C96.231 23.9946 96.6382 24.0928 96.9927 24.2891C97.3501 24.4854 97.6299 24.7725 97.832 25.1504C98.0371 25.5283 98.1396 25.9897 98.1396 26.5347ZM94.7427 26.5347C94.7427 26.8569 94.7778 27.1279 94.8481 27.3477C94.9185 27.5674 95.0283 27.7329 95.1777 27.8442C95.3271 27.9556 95.522 28.0112 95.7622 28.0112C95.9995 28.0112 96.1914 27.9556 96.3379 27.8442C96.4873 27.7329 96.5957 27.5674 96.6631 27.3477C96.7334 27.1279 96.7686 26.8569 96.7686 26.5347C96.7686 26.2095 96.7334 25.9399 96.6631 25.7261C96.5957 25.5093 96.4873 25.3467 96.3379 25.2383C96.1885 25.1299 95.9937 25.0757 95.7534 25.0757C95.3989 25.0757 95.1411 25.1973 94.98 25.4404C94.8218 25.6836 94.7427 26.0483 94.7427 26.5347ZM105.017 23.9946C105.574 23.9946 105.994 24.1382 106.278 24.4253C106.565 24.7095 106.709 25.1665 106.709 25.7964V29H105.364V26.1304C105.364 25.7788 105.304 25.5137 105.184 25.335C105.064 25.1562 104.878 25.0669 104.626 25.0669C104.271 25.0669 104.02 25.1943 103.87 25.4492C103.721 25.7012 103.646 26.063 103.646 26.5347V29H102.306V26.1304C102.306 25.896 102.279 25.6997 102.227 25.5415C102.174 25.3833 102.093 25.2646 101.985 25.1855C101.876 25.1064 101.737 25.0669 101.567 25.0669C101.318 25.0669 101.122 25.1299 100.979 25.2559C100.838 25.3789 100.737 25.562 100.675 25.8052C100.617 26.0454 100.587 26.3398 100.587 26.6885V29H99.2471V24.0869H100.271L100.451 24.7153H100.526C100.625 24.5454 100.75 24.4077 100.899 24.3022C101.052 24.1968 101.219 24.1191 101.4 24.0693C101.582 24.0195 101.767 23.9946 101.954 23.9946C102.314 23.9946 102.619 24.0532 102.868 24.1704C103.12 24.2876 103.313 24.4692 103.448 24.7153H103.567C103.713 24.4634 103.92 24.2803 104.187 24.166C104.456 24.0518 104.733 23.9946 105.017 23.9946ZM110.115 23.9946C110.569 23.9946 110.96 24.0825 111.288 24.2583C111.616 24.4312 111.87 24.6831 112.048 25.0142C112.227 25.3452 112.316 25.7495 112.316 26.2271V26.8774H109.148C109.163 27.2554 109.275 27.5527 109.486 27.7695C109.7 27.9834 109.996 28.0903 110.374 28.0903C110.688 28.0903 110.975 28.0581 111.235 27.9937C111.496 27.9292 111.764 27.8325 112.04 27.7036V28.7407C111.796 28.8608 111.542 28.9487 111.275 29.0044C111.011 29.0601 110.69 29.0879 110.312 29.0879C109.82 29.0879 109.384 28.9971 109.003 28.8154C108.625 28.6338 108.328 28.3569 108.111 27.9849C107.897 27.6128 107.79 27.144 107.79 26.5786C107.79 26.0044 107.887 25.5269 108.08 25.146C108.276 24.7622 108.549 24.4751 108.897 24.2847C109.246 24.0913 109.652 23.9946 110.115 23.9946ZM110.124 24.9482C109.863 24.9482 109.646 25.0317 109.473 25.1987C109.303 25.3657 109.205 25.6279 109.179 25.9854H111.06C111.057 25.7861 111.02 25.6089 110.95 25.4536C110.882 25.2983 110.78 25.1753 110.642 25.0845C110.507 24.9937 110.334 24.9482 110.124 24.9482Z" fill="white"/>
<path d="M15.7012 22H25.6856V23.3333H15.7012V22ZM15.7012 25.3333H25.6856V26.6667H15.7012V25.3333ZM15.7012 28.6667H25.6856V30H15.7012V28.6667Z" fill="white"/>
<path d="M147.992 21C145.237 21 143 23.24 143 26C143 28.76 145.237 31 147.992 31C150.748 31 152.984 28.76 152.984 26C152.984 23.24 150.748 21 147.992 21ZM148.491 29.5H147.493V28.5H148.491V29.5ZM149.525 25.625L149.076 26.085C148.716 26.45 148.491 26.75 148.491 27.5H147.493V27.25C147.493 26.7 147.718 26.2 148.077 25.835L148.696 25.205C148.881 25.025 148.991 24.775 148.991 24.5C148.991 23.95 148.541 23.5 147.992 23.5C147.443 23.5 146.994 23.95 146.994 24.5H145.995C145.995 23.395 146.889 22.5 147.992 22.5C149.095 22.5 149.989 23.395 149.989 24.5C149.989 24.94 149.809 25.34 149.525 25.625Z" fill="white" fill-opacity="0.45"/>
<g filter="url(#filter0_d_892_556)">
<path d="M6 19C6 13.4772 10.4772 9 16 9H125V340H16C10.4772 340 6 335.523 6 330V19Z" fill="white"/>
</g>
<circle cx="32" cy="69" r="15" fill="#C5C5C5"/>
<path d="M37.7 65C38.0448 65 38.3754 65.1304 38.6192 65.3626C38.863 65.5948 39 65.9097 39 66.2381V72.4286C39 72.7569 38.863 73.0718 38.6192 73.304C38.3754 73.5362 38.0448 73.6667 37.7 73.6667H27.3C26.5785 73.6667 26 73.1095 26 72.4286V66.2381C26 65.551 26.5785 65 27.3 65H37.7ZM27.95 71.8095H37.05L34.125 68.0952L31.85 70.881L30.225 69.0238L27.95 71.8095Z" fill="#4D4D4D"/>
<path d="M55.0439 67.7886C54.8828 67.7886 54.7422 67.7783 54.6221 67.7578C54.499 67.7402 54.3936 67.7153 54.3057 67.6831V66.7998C54.3994 66.8232 54.5005 66.8438 54.6089 66.8613C54.7173 66.8789 54.833 66.8877 54.9561 66.8877C55.1172 66.8877 55.2637 66.8569 55.3955 66.7954C55.5273 66.7339 55.6313 66.6226 55.7075 66.4614C55.7866 66.3003 55.8262 66.0732 55.8262 65.7803V59.5752H56.8809V65.7451C56.8809 66.2227 56.8047 66.6108 56.6523 66.9097C56.5 67.2114 56.2861 67.4326 56.0107 67.5732C55.7354 67.7168 55.4131 67.7886 55.0439 67.7886ZM60.3438 61.043C60.959 61.043 61.4233 61.1792 61.7368 61.4517C62.0532 61.7241 62.2114 62.1489 62.2114 62.7261V66H61.4775L61.2798 65.3101H61.2446C61.1069 65.4858 60.9648 65.6309 60.8184 65.7451C60.6719 65.8594 60.502 65.9443 60.3086 66C60.1182 66.0586 59.8853 66.0879 59.6099 66.0879C59.3198 66.0879 59.0605 66.0352 58.832 65.9297C58.6035 65.8213 58.4233 65.6572 58.2915 65.4375C58.1597 65.2178 58.0938 64.9395 58.0938 64.6025C58.0938 64.1016 58.2798 63.7251 58.6519 63.4731C59.0269 63.2212 59.5923 63.082 60.3481 63.0557L61.1919 63.0249V62.77C61.1919 62.4331 61.1128 62.1929 60.9546 62.0493C60.7993 61.9058 60.5796 61.834 60.2954 61.834C60.0522 61.834 59.8164 61.8691 59.5879 61.9395C59.3594 62.0098 59.1367 62.0962 58.9199 62.1987L58.5859 61.4692C58.8232 61.3433 59.0928 61.2407 59.3945 61.1616C59.6992 61.0825 60.0156 61.043 60.3438 61.043ZM61.1875 63.6753L60.5591 63.6973C60.0435 63.7148 59.6816 63.8027 59.4736 63.9609C59.2656 64.1191 59.1616 64.3359 59.1616 64.6113C59.1616 64.8516 59.2334 65.0273 59.377 65.1387C59.5205 65.2471 59.7095 65.3013 59.9438 65.3013C60.3013 65.3013 60.5972 65.2002 60.8315 64.998C61.0688 64.793 61.1875 64.4927 61.1875 64.0972V63.6753ZM64.6899 59.1621V62.4668C64.6899 62.6162 64.6841 62.7803 64.6724 62.959C64.6606 63.1348 64.6489 63.3003 64.6372 63.4556H64.6592C64.7354 63.353 64.8262 63.2329 64.9316 63.0952C65.04 62.9575 65.1426 62.8374 65.2393 62.7349L66.7246 61.1353H67.9111L65.9644 63.2271L68.0386 66H66.8257L65.27 63.8643L64.6899 64.3608V66H63.6572V59.1621H64.6899ZM70.7544 61.043C71.188 61.043 71.5601 61.1323 71.8706 61.311C72.1812 61.4897 72.4199 61.7432 72.5869 62.0713C72.7539 62.3994 72.8374 62.792 72.8374 63.249V63.8027H69.5898C69.6016 64.2744 69.7275 64.6377 69.9678 64.8926C70.2109 65.1475 70.5508 65.2749 70.9873 65.2749C71.2979 65.2749 71.5762 65.2456 71.8223 65.187C72.0713 65.1255 72.3276 65.0361 72.5913 64.9189V65.7583C72.3481 65.8726 72.1006 65.9561 71.8486 66.0088C71.5967 66.0615 71.2949 66.0879 70.9434 66.0879C70.4658 66.0879 70.0454 65.9956 69.6821 65.811C69.3218 65.6235 69.0391 65.3452 68.834 64.9761C68.6318 64.6069 68.5308 64.1484 68.5308 63.6006C68.5308 63.0557 68.623 62.5928 68.8076 62.2119C68.9922 61.8311 69.2515 61.541 69.5854 61.3418C69.9194 61.1426 70.3091 61.043 70.7544 61.043ZM70.7544 61.8208C70.4292 61.8208 70.1655 61.9263 69.9634 62.1372C69.7642 62.3481 69.647 62.6572 69.6118 63.0645H71.8267C71.8237 62.8213 71.7827 62.606 71.7036 62.4185C71.6274 62.231 71.5103 62.0845 71.3521 61.979C71.1968 61.8735 70.9976 61.8208 70.7544 61.8208ZM77.4912 66H76.4453V59.5752H80.0752V60.4629H77.4912V62.4668H79.9082V63.3501H77.4912V66ZM82.1714 61.1353V66H81.1387V61.1353H82.1714ZM81.6616 59.272C81.8198 59.272 81.9561 59.3145 82.0703 59.3994C82.1875 59.4844 82.2461 59.6309 82.2461 59.8389C82.2461 60.0439 82.1875 60.1904 82.0703 60.2783C81.9561 60.3633 81.8198 60.4058 81.6616 60.4058C81.4976 60.4058 81.3584 60.3633 81.2441 60.2783C81.1328 60.1904 81.0771 60.0439 81.0771 59.8389C81.0771 59.6309 81.1328 59.4844 81.2441 59.3994C81.3584 59.3145 81.4976 59.272 81.6616 59.272ZM86.188 61.043C86.7358 61.043 87.1621 61.1851 87.4668 61.4692C87.7744 61.7505 87.9282 62.2031 87.9282 62.8271V66H86.8955V63.0205C86.8955 62.6426 86.8179 62.3599 86.6626 62.1724C86.5073 61.9819 86.2671 61.8867 85.9419 61.8867C85.4702 61.8867 85.1421 62.0317 84.9575 62.3218C84.7759 62.6118 84.6851 63.0322 84.6851 63.583V66H83.6523V61.1353H84.4565L84.6016 61.7944H84.6587C84.7642 61.6245 84.8945 61.4854 85.0498 61.377C85.208 61.2656 85.3838 61.1821 85.5771 61.1265C85.7734 61.0708 85.9771 61.043 86.188 61.043ZM91.2812 61.043C91.8965 61.043 92.3608 61.1792 92.6743 61.4517C92.9907 61.7241 93.1489 62.1489 93.1489 62.7261V66H92.415L92.2173 65.3101H92.1821C92.0444 65.4858 91.9023 65.6309 91.7559 65.7451C91.6094 65.8594 91.4395 65.9443 91.2461 66C91.0557 66.0586 90.8228 66.0879 90.5474 66.0879C90.2573 66.0879 89.998 66.0352 89.7695 65.9297C89.541 65.8213 89.3608 65.6572 89.229 65.4375C89.0972 65.2178 89.0312 64.9395 89.0312 64.6025C89.0312 64.1016 89.2173 63.7251 89.5894 63.4731C89.9644 63.2212 90.5298 63.082 91.2856 63.0557L92.1294 63.0249V62.77C92.1294 62.4331 92.0503 62.1929 91.8921 62.0493C91.7368 61.9058 91.5171 61.834 91.2329 61.834C90.9897 61.834 90.7539 61.8691 90.5254 61.9395C90.2969 62.0098 90.0742 62.0962 89.8574 62.1987L89.5234 61.4692C89.7607 61.3433 90.0303 61.2407 90.332 61.1616C90.6367 61.0825 90.9531 61.043 91.2812 61.043ZM92.125 63.6753L91.4966 63.6973C90.981 63.7148 90.6191 63.8027 90.4111 63.9609C90.2031 64.1191 90.0991 64.3359 90.0991 64.6113C90.0991 64.8516 90.1709 65.0273 90.3145 65.1387C90.458 65.2471 90.647 65.3013 90.8813 65.3013C91.2388 65.3013 91.5347 65.2002 91.769 64.998C92.0063 64.793 92.125 64.4927 92.125 64.0972V63.6753ZM97.1304 61.043C97.6782 61.043 98.1045 61.1851 98.4092 61.4692C98.7168 61.7505 98.8706 62.2031 98.8706 62.8271V66H97.8379V63.0205C97.8379 62.6426 97.7603 62.3599 97.605 62.1724C97.4497 61.9819 97.2095 61.8867 96.8843 61.8867C96.4126 61.8867 96.0845 62.0317 95.8999 62.3218C95.7183 62.6118 95.6274 63.0322 95.6274 63.583V66H94.5947V61.1353H95.3989L95.5439 61.7944H95.6011C95.7065 61.6245 95.8369 61.4854 95.9922 61.377C96.1504 61.2656 96.3262 61.1821 96.5195 61.1265C96.7158 61.0708 96.9194 61.043 97.1304 61.043Z" fill="#666666"/>
<path d="M56.7959 72.7598C56.8799 72.7598 56.959 72.7646 57.0332 72.7744C57.1074 72.7842 57.1768 72.7979 57.2412 72.8154L57.1943 73.0879C57.1299 73.0703 57.0645 73.0576 56.998 73.0498C56.9316 73.04 56.8604 73.0352 56.7842 73.0352C56.6338 73.0352 56.499 73.0635 56.3799 73.1201C56.2627 73.1768 56.1631 73.2578 56.0811 73.3633C55.999 73.4688 55.9365 73.5957 55.8936 73.7441C55.8506 73.8926 55.8291 74.0586 55.8291 74.2422V76H55.5303V72.8154H55.7852L55.8145 73.416H55.832C55.8809 73.293 55.9492 73.1826 56.0371 73.085C56.127 72.9854 56.2354 72.9062 56.3623 72.8477C56.4893 72.7891 56.6338 72.7598 56.7959 72.7598ZM59.0723 72.7539C59.3438 72.7539 59.5693 72.8174 59.749 72.9443C59.9307 73.0713 60.0654 73.2451 60.1533 73.4658C60.2432 73.6865 60.2881 73.9395 60.2881 74.2246V74.4385H57.9883C57.9883 74.876 58.0889 75.2119 58.29 75.4463C58.4932 75.6807 58.7832 75.7979 59.1602 75.7979C59.3574 75.7979 59.5283 75.7822 59.6729 75.751C59.8193 75.7178 59.9814 75.6621 60.1592 75.584V75.8564C60.0029 75.9268 59.8467 75.9775 59.6904 76.0088C59.5342 76.042 59.3545 76.0586 59.1514 76.0586C58.8291 76.0586 58.5586 75.9922 58.3398 75.8594C58.123 75.7246 57.959 75.5352 57.8477 75.291C57.7383 75.0469 57.6836 74.7617 57.6836 74.4355C57.6836 74.1172 57.7363 73.8311 57.8418 73.5771C57.9492 73.3232 58.1055 73.123 58.3105 72.9766C58.5176 72.8281 58.7715 72.7539 59.0723 72.7539ZM59.0693 73.0088C58.7646 73.0088 58.5176 73.1104 58.3281 73.3135C58.1406 73.5146 58.0303 73.8057 57.9971 74.1865H59.9805C59.9805 73.9541 59.9473 73.749 59.8809 73.5713C59.8145 73.3936 59.7139 73.2559 59.5791 73.1582C59.4463 73.0586 59.2764 73.0088 59.0693 73.0088ZM62.2773 72.7598C62.627 72.7598 62.8887 72.8477 63.0625 73.0234C63.2363 73.1992 63.3232 73.4795 63.3232 73.8643V76H63.0947L63.042 75.4434H63.0244C62.9561 75.5625 62.873 75.6689 62.7754 75.7627C62.6777 75.8545 62.5576 75.9268 62.415 75.9795C62.2744 76.0322 62.1025 76.0586 61.8994 76.0586C61.6943 76.0586 61.5186 76.0244 61.3721 75.9561C61.2275 75.8877 61.1152 75.7881 61.0352 75.6572C60.957 75.5264 60.918 75.3672 60.918 75.1797C60.918 74.8633 61.0488 74.623 61.3105 74.459C61.5723 74.293 61.9482 74.1992 62.4385 74.1777L63.0303 74.1484V73.917C63.0303 73.5908 62.9658 73.3584 62.8369 73.2197C62.708 73.0811 62.5176 73.0117 62.2656 73.0117C62.1016 73.0117 61.9434 73.0332 61.791 73.0762C61.6406 73.1172 61.4873 73.1768 61.3311 73.2549L61.2373 73.0088C61.3896 72.9365 61.5527 72.877 61.7266 72.8301C61.9023 72.7832 62.0859 72.7598 62.2773 72.7598ZM63.0273 74.3799L62.4707 74.4033C62.0664 74.4229 61.7588 74.4951 61.5479 74.6201C61.3369 74.7451 61.2314 74.9326 61.2314 75.1826C61.2314 75.3838 61.2939 75.5381 61.4189 75.6455C61.5459 75.7529 61.7217 75.8066 61.9463 75.8066C62.2959 75.8066 62.5625 75.707 62.7461 75.5078C62.9316 75.3086 63.0254 75.0371 63.0273 74.6934V74.3799ZM64.6475 76H64.3486V71.4414H64.6475V76ZM65.2686 77.4414C65.1826 77.4414 65.1064 77.4346 65.04 77.4209C64.9736 77.4092 64.916 77.3936 64.8672 77.374V77.1191C64.9277 77.1426 64.9893 77.1582 65.0518 77.166C65.1123 77.1758 65.1768 77.1807 65.2451 77.1807C65.3936 77.1807 65.5068 77.1348 65.585 77.043C65.665 76.9512 65.7051 76.8105 65.7051 76.6211V72.8154H66.001V76.6299C66.001 76.8057 65.9707 76.9541 65.9102 77.0752C65.8516 77.1963 65.7676 77.2871 65.6582 77.3477C65.5488 77.4102 65.4189 77.4414 65.2686 77.4414ZM65.6465 71.8809C65.6465 71.8066 65.6641 71.748 65.6992 71.7051C65.7344 71.6602 65.7871 71.6377 65.8574 71.6377C65.9316 71.6377 65.9863 71.6602 66.0215 71.7051C66.0566 71.748 66.0742 71.8066 66.0742 71.8809C66.0742 71.9551 66.0566 72.0137 66.0215 72.0566C65.9863 72.0996 65.9316 72.1211 65.8574 72.1211C65.7871 72.1211 65.7344 72.0996 65.6992 72.0566C65.6641 72.0137 65.6465 71.9551 65.6465 71.8809ZM68.1777 72.7598C68.5273 72.7598 68.7891 72.8477 68.9629 73.0234C69.1367 73.1992 69.2236 73.4795 69.2236 73.8643V76H68.9951L68.9424 75.4434H68.9248C68.8564 75.5625 68.7734 75.6689 68.6758 75.7627C68.5781 75.8545 68.458 75.9268 68.3154 75.9795C68.1748 76.0322 68.0029 76.0586 67.7998 76.0586C67.5947 76.0586 67.4189 76.0244 67.2725 75.9561C67.1279 75.8877 67.0156 75.7881 66.9355 75.6572C66.8574 75.5264 66.8184 75.3672 66.8184 75.1797C66.8184 74.8633 66.9492 74.623 67.2109 74.459C67.4727 74.293 67.8486 74.1992 68.3389 74.1777L68.9307 74.1484V73.917C68.9307 73.5908 68.8662 73.3584 68.7373 73.2197C68.6084 73.0811 68.418 73.0117 68.166 73.0117C68.002 73.0117 67.8438 73.0332 67.6914 73.0762C67.541 73.1172 67.3877 73.1768 67.2314 73.2549L67.1377 73.0088C67.29 72.9365 67.4531 72.877 67.627 72.8301C67.8027 72.7832 67.9863 72.7598 68.1777 72.7598ZM68.9277 74.3799L68.3711 74.4033C67.9668 74.4229 67.6592 74.4951 67.4482 74.6201C67.2373 74.7451 67.1318 74.9326 67.1318 75.1826C67.1318 75.3838 67.1943 75.5381 67.3193 75.6455C67.4463 75.7529 67.6221 75.8066 67.8467 75.8066C68.1963 75.8066 68.4629 75.707 68.6465 75.5078C68.832 75.3086 68.9258 75.0371 68.9277 74.6934V74.3799ZM70.542 71.4414V73.7412C70.542 73.8838 70.54 74.0293 70.5361 74.1777C70.5342 74.3242 70.5312 74.4707 70.5273 74.6172H70.5332C70.5898 74.5508 70.6484 74.4814 70.709 74.4092C70.7715 74.335 70.833 74.2637 70.8936 74.1953L72.1533 72.8154H72.5107L71.2539 74.1807L72.6221 76H72.2676L71.0518 74.377L70.542 74.9131V76H70.2461V71.4414H70.542ZM74.3594 72.7539C74.6309 72.7539 74.8564 72.8174 75.0361 72.9443C75.2178 73.0713 75.3525 73.2451 75.4404 73.4658C75.5303 73.6865 75.5752 73.9395 75.5752 74.2246V74.4385H73.2754C73.2754 74.876 73.376 75.2119 73.5771 75.4463C73.7803 75.6807 74.0703 75.7979 74.4473 75.7979C74.6445 75.7979 74.8154 75.7822 74.96 75.751C75.1064 75.7178 75.2686 75.6621 75.4463 75.584V75.8564C75.29 75.9268 75.1338 75.9775 74.9775 76.0088C74.8213 76.042 74.6416 76.0586 74.4385 76.0586C74.1162 76.0586 73.8457 75.9922 73.627 75.8594C73.4102 75.7246 73.2461 75.5352 73.1348 75.291C73.0254 75.0469 72.9707 74.7617 72.9707 74.4355C72.9707 74.1172 73.0234 73.8311 73.1289 73.5771C73.2363 73.3232 73.3926 73.123 73.5977 72.9766C73.8047 72.8281 74.0586 72.7539 74.3594 72.7539ZM74.3564 73.0088C74.0518 73.0088 73.8047 73.1104 73.6152 73.3135C73.4277 73.5146 73.3174 73.8057 73.2842 74.1865H75.2676C75.2676 73.9541 75.2344 73.749 75.168 73.5713C75.1016 73.3936 75.001 73.2559 74.8662 73.1582C74.7334 73.0586 74.5635 73.0088 74.3564 73.0088ZM77.6377 73.0615H76.8877V76H76.5918V73.0615H76V72.8857L76.5918 72.8096V72.458C76.5918 72.2236 76.625 72.0293 76.6914 71.875C76.7598 71.7188 76.8623 71.6025 76.999 71.5264C77.1377 71.4482 77.3125 71.4092 77.5234 71.4092C77.6328 71.4092 77.7314 71.418 77.8193 71.4355C77.9072 71.4512 77.9893 71.4717 78.0654 71.4971L77.998 71.7461C77.9297 71.7227 77.8535 71.7031 77.7695 71.6875C77.6875 71.6719 77.6064 71.6641 77.5264 71.6641C77.3018 71.6641 77.1387 71.7266 77.0371 71.8516C76.9375 71.9746 76.8877 72.1758 76.8877 72.4551V72.8154H77.6377V73.0615ZM78.5488 72.8154V76H78.2529V72.8154H78.5488ZM78.4053 71.6377C78.4795 71.6377 78.5342 71.6602 78.5693 71.7051C78.6045 71.748 78.6221 71.8066 78.6221 71.8809C78.6221 71.9551 78.6045 72.0137 78.5693 72.0566C78.5342 72.0996 78.4795 72.1211 78.4053 72.1211C78.335 72.1211 78.2822 72.0996 78.2471 72.0566C78.2119 72.0137 78.1943 71.9551 78.1943 71.8809C78.1943 71.8066 78.2119 71.748 78.2471 71.7051C78.2822 71.6602 78.335 71.6377 78.4053 71.6377ZM81.0127 72.7539C81.3701 72.7539 81.6445 72.8477 81.8359 73.0352C82.0273 73.2227 82.123 73.5166 82.123 73.917V76H81.8301V73.9346C81.8301 73.6182 81.7578 73.3857 81.6133 73.2373C81.4688 73.0889 81.2588 73.0146 80.9834 73.0146C80.6338 73.0146 80.3662 73.1172 80.1807 73.3223C79.9971 73.5254 79.9053 73.833 79.9053 74.2451V76H79.6094V72.8154H79.8496L79.8936 73.3955H79.9111C79.9678 73.2764 80.0449 73.1689 80.1426 73.0732C80.2422 72.9756 80.3643 72.8984 80.5088 72.8418C80.6533 72.7832 80.8213 72.7539 81.0127 72.7539ZM87.6162 73.8789C87.6162 74.0762 87.5967 74.2637 87.5576 74.4414C87.5186 74.6191 87.458 74.7764 87.376 74.9131C87.2959 75.0498 87.1943 75.1572 87.0713 75.2354C86.9502 75.3135 86.8066 75.3525 86.6406 75.3525C86.4609 75.3525 86.3145 75.2998 86.2012 75.1943C86.0898 75.0869 86.0283 74.9434 86.0166 74.7637H86.002C85.918 74.959 85.7969 75.1064 85.6387 75.2061C85.4824 75.3037 85.3057 75.3525 85.1084 75.3525C84.8096 75.3525 84.5791 75.2578 84.417 75.0684C84.2549 74.877 84.1738 74.6113 84.1738 74.2715C84.1738 74.0117 84.2266 73.7812 84.332 73.5801C84.4395 73.3789 84.5879 73.2207 84.7773 73.1055C84.9688 72.9902 85.1924 72.9326 85.4482 72.9326C85.6045 72.9326 85.7539 72.9453 85.8965 72.9707C86.0391 72.9941 86.1641 73.0244 86.2715 73.0615L86.2217 74.0635C86.2197 74.1357 86.2158 74.21 86.21 74.2861C86.2061 74.3604 86.2041 74.4316 86.2041 74.5C86.2041 74.7129 86.2412 74.8701 86.3154 74.9717C86.3896 75.0713 86.5029 75.1211 86.6553 75.1211C86.8135 75.1211 86.9443 75.0674 87.0479 74.96C87.1514 74.8506 87.2285 74.7021 87.2793 74.5146C87.332 74.3271 87.3584 74.1152 87.3584 73.8789C87.3584 73.4922 87.2822 73.1572 87.1299 72.874C86.9795 72.5908 86.7627 72.373 86.4795 72.2207C86.1963 72.0664 85.8574 71.9893 85.4629 71.9893C85.1211 71.9893 84.8125 72.042 84.5371 72.1475C84.2617 72.2529 84.0254 72.4062 83.8281 72.6074C83.6309 72.8066 83.4795 73.0488 83.374 73.334C83.2686 73.6172 83.2158 73.9385 83.2158 74.2979C83.2158 74.7217 83.292 75.0859 83.4443 75.3906C83.5967 75.6953 83.8174 75.9287 84.1064 76.0908C84.3955 76.2529 84.7451 76.334 85.1553 76.334C85.3721 76.334 85.5869 76.3105 85.7998 76.2637C86.0127 76.2168 86.2109 76.1562 86.3945 76.082V76.3398C86.2227 76.4121 86.0332 76.4697 85.8262 76.5127C85.6191 76.5557 85.3955 76.5771 85.1553 76.5771C84.6982 76.5771 84.3047 76.4854 83.9746 76.3018C83.6465 76.1182 83.3936 75.8564 83.2158 75.5166C83.04 75.1768 82.9521 74.7725 82.9521 74.3037C82.9521 73.9092 83.0117 73.5547 83.1309 73.2402C83.25 72.9238 83.4199 72.6553 83.6406 72.4346C83.8613 72.2119 84.125 72.042 84.4316 71.9248C84.7402 71.8057 85.084 71.7461 85.4629 71.7461C85.8984 71.7461 86.2773 71.833 86.5996 72.0068C86.9219 72.1807 87.1719 72.4268 87.3496 72.7451C87.5273 73.0635 87.6162 73.4414 87.6162 73.8789ZM84.4521 74.2744C84.4521 74.5518 84.5098 74.7627 84.625 74.9072C84.7422 75.0498 84.9131 75.1211 85.1377 75.1211C85.3936 75.1211 85.5889 75.0342 85.7236 74.8604C85.8604 74.6846 85.9375 74.4277 85.9551 74.0898L85.9961 73.249C85.9238 73.2236 85.8418 73.2041 85.75 73.1904C85.6582 73.1768 85.5586 73.1699 85.4512 73.1699C85.2402 73.1699 85.0596 73.2178 84.9092 73.3135C84.7607 73.4092 84.6475 73.54 84.5693 73.7061C84.4912 73.8721 84.4521 74.0615 84.4521 74.2744ZM89.3125 77.4414C88.9121 77.4414 88.6006 77.3643 88.3779 77.21C88.1572 77.0557 88.0469 76.8398 88.0469 76.5625C88.0469 76.3477 88.1143 76.1621 88.249 76.0059C88.3838 75.8516 88.5664 75.7588 88.7969 75.7275C88.7051 75.6846 88.6299 75.626 88.5713 75.5518C88.5146 75.4775 88.4863 75.3916 88.4863 75.2939C88.4863 75.1846 88.5205 75.083 88.5889 74.9893C88.6572 74.8936 88.7598 74.8057 88.8965 74.7256C88.7129 74.6592 88.5684 74.5469 88.4629 74.3887C88.3574 74.2285 88.3047 74.0361 88.3047 73.8115C88.3047 73.5967 88.3506 73.4102 88.4424 73.252C88.5342 73.0938 88.6641 72.9717 88.832 72.8857C89.002 72.7979 89.2021 72.7539 89.4326 72.7539C89.5029 72.7539 89.5664 72.7559 89.623 72.7598C89.6816 72.7637 89.7354 72.7705 89.7842 72.7803C89.833 72.7881 89.877 72.7988 89.916 72.8125H90.9443V73.0234L90.2881 73.0674C90.374 73.1709 90.4385 73.2832 90.4814 73.4043C90.5244 73.5234 90.5459 73.6494 90.5459 73.7822C90.5459 74.0986 90.4463 74.3496 90.2471 74.5352C90.0479 74.7207 89.7705 74.8135 89.415 74.8135C89.3174 74.8135 89.2217 74.8047 89.1279 74.7871C89.0088 74.8574 88.918 74.9287 88.8555 75.001C88.793 75.0713 88.7617 75.1592 88.7617 75.2646C88.7617 75.3311 88.7812 75.3857 88.8203 75.4287C88.8594 75.4697 88.916 75.502 88.9902 75.5254C89.0645 75.5469 89.1553 75.5576 89.2627 75.5576H89.8223C90.168 75.5576 90.4326 75.6279 90.6162 75.7686C90.7998 75.9092 90.8916 76.1162 90.8916 76.3896C90.8916 76.7236 90.7539 76.9824 90.4785 77.166C90.2051 77.3496 89.8164 77.4414 89.3125 77.4414ZM89.333 77.1924C89.6123 77.1924 89.8447 77.1621 90.0303 77.1016C90.2178 77.041 90.3584 76.9512 90.4521 76.832C90.5459 76.7148 90.5928 76.5693 90.5928 76.3955C90.5928 76.2529 90.5586 76.1426 90.4902 76.0645C90.4219 75.9863 90.3252 75.9326 90.2002 75.9033C90.0752 75.8721 89.9277 75.8564 89.7578 75.8564H89.2246C89.0547 75.8564 88.9033 75.8799 88.7705 75.9268C88.6377 75.9717 88.5342 76.0439 88.46 76.1436C88.3877 76.2432 88.3516 76.376 88.3516 76.542C88.3516 76.7549 88.4346 76.916 88.6006 77.0254C88.7686 77.1367 89.0127 77.1924 89.333 77.1924ZM89.4268 74.5762C89.6904 74.5762 89.8926 74.5098 90.0332 74.377C90.1738 74.2441 90.2441 74.0518 90.2441 73.7998C90.2441 73.5303 90.1719 73.3281 90.0273 73.1934C89.8828 73.0586 89.6807 72.9912 89.4209 72.9912C89.1689 72.9912 88.9707 73.0635 88.8262 73.208C88.6836 73.3506 88.6123 73.5518 88.6123 73.8115C88.6123 74.0537 88.6807 74.2422 88.8174 74.377C88.9541 74.5098 89.1572 74.5762 89.4268 74.5762ZM94.873 72.7539C95.1797 72.7539 95.4219 72.8428 95.5996 73.0205C95.7773 73.1982 95.8662 73.4785 95.8662 73.8613V76H95.5762V73.873C95.5762 73.5781 95.5088 73.3613 95.374 73.2227C95.2393 73.084 95.0615 73.0146 94.8408 73.0146C94.5381 73.0146 94.3008 73.1035 94.1289 73.2812C93.959 73.457 93.874 73.7344 93.874 74.1133V76H93.5811V73.873C93.5811 73.6758 93.5498 73.5146 93.4873 73.3896C93.4268 73.2627 93.3418 73.1689 93.2324 73.1084C93.123 73.0459 92.9941 73.0146 92.8457 73.0146C92.6484 73.0146 92.4775 73.0557 92.333 73.1377C92.1885 73.2178 92.0771 73.3428 91.999 73.5127C91.9209 73.6807 91.8818 73.8945 91.8818 74.1543V76H91.5859V72.8154H91.8262L91.8701 73.3369H91.8877C91.9404 73.2334 92.0107 73.1377 92.0986 73.0498C92.1865 72.9619 92.2949 72.8906 92.4238 72.8359C92.5547 72.7812 92.708 72.7539 92.8838 72.7539C93.1123 72.7539 93.3057 72.8057 93.4639 72.9092C93.624 73.0107 93.7354 73.1621 93.7979 73.3633H93.8184C93.9043 73.1719 94.0371 73.0225 94.2168 72.915C94.3984 72.8076 94.6172 72.7539 94.873 72.7539ZM98.002 72.7598C98.3516 72.7598 98.6133 72.8477 98.7871 73.0234C98.9609 73.1992 99.0479 73.4795 99.0479 73.8643V76H98.8193L98.7666 75.4434H98.749C98.6807 75.5625 98.5977 75.6689 98.5 75.7627C98.4023 75.8545 98.2822 75.9268 98.1396 75.9795C97.999 76.0322 97.8271 76.0586 97.624 76.0586C97.4189 76.0586 97.2432 76.0244 97.0967 75.9561C96.9521 75.8877 96.8398 75.7881 96.7598 75.6572C96.6816 75.5264 96.6426 75.3672 96.6426 75.1797C96.6426 74.8633 96.7734 74.623 97.0352 74.459C97.2969 74.293 97.6729 74.1992 98.1631 74.1777L98.7549 74.1484V73.917C98.7549 73.5908 98.6904 73.3584 98.5615 73.2197C98.4326 73.0811 98.2422 73.0117 97.9902 73.0117C97.8262 73.0117 97.668 73.0332 97.5156 73.0762C97.3652 73.1172 97.2119 73.1768 97.0557 73.2549L96.9619 73.0088C97.1143 72.9365 97.2773 72.877 97.4512 72.8301C97.627 72.7832 97.8105 72.7598 98.002 72.7598ZM98.752 74.3799L98.1953 74.4033C97.791 74.4229 97.4834 74.4951 97.2725 74.6201C97.0615 74.7451 96.9561 74.9326 96.9561 75.1826C96.9561 75.3838 97.0186 75.5381 97.1436 75.6455C97.2705 75.7529 97.4463 75.8066 97.6709 75.8066C98.0205 75.8066 98.2871 75.707 98.4707 75.5078C98.6562 75.3086 98.75 75.0371 98.752 74.6934V74.3799ZM100.366 72.8154V76H100.07V72.8154H100.366ZM100.223 71.6377C100.297 71.6377 100.352 71.6602 100.387 71.7051C100.422 71.748 100.439 71.8066 100.439 71.8809C100.439 71.9551 100.422 72.0137 100.387 72.0566C100.352 72.0996 100.297 72.1211 100.223 72.1211C100.152 72.1211 100.1 72.0996 100.064 72.0566C100.029 72.0137 100.012 71.9551 100.012 71.8809C100.012 71.8066 100.029 71.748 100.064 71.7051C100.1 71.6602 100.152 71.6377 100.223 71.6377ZM101.731 76H101.433V71.4414H101.731V76ZM102.742 75.792C102.742 75.7061 102.762 75.6406 102.801 75.5957C102.84 75.5488 102.897 75.5254 102.974 75.5254C103.058 75.5254 103.119 75.5488 103.158 75.5957C103.197 75.6406 103.217 75.7061 103.217 75.792C103.217 75.8779 103.197 75.9443 103.158 75.9912C103.119 76.0381 103.058 76.0615 102.974 76.0615C102.897 76.0615 102.84 76.0381 102.801 75.9912C102.762 75.9443 102.742 75.8779 102.742 75.792ZM105.496 76.0586C105.18 76.0586 104.912 75.9932 104.693 75.8623C104.477 75.7295 104.312 75.541 104.201 75.2969C104.092 75.0508 104.037 74.7598 104.037 74.4238C104.037 74.0742 104.101 73.7754 104.228 73.5273C104.354 73.2773 104.533 73.0859 104.764 72.9531C104.994 72.8203 105.265 72.7539 105.575 72.7539C105.728 72.7539 105.869 72.7676 106 72.7949C106.131 72.8223 106.249 72.8604 106.354 72.9092L106.275 73.1699C106.166 73.1211 106.05 73.084 105.927 73.0586C105.804 73.0332 105.686 73.0205 105.572 73.0205C105.311 73.0205 105.088 73.0781 104.904 73.1934C104.723 73.3066 104.583 73.4688 104.485 73.6797C104.39 73.8887 104.342 74.1357 104.342 74.4209C104.342 74.6885 104.383 74.9258 104.465 75.1328C104.547 75.3379 104.673 75.5 104.843 75.6191C105.013 75.7363 105.23 75.7949 105.496 75.7949C105.65 75.7949 105.797 75.7793 105.936 75.748C106.076 75.7168 106.204 75.6768 106.319 75.6279V75.8975C106.216 75.9443 106.096 75.9824 105.959 76.0117C105.824 76.043 105.67 76.0586 105.496 76.0586ZM109.715 74.4033C109.715 74.6494 109.685 74.874 109.624 75.0771C109.563 75.2783 109.474 75.4521 109.354 75.5986C109.235 75.7451 109.087 75.8584 108.909 75.9385C108.733 76.0186 108.528 76.0586 108.294 76.0586C108.071 76.0586 107.873 76.0195 107.699 75.9414C107.525 75.8613 107.378 75.748 107.257 75.6016C107.138 75.4551 107.047 75.2812 106.984 75.0801C106.922 74.877 106.891 74.6514 106.891 74.4033C106.891 74.0615 106.947 73.7676 107.061 73.5215C107.176 73.2734 107.34 73.084 107.553 72.9531C107.768 72.8203 108.024 72.7539 108.323 72.7539C108.632 72.7539 108.889 72.8242 109.094 72.9648C109.301 73.1035 109.456 73.2969 109.56 73.5449C109.663 73.793 109.715 74.0791 109.715 74.4033ZM107.195 74.4033C107.195 74.6826 107.235 74.9268 107.315 75.1357C107.396 75.3447 107.517 75.5078 107.679 75.625C107.843 75.7422 108.05 75.8008 108.3 75.8008C108.556 75.8008 108.766 75.7422 108.93 75.625C109.094 75.5078 109.215 75.3438 109.293 75.1328C109.371 74.9219 109.41 74.6787 109.41 74.4033C109.41 74.1357 109.373 73.8975 109.299 73.6885C109.225 73.4795 109.107 73.3154 108.947 73.1963C108.787 73.0752 108.578 73.0146 108.32 73.0146C107.951 73.0146 107.671 73.1377 107.479 73.3838C107.29 73.6299 107.195 73.9697 107.195 74.4033ZM113.881 72.7539C114.188 72.7539 114.43 72.8428 114.607 73.0205C114.785 73.1982 114.874 73.4785 114.874 73.8613V76H114.584V73.873C114.584 73.5781 114.517 73.3613 114.382 73.2227C114.247 73.084 114.069 73.0146 113.849 73.0146C113.546 73.0146 113.309 73.1035 113.137 73.2812C112.967 73.457 112.882 73.7344 112.882 74.1133V76H112.589V73.873C112.589 73.6758 112.558 73.5146 112.495 73.3896C112.435 73.2627 112.35 73.1689 112.24 73.1084C112.131 73.0459 112.002 73.0146 111.854 73.0146C111.656 73.0146 111.485 73.0557 111.341 73.1377C111.196 73.2178 111.085 73.3428 111.007 73.5127C110.929 73.6807 110.89 73.8945 110.89 74.1543V76H110.594V72.8154H110.834L110.878 73.3369H110.896C110.948 73.2334 111.019 73.1377 111.106 73.0498C111.194 72.9619 111.303 72.8906 111.432 72.8359C111.562 72.7812 111.716 72.7539 111.892 72.7539C112.12 72.7539 112.313 72.8057 112.472 72.9092C112.632 73.0107 112.743 73.1621 112.806 73.3633H112.826C112.912 73.1719 113.045 73.0225 113.225 72.915C113.406 72.8076 113.625 72.7539 113.881 72.7539Z" fill="#7E7E7E"/>
<path d="M105 28.8921L106.108 30L110.5 25.6079L114.892 30L116 28.8921L111.608 24.5L116 20.1079L114.892 19L110.5 23.3921L106.108 19L105 20.1079L109.392 24.5L105 28.8921Z" fill="#515151"/>
<path d="M56.4102 179.289C57.1471 179.289 57.6849 179.44 58.0234 179.742C58.362 180.044 58.5312 180.467 58.5312 181.012C58.5312 181.259 58.4922 181.495 58.4141 181.719C58.3385 181.94 58.2135 182.137 58.0391 182.309C57.8646 182.478 57.6341 182.612 57.3477 182.711C57.0638 182.81 56.7135 182.859 56.2969 182.859H55.6875V185H54.75V179.289H56.4102ZM56.3477 180.066H55.6875V182.078H56.1992C56.4935 182.078 56.7435 182.044 56.9492 181.977C57.1549 181.906 57.3112 181.796 57.418 181.645C57.5247 181.493 57.5781 181.294 57.5781 181.047C57.5781 180.716 57.4779 180.47 57.2773 180.309C57.0794 180.147 56.7695 180.066 56.3477 180.066ZM61.3008 180.594C61.6862 180.594 62.0169 180.673 62.293 180.832C62.569 180.991 62.7812 181.216 62.9297 181.508C63.0781 181.799 63.1523 182.148 63.1523 182.555V183.047H60.2656C60.276 183.466 60.388 183.789 60.6016 184.016C60.8177 184.242 61.1198 184.355 61.5078 184.355C61.7839 184.355 62.0312 184.329 62.25 184.277C62.4714 184.223 62.6992 184.143 62.9336 184.039V184.785C62.7174 184.887 62.4974 184.961 62.2734 185.008C62.0495 185.055 61.7812 185.078 61.4688 185.078C61.0443 185.078 60.6706 184.996 60.3477 184.832C60.0273 184.665 59.776 184.418 59.5938 184.09C59.4141 183.762 59.3242 183.354 59.3242 182.867C59.3242 182.383 59.4062 181.971 59.5703 181.633C59.7344 181.294 59.9648 181.036 60.2617 180.859C60.5586 180.682 60.9049 180.594 61.3008 180.594ZM61.3008 181.285C61.0117 181.285 60.7773 181.379 60.5977 181.566C60.4206 181.754 60.3164 182.029 60.2852 182.391H62.2539C62.2513 182.174 62.2148 181.983 62.1445 181.816C62.0768 181.65 61.9727 181.52 61.832 181.426C61.694 181.332 61.5169 181.285 61.3008 181.285ZM66.3789 180.594C66.4518 180.594 66.5312 180.598 66.6172 180.605C66.7031 180.613 66.7773 180.624 66.8398 180.637L66.7539 181.496C66.6992 181.48 66.6315 181.469 66.5508 181.461C66.4727 181.453 66.4023 181.449 66.3398 181.449C66.1758 181.449 66.0195 181.477 65.8711 181.531C65.7227 181.583 65.5911 181.664 65.4766 181.773C65.362 181.88 65.2721 182.014 65.207 182.176C65.1419 182.337 65.1094 182.525 65.1094 182.738V185H64.1875V180.676H64.9062L65.0312 181.438H65.0742C65.1602 181.284 65.2669 181.143 65.3945 181.016C65.5221 180.888 65.668 180.786 65.832 180.711C65.9987 180.633 66.181 180.594 66.3789 180.594ZM72.5273 180.594C73.0117 180.594 73.3763 180.719 73.6211 180.969C73.8685 181.219 73.9922 181.62 73.9922 182.172V185H73.0742V182.336C73.0742 182.008 73.0104 181.76 72.8828 181.594C72.7552 181.427 72.5612 181.344 72.3008 181.344C71.9362 181.344 71.6732 181.461 71.5117 181.695C71.3529 181.927 71.2734 182.264 71.2734 182.707V185H70.3555V182.336C70.3555 182.117 70.3268 181.935 70.2695 181.789C70.2148 181.641 70.1302 181.53 70.0156 181.457C69.901 181.382 69.7565 181.344 69.582 181.344C69.3294 181.344 69.1276 181.401 68.9766 181.516C68.8281 181.63 68.7214 181.799 68.6562 182.023C68.5911 182.245 68.5586 182.517 68.5586 182.84V185H67.6406V180.676H68.3555L68.4844 181.258H68.5352C68.6237 181.107 68.7331 180.983 68.8633 180.887C68.9961 180.788 69.1432 180.715 69.3047 180.668C69.4661 180.618 69.6341 180.594 69.8086 180.594C70.1315 180.594 70.4036 180.651 70.625 180.766C70.8464 180.878 71.0117 181.049 71.1211 181.281H71.1914C71.3268 181.047 71.5156 180.874 71.7578 180.762C72 180.65 72.2565 180.594 72.5273 180.594ZM76.1914 180.676V185H75.2734V180.676H76.1914ZM75.7383 179.02C75.8789 179.02 76 179.057 76.1016 179.133C76.2057 179.208 76.2578 179.339 76.2578 179.523C76.2578 179.706 76.2057 179.836 76.1016 179.914C76 179.99 75.8789 180.027 75.7383 180.027C75.5924 180.027 75.4688 179.99 75.3672 179.914C75.2682 179.836 75.2188 179.706 75.2188 179.523C75.2188 179.339 75.2682 179.208 75.3672 179.133C75.4688 179.057 75.5924 179.02 75.7383 179.02ZM80.4141 183.766C80.4141 184.049 80.3451 184.289 80.207 184.484C80.069 184.68 79.8672 184.828 79.6016 184.93C79.3385 185.029 79.0156 185.078 78.6328 185.078C78.3307 185.078 78.0703 185.056 77.8516 185.012C77.6354 184.97 77.431 184.905 77.2383 184.816V184.023C77.444 184.12 77.6745 184.203 77.9297 184.273C78.1875 184.344 78.431 184.379 78.6602 184.379C78.9622 184.379 79.1797 184.332 79.3125 184.238C79.4453 184.142 79.5117 184.014 79.5117 183.855C79.5117 183.762 79.4844 183.678 79.4297 183.605C79.3776 183.53 79.2786 183.453 79.1328 183.375C78.9896 183.294 78.7786 183.198 78.5 183.086C78.2266 182.977 77.9961 182.867 77.8086 182.758C77.6211 182.648 77.4792 182.517 77.3828 182.363C77.2865 182.207 77.2383 182.008 77.2383 181.766C77.2383 181.383 77.3893 181.092 77.6914 180.895C77.9961 180.694 78.3984 180.594 78.8984 180.594C79.1641 180.594 79.4141 180.621 79.6484 180.676C79.8854 180.728 80.1172 180.805 80.3438 180.906L80.0547 181.598C79.8594 181.512 79.6628 181.441 79.4648 181.387C79.2695 181.329 79.0703 181.301 78.8672 181.301C78.6302 181.301 78.4492 181.337 78.3242 181.41C78.2018 181.483 78.1406 181.587 78.1406 181.723C78.1406 181.824 78.1706 181.91 78.2305 181.98C78.2904 182.051 78.3932 182.121 78.5391 182.191C78.6875 182.262 78.8932 182.349 79.1562 182.453C79.4141 182.552 79.6367 182.656 79.8242 182.766C80.0143 182.872 80.1602 183.004 80.2617 183.16C80.3633 183.316 80.4141 183.518 80.4141 183.766ZM84.3125 183.766C84.3125 184.049 84.2435 184.289 84.1055 184.484C83.9674 184.68 83.7656 184.828 83.5 184.93C83.237 185.029 82.9141 185.078 82.5312 185.078C82.2292 185.078 81.9688 185.056 81.75 185.012C81.5339 184.97 81.3294 184.905 81.1367 184.816V184.023C81.3424 184.12 81.5729 184.203 81.8281 184.273C82.0859 184.344 82.3294 184.379 82.5586 184.379C82.8607 184.379 83.0781 184.332 83.2109 184.238C83.3438 184.142 83.4102 184.014 83.4102 183.855C83.4102 183.762 83.3828 183.678 83.3281 183.605C83.276 183.53 83.1771 183.453 83.0312 183.375C82.888 183.294 82.6771 183.198 82.3984 183.086C82.125 182.977 81.8945 182.867 81.707 182.758C81.5195 182.648 81.3776 182.517 81.2812 182.363C81.1849 182.207 81.1367 182.008 81.1367 181.766C81.1367 181.383 81.2878 181.092 81.5898 180.895C81.8945 180.694 82.2969 180.594 82.7969 180.594C83.0625 180.594 83.3125 180.621 83.5469 180.676C83.7839 180.728 84.0156 180.805 84.2422 180.906L83.9531 181.598C83.7578 181.512 83.5612 181.441 83.3633 181.387C83.168 181.329 82.9688 181.301 82.7656 181.301C82.5286 181.301 82.3477 181.337 82.2227 181.41C82.1003 181.483 82.0391 181.587 82.0391 181.723C82.0391 181.824 82.069 181.91 82.1289 181.98C82.1888 182.051 82.2917 182.121 82.4375 182.191C82.5859 182.262 82.7917 182.349 83.0547 182.453C83.3125 182.552 83.5352 182.656 83.7227 182.766C83.9128 182.872 84.0586 183.004 84.1602 183.16C84.2617 183.316 84.3125 183.518 84.3125 183.766ZM86.2227 180.676V185H85.3047V180.676H86.2227ZM85.7695 179.02C85.9102 179.02 86.0312 179.057 86.1328 179.133C86.237 179.208 86.2891 179.339 86.2891 179.523C86.2891 179.706 86.237 179.836 86.1328 179.914C86.0312 179.99 85.9102 180.027 85.7695 180.027C85.6237 180.027 85.5 179.99 85.3984 179.914C85.2995 179.836 85.25 179.706 85.25 179.523C85.25 179.339 85.2995 179.208 85.3984 179.133C85.5 179.057 85.6237 179.02 85.7695 179.02ZM91.3672 182.828C91.3672 183.188 91.3203 183.507 91.2266 183.785C91.1328 184.064 90.9961 184.299 90.8164 184.492C90.6367 184.682 90.4206 184.828 90.168 184.93C89.9154 185.029 89.6302 185.078 89.3125 185.078C89.0156 185.078 88.7435 185.029 88.4961 184.93C88.2487 184.828 88.0339 184.682 87.8516 184.492C87.6719 184.299 87.5326 184.064 87.4336 183.785C87.3346 183.507 87.2852 183.188 87.2852 182.828C87.2852 182.352 87.3672 181.948 87.5312 181.617C87.6979 181.284 87.9349 181.03 88.2422 180.855C88.5495 180.681 88.9154 180.594 89.3398 180.594C89.7383 180.594 90.0898 180.681 90.3945 180.855C90.6992 181.03 90.9375 181.284 91.1094 181.617C91.2812 181.951 91.3672 182.354 91.3672 182.828ZM88.2305 182.828C88.2305 183.143 88.2682 183.413 88.3438 183.637C88.4219 183.861 88.5417 184.033 88.7031 184.152C88.8646 184.27 89.0729 184.328 89.3281 184.328C89.5833 184.328 89.7917 184.27 89.9531 184.152C90.1146 184.033 90.2331 183.861 90.3086 183.637C90.3841 183.413 90.4219 183.143 90.4219 182.828C90.4219 182.513 90.3841 182.246 90.3086 182.027C90.2331 181.806 90.1146 181.638 89.9531 181.523C89.7917 181.406 89.582 181.348 89.3242 181.348C88.944 181.348 88.6667 181.475 88.4922 181.73C88.3177 181.986 88.2305 182.352 88.2305 182.828ZM94.6758 180.594C95.1628 180.594 95.5417 180.72 95.8125 180.973C96.0859 181.223 96.2227 181.625 96.2227 182.18V185H95.3047V182.352C95.3047 182.016 95.2357 181.764 95.0977 181.598C94.9596 181.428 94.7461 181.344 94.457 181.344C94.0378 181.344 93.7461 181.473 93.582 181.73C93.4206 181.988 93.3398 182.362 93.3398 182.852V185H92.4219V180.676H93.1367L93.2656 181.262H93.3164C93.4102 181.111 93.526 180.987 93.6641 180.891C93.8047 180.792 93.9609 180.717 94.1328 180.668C94.3073 180.618 94.4883 180.594 94.6758 180.594ZM100.414 183.766C100.414 184.049 100.345 184.289 100.207 184.484C100.069 184.68 99.8672 184.828 99.6016 184.93C99.3385 185.029 99.0156 185.078 98.6328 185.078C98.3307 185.078 98.0703 185.056 97.8516 185.012C97.6354 184.97 97.431 184.905 97.2383 184.816V184.023C97.444 184.12 97.6745 184.203 97.9297 184.273C98.1875 184.344 98.431 184.379 98.6602 184.379C98.9622 184.379 99.1797 184.332 99.3125 184.238C99.4453 184.142 99.5117 184.014 99.5117 183.855C99.5117 183.762 99.4844 183.678 99.4297 183.605C99.3776 183.53 99.2786 183.453 99.1328 183.375C98.9896 183.294 98.7786 183.198 98.5 183.086C98.2266 182.977 97.9961 182.867 97.8086 182.758C97.6211 182.648 97.4792 182.517 97.3828 182.363C97.2865 182.207 97.2383 182.008 97.2383 181.766C97.2383 181.383 97.3893 181.092 97.6914 180.895C97.9961 180.694 98.3984 180.594 98.8984 180.594C99.1641 180.594 99.4141 180.621 99.6484 180.676C99.8854 180.728 100.117 180.805 100.344 180.906L100.055 181.598C99.8594 181.512 99.6628 181.441 99.4648 181.387C99.2695 181.329 99.0703 181.301 98.8672 181.301C98.6302 181.301 98.4492 181.337 98.3242 181.41C98.2018 181.483 98.1406 181.587 98.1406 181.723C98.1406 181.824 98.1706 181.91 98.2305 181.98C98.2904 182.051 98.3932 182.121 98.5391 182.191C98.6875 182.262 98.8932 182.349 99.1562 182.453C99.4141 182.552 99.6367 182.656 99.8242 182.766C100.014 182.872 100.16 183.004 100.262 183.16C100.363 183.316 100.414 183.518 100.414 183.766Z" fill="#6F6F6F"/>
<path d="M37.1818 182.909C36.7818 182.909 36.4545 182.582 36.4545 182.182C36.4545 181.782 36.7818 181.455 37.1818 181.455C37.5818 181.455 37.9091 181.782 37.9091 182.182C37.9091 182.582 37.5818 182.909 37.1818 182.909ZM39.2182 181.455C38.9273 180.618 38.1273 180 37.1818 180C35.9818 180 35 180.982 35 182.182C35 183.382 35.9818 184.364 37.1818 184.364C38.1273 184.364 38.9273 183.745 39.2182 182.909H40.4545V184.364H41.9091V182.909H43V181.455H39.2182Z" fill="#4D4D4D"/>
<path d="M59.0469 206.445C59.0469 206.784 58.9635 207.076 58.7969 207.32C58.6328 207.565 58.3958 207.753 58.0859 207.883C57.7786 208.013 57.4115 208.078 56.9844 208.078C56.776 208.078 56.5768 208.066 56.3867 208.043C56.1966 208.02 56.0169 207.986 55.8477 207.941C55.681 207.895 55.5286 207.839 55.3906 207.773V206.891C55.6224 206.992 55.8815 207.085 56.168 207.168C56.4544 207.249 56.7461 207.289 57.043 207.289C57.2852 207.289 57.4857 207.258 57.6445 207.195C57.806 207.13 57.9258 207.039 58.0039 206.922C58.082 206.802 58.1211 206.663 58.1211 206.504C58.1211 206.335 58.0755 206.191 57.9844 206.074C57.8932 205.957 57.7552 205.85 57.5703 205.754C57.388 205.655 57.1589 205.549 56.8828 205.438C56.6953 205.362 56.5156 205.276 56.3438 205.18C56.1745 205.083 56.0234 204.97 55.8906 204.84C55.7578 204.71 55.6523 204.556 55.5742 204.379C55.4987 204.199 55.4609 203.988 55.4609 203.746C55.4609 203.423 55.5378 203.147 55.6914 202.918C55.8477 202.689 56.0664 202.513 56.3477 202.391C56.6315 202.268 56.9622 202.207 57.3398 202.207C57.6393 202.207 57.9206 202.238 58.1836 202.301C58.4492 202.363 58.7096 202.452 58.9648 202.566L58.668 203.32C58.4336 203.224 58.2057 203.147 57.9844 203.09C57.7656 203.033 57.5417 203.004 57.3125 203.004C57.1146 203.004 56.9466 203.034 56.8086 203.094C56.6706 203.154 56.5651 203.238 56.4922 203.348C56.4219 203.454 56.3867 203.582 56.3867 203.73C56.3867 203.897 56.4271 204.038 56.5078 204.152C56.5911 204.264 56.7188 204.367 56.8906 204.461C57.0651 204.555 57.2891 204.659 57.5625 204.773C57.8776 204.904 58.1445 205.04 58.3633 205.184C58.5846 205.327 58.7539 205.499 58.8711 205.699C58.9883 205.897 59.0469 206.146 59.0469 206.445ZM61.7773 203.594C62.1628 203.594 62.4935 203.673 62.7695 203.832C63.0456 203.991 63.2578 204.216 63.4062 204.508C63.5547 204.799 63.6289 205.148 63.6289 205.555V206.047H60.7422C60.7526 206.466 60.8646 206.789 61.0781 207.016C61.2943 207.242 61.5964 207.355 61.9844 207.355C62.2604 207.355 62.5078 207.329 62.7266 207.277C62.9479 207.223 63.1758 207.143 63.4102 207.039V207.785C63.194 207.887 62.974 207.961 62.75 208.008C62.526 208.055 62.2578 208.078 61.9453 208.078C61.5208 208.078 61.1471 207.996 60.8242 207.832C60.5039 207.665 60.2526 207.418 60.0703 207.09C59.8906 206.762 59.8008 206.354 59.8008 205.867C59.8008 205.383 59.8828 204.971 60.0469 204.633C60.2109 204.294 60.4414 204.036 60.7383 203.859C61.0352 203.682 61.3815 203.594 61.7773 203.594ZM61.7773 204.285C61.4883 204.285 61.2539 204.379 61.0742 204.566C60.8971 204.754 60.793 205.029 60.7617 205.391H62.7305C62.7279 205.174 62.6914 204.983 62.6211 204.816C62.5534 204.65 62.4492 204.52 62.3086 204.426C62.1706 204.332 61.9935 204.285 61.7773 204.285ZM66.2734 207.336C66.3932 207.336 66.5117 207.326 66.6289 207.305C66.7461 207.281 66.8529 207.254 66.9492 207.223V207.918C66.8477 207.962 66.7161 208 66.5547 208.031C66.3932 208.062 66.2253 208.078 66.0508 208.078C65.806 208.078 65.5859 208.038 65.3906 207.957C65.1953 207.874 65.0404 207.732 64.9258 207.531C64.8112 207.331 64.7539 207.053 64.7539 206.699V204.375H64.1641V203.965L64.7969 203.641L65.0977 202.715H65.6758V203.676H66.9141V204.375H65.6758V206.688C65.6758 206.906 65.7305 207.069 65.8398 207.176C65.9492 207.283 66.0938 207.336 66.2734 207.336ZM69.4375 207.336C69.5573 207.336 69.6758 207.326 69.793 207.305C69.9102 207.281 70.0169 207.254 70.1133 207.223V207.918C70.0117 207.962 69.8802 208 69.7188 208.031C69.5573 208.062 69.3893 208.078 69.2148 208.078C68.9701 208.078 68.75 208.038 68.5547 207.957C68.3594 207.874 68.2044 207.732 68.0898 207.531C67.9753 207.331 67.918 207.053 67.918 206.699V204.375H67.3281V203.965L67.9609 203.641L68.2617 202.715H68.8398V203.676H70.0781V204.375H68.8398V206.688C68.8398 206.906 68.8945 207.069 69.0039 207.176C69.1133 207.283 69.2578 207.336 69.4375 207.336ZM71.9102 203.676V208H70.9922V203.676H71.9102ZM71.457 202.02C71.5977 202.02 71.7188 202.057 71.8203 202.133C71.9245 202.208 71.9766 202.339 71.9766 202.523C71.9766 202.706 71.9245 202.836 71.8203 202.914C71.7188 202.99 71.5977 203.027 71.457 203.027C71.3112 203.027 71.1875 202.99 71.0859 202.914C70.987 202.836 70.9375 202.706 70.9375 202.523C70.9375 202.339 70.987 202.208 71.0859 202.133C71.1875 202.057 71.3112 202.02 71.457 202.02ZM75.4805 203.594C75.9674 203.594 76.3464 203.72 76.6172 203.973C76.8906 204.223 77.0273 204.625 77.0273 205.18V208H76.1094V205.352C76.1094 205.016 76.0404 204.764 75.9023 204.598C75.7643 204.428 75.5508 204.344 75.2617 204.344C74.8424 204.344 74.5508 204.473 74.3867 204.73C74.2253 204.988 74.1445 205.362 74.1445 205.852V208H73.2266V203.676H73.9414L74.0703 204.262H74.1211C74.2148 204.111 74.3307 203.987 74.4688 203.891C74.6094 203.792 74.7656 203.717 74.9375 203.668C75.112 203.618 75.293 203.594 75.4805 203.594ZM79.5469 209.922C78.9609 209.922 78.5117 209.816 78.1992 209.605C77.8867 209.395 77.7305 209.099 77.7305 208.719C77.7305 208.453 77.8138 208.228 77.9805 208.043C78.1471 207.861 78.3854 207.734 78.6953 207.664C78.5781 207.612 78.4766 207.531 78.3906 207.422C78.3073 207.31 78.2656 207.186 78.2656 207.051C78.2656 206.889 78.3112 206.751 78.4023 206.637C78.4935 206.522 78.6302 206.411 78.8125 206.305C78.5859 206.208 78.4036 206.052 78.2656 205.836C78.1302 205.617 78.0625 205.361 78.0625 205.066C78.0625 204.754 78.1289 204.488 78.2617 204.27C78.3945 204.048 78.5885 203.88 78.8438 203.766C79.099 203.648 79.4076 203.59 79.7695 203.59C79.8477 203.59 79.9323 203.595 80.0234 203.605C80.1172 203.613 80.2031 203.624 80.2812 203.637C80.362 203.647 80.4232 203.659 80.4648 203.672H81.9609V204.184L81.2266 204.32C81.2969 204.419 81.3529 204.533 81.3945 204.66C81.4362 204.785 81.457 204.922 81.457 205.07C81.457 205.518 81.3021 205.871 80.9922 206.129C80.6849 206.384 80.2604 206.512 79.7188 206.512C79.5885 206.507 79.4622 206.496 79.3398 206.48C79.2461 206.538 79.1745 206.602 79.125 206.672C79.0755 206.74 79.0508 206.816 79.0508 206.902C79.0508 206.973 79.0755 207.03 79.125 207.074C79.1745 207.116 79.2474 207.147 79.3438 207.168C79.4427 207.189 79.5625 207.199 79.7031 207.199H80.4492C80.9232 207.199 81.2852 207.299 81.5352 207.5C81.7852 207.701 81.9102 207.995 81.9102 208.383C81.9102 208.875 81.707 209.254 81.3008 209.52C80.8945 209.788 80.3099 209.922 79.5469 209.922ZM79.582 209.277C79.9023 209.277 80.1719 209.246 80.3906 209.184C80.6094 209.121 80.7747 209.031 80.8867 208.914C80.9987 208.799 81.0547 208.663 81.0547 208.504C81.0547 208.363 81.0195 208.255 80.9492 208.18C80.8789 208.104 80.7734 208.052 80.6328 208.023C80.4922 207.995 80.3177 207.98 80.1094 207.98H79.4297C79.2604 207.98 79.1107 208.007 78.9805 208.059C78.8503 208.113 78.7487 208.191 78.6758 208.293C78.6055 208.395 78.5703 208.517 78.5703 208.66C78.5703 208.858 78.6576 209.01 78.832 209.117C79.0091 209.224 79.2591 209.277 79.582 209.277ZM79.7617 205.91C80.0299 205.91 80.2292 205.837 80.3594 205.691C80.4896 205.543 80.5547 205.335 80.5547 205.066C80.5547 204.775 80.487 204.556 80.3516 204.41C80.2188 204.264 80.0208 204.191 79.7578 204.191C79.5 204.191 79.3034 204.266 79.168 204.414C79.0352 204.562 78.9688 204.783 78.9688 205.074C78.9688 205.337 79.0352 205.543 79.168 205.691C79.3034 205.837 79.5013 205.91 79.7617 205.91ZM85.6562 206.766C85.6562 207.049 85.5872 207.289 85.4492 207.484C85.3112 207.68 85.1094 207.828 84.8438 207.93C84.5807 208.029 84.2578 208.078 83.875 208.078C83.5729 208.078 83.3125 208.056 83.0938 208.012C82.8776 207.97 82.6732 207.905 82.4805 207.816V207.023C82.6862 207.12 82.9167 207.203 83.1719 207.273C83.4297 207.344 83.6732 207.379 83.9023 207.379C84.2044 207.379 84.4219 207.332 84.5547 207.238C84.6875 207.142 84.7539 207.014 84.7539 206.855C84.7539 206.762 84.7266 206.678 84.6719 206.605C84.6198 206.53 84.5208 206.453 84.375 206.375C84.2318 206.294 84.0208 206.198 83.7422 206.086C83.4688 205.977 83.2383 205.867 83.0508 205.758C82.8633 205.648 82.7214 205.517 82.625 205.363C82.5286 205.207 82.4805 205.008 82.4805 204.766C82.4805 204.383 82.6315 204.092 82.9336 203.895C83.2383 203.694 83.6406 203.594 84.1406 203.594C84.4062 203.594 84.6562 203.621 84.8906 203.676C85.1276 203.728 85.3594 203.805 85.5859 203.906L85.2969 204.598C85.1016 204.512 84.9049 204.441 84.707 204.387C84.5117 204.329 84.3125 204.301 84.1094 204.301C83.8724 204.301 83.6914 204.337 83.5664 204.41C83.444 204.483 83.3828 204.587 83.3828 204.723C83.3828 204.824 83.4128 204.91 83.4727 204.98C83.5326 205.051 83.6354 205.121 83.7812 205.191C83.9297 205.262 84.1354 205.349 84.3984 205.453C84.6562 205.552 84.8789 205.656 85.0664 205.766C85.2565 205.872 85.4023 206.004 85.5039 206.16C85.6055 206.316 85.6562 206.518 85.6562 206.766Z" fill="#6F6F6F"/>
<path d="M38.7509 205.84C38.393 205.84 38.0498 205.702 37.7967 205.456C37.5437 205.21 37.4015 204.876 37.4015 204.528C37.4015 204.18 37.5437 203.846 37.7967 203.6C38.0498 203.354 38.393 203.215 38.7509 203.215C39.1087 203.215 39.4519 203.354 39.705 203.6C39.958 203.846 40.1002 204.18 40.1002 204.528C40.1002 204.876 39.958 205.21 39.705 205.456C39.4519 205.702 39.1087 205.84 38.7509 205.84ZM41.6153 204.892C41.6307 204.772 41.6423 204.652 41.6423 204.528C41.6423 204.404 41.6307 204.28 41.6153 204.153L42.4287 203.542C42.502 203.485 42.5212 203.384 42.475 203.302L41.7039 202.004C41.6577 201.922 41.5536 201.888 41.4688 201.922L40.5088 202.297C40.3084 202.15 40.1002 202.023 39.8573 201.929L39.7147 200.935C39.6992 200.845 39.6183 200.778 39.5219 200.778H37.9798C37.8834 200.778 37.8025 200.845 37.7871 200.935L37.6444 201.929C37.4015 202.023 37.1934 202.15 36.9929 202.297L36.0329 201.922C35.9481 201.888 35.844 201.922 35.7978 202.004L35.0267 203.302C34.9766 203.384 34.9997 203.485 35.073 203.542L35.8864 204.153C35.871 204.28 35.8595 204.404 35.8595 204.528C35.8595 204.652 35.871 204.772 35.8864 204.892L35.073 205.514C34.9997 205.57 34.9766 205.672 35.0267 205.754L35.7978 207.052C35.844 207.134 35.9481 207.164 36.0329 207.134L36.9929 206.755C37.1934 206.905 37.4015 207.033 37.6444 207.127L37.7871 208.12C37.8025 208.21 37.8834 208.278 37.9798 208.278H39.5219C39.6183 208.278 39.6992 208.21 39.7147 208.12L39.8573 207.127C40.1002 207.029 40.3084 206.905 40.5088 206.755L41.4688 207.134C41.5536 207.164 41.6577 207.134 41.7039 207.052L42.475 205.754C42.5212 205.672 42.502 205.57 42.4287 205.514L41.6153 204.892Z" fill="#4D4D4D"/>
<path d="M59.0469 229.445C59.0469 229.784 58.9635 230.076 58.7969 230.32C58.6328 230.565 58.3958 230.753 58.0859 230.883C57.7786 231.013 57.4115 231.078 56.9844 231.078C56.776 231.078 56.5768 231.066 56.3867 231.043C56.1966 231.02 56.0169 230.986 55.8477 230.941C55.681 230.895 55.5286 230.839 55.3906 230.773V229.891C55.6224 229.992 55.8815 230.085 56.168 230.168C56.4544 230.249 56.7461 230.289 57.043 230.289C57.2852 230.289 57.4857 230.258 57.6445 230.195C57.806 230.13 57.9258 230.039 58.0039 229.922C58.082 229.802 58.1211 229.663 58.1211 229.504C58.1211 229.335 58.0755 229.191 57.9844 229.074C57.8932 228.957 57.7552 228.85 57.5703 228.754C57.388 228.655 57.1589 228.549 56.8828 228.438C56.6953 228.362 56.5156 228.276 56.3438 228.18C56.1745 228.083 56.0234 227.97 55.8906 227.84C55.7578 227.71 55.6523 227.556 55.5742 227.379C55.4987 227.199 55.4609 226.988 55.4609 226.746C55.4609 226.423 55.5378 226.147 55.6914 225.918C55.8477 225.689 56.0664 225.513 56.3477 225.391C56.6315 225.268 56.9622 225.207 57.3398 225.207C57.6393 225.207 57.9206 225.238 58.1836 225.301C58.4492 225.363 58.7096 225.452 58.9648 225.566L58.668 226.32C58.4336 226.224 58.2057 226.147 57.9844 226.09C57.7656 226.033 57.5417 226.004 57.3125 226.004C57.1146 226.004 56.9466 226.034 56.8086 226.094C56.6706 226.154 56.5651 226.238 56.4922 226.348C56.4219 226.454 56.3867 226.582 56.3867 226.73C56.3867 226.897 56.4271 227.038 56.5078 227.152C56.5911 227.264 56.7188 227.367 56.8906 227.461C57.0651 227.555 57.2891 227.659 57.5625 227.773C57.8776 227.904 58.1445 228.04 58.3633 228.184C58.5846 228.327 58.7539 228.499 58.8711 228.699C58.9883 228.897 59.0469 229.146 59.0469 229.445ZM63.8242 226.676V231H63.1016L62.9766 230.418H62.9258C62.8346 230.566 62.7188 230.69 62.5781 230.789C62.4375 230.885 62.2812 230.957 62.1094 231.004C61.9375 231.053 61.7565 231.078 61.5664 231.078C61.2409 231.078 60.9622 231.023 60.7305 230.914C60.5013 230.802 60.3255 230.63 60.2031 230.398C60.0807 230.167 60.0195 229.867 60.0195 229.5V226.676H60.9414V229.328C60.9414 229.664 61.0091 229.915 61.1445 230.082C61.2826 230.249 61.4961 230.332 61.7852 230.332C62.0638 230.332 62.2852 230.275 62.4492 230.16C62.6133 230.046 62.7292 229.876 62.7969 229.652C62.8672 229.428 62.9023 229.154 62.9023 228.828V226.676H63.8242ZM67.3594 226.594C67.8724 226.594 68.2839 226.781 68.5938 227.156C68.9062 227.531 69.0625 228.089 69.0625 228.828C69.0625 229.318 68.9896 229.73 68.8438 230.066C68.7005 230.4 68.4987 230.652 68.2383 230.824C67.9805 230.993 67.6797 231.078 67.3359 231.078C67.1172 231.078 66.9271 231.049 66.7656 230.992C66.6042 230.935 66.4661 230.861 66.3516 230.77C66.237 230.676 66.1406 230.574 66.0625 230.465H66.0078C66.0208 230.569 66.0326 230.685 66.043 230.812C66.056 230.938 66.0625 231.052 66.0625 231.156V232.918H65.1406V226.676H65.8906L66.0195 227.273H66.0625C66.1432 227.151 66.2409 227.038 66.3555 226.934C66.4727 226.829 66.6133 226.747 66.7773 226.688C66.944 226.625 67.138 226.594 67.3594 226.594ZM67.1133 227.344C66.8607 227.344 66.6576 227.395 66.5039 227.496C66.3529 227.595 66.2422 227.745 66.1719 227.945C66.1042 228.146 66.0677 228.397 66.0625 228.699V228.828C66.0625 229.148 66.0951 229.421 66.1602 229.645C66.2279 229.866 66.3385 230.035 66.4922 230.152C66.6484 230.267 66.8594 230.324 67.125 230.324C67.349 230.324 67.5339 230.263 67.6797 230.141C67.8281 230.018 67.9388 229.844 68.0117 229.617C68.0846 229.391 68.1211 229.124 68.1211 228.816C68.1211 228.35 68.0378 227.988 67.8711 227.73C67.707 227.473 67.4544 227.344 67.1133 227.344ZM72.3438 226.594C72.8568 226.594 73.2682 226.781 73.5781 227.156C73.8906 227.531 74.0469 228.089 74.0469 228.828C74.0469 229.318 73.974 229.73 73.8281 230.066C73.6849 230.4 73.4831 230.652 73.2227 230.824C72.9648 230.993 72.6641 231.078 72.3203 231.078C72.1016 231.078 71.9115 231.049 71.75 230.992C71.5885 230.935 71.4505 230.861 71.3359 230.77C71.2214 230.676 71.125 230.574 71.0469 230.465H70.9922C71.0052 230.569 71.0169 230.685 71.0273 230.812C71.0404 230.938 71.0469 231.052 71.0469 231.156V232.918H70.125V226.676H70.875L71.0039 227.273H71.0469C71.1276 227.151 71.2253 227.038 71.3398 226.934C71.457 226.829 71.5977 226.747 71.7617 226.688C71.9284 226.625 72.1224 226.594 72.3438 226.594ZM72.0977 227.344C71.8451 227.344 71.6419 227.395 71.4883 227.496C71.3372 227.595 71.2266 227.745 71.1562 227.945C71.0885 228.146 71.0521 228.397 71.0469 228.699V228.828C71.0469 229.148 71.0794 229.421 71.1445 229.645C71.2122 229.866 71.3229 230.035 71.4766 230.152C71.6328 230.267 71.8438 230.324 72.1094 230.324C72.3333 230.324 72.5182 230.263 72.6641 230.141C72.8125 230.018 72.9232 229.844 72.9961 229.617C73.069 229.391 73.1055 229.124 73.1055 228.816C73.1055 228.35 73.0221 227.988 72.8555 227.73C72.6914 227.473 72.4388 227.344 72.0977 227.344ZM78.9375 228.828C78.9375 229.188 78.8906 229.507 78.7969 229.785C78.7031 230.064 78.5664 230.299 78.3867 230.492C78.207 230.682 77.9909 230.828 77.7383 230.93C77.4857 231.029 77.2005 231.078 76.8828 231.078C76.5859 231.078 76.3138 231.029 76.0664 230.93C75.819 230.828 75.6042 230.682 75.4219 230.492C75.2422 230.299 75.1029 230.064 75.0039 229.785C74.9049 229.507 74.8555 229.188 74.8555 228.828C74.8555 228.352 74.9375 227.948 75.1016 227.617C75.2682 227.284 75.5052 227.03 75.8125 226.855C76.1198 226.681 76.4857 226.594 76.9102 226.594C77.3086 226.594 77.6602 226.681 77.9648 226.855C78.2695 227.03 78.5078 227.284 78.6797 227.617C78.8516 227.951 78.9375 228.354 78.9375 228.828ZM75.8008 228.828C75.8008 229.143 75.8385 229.413 75.9141 229.637C75.9922 229.861 76.112 230.033 76.2734 230.152C76.4349 230.27 76.6432 230.328 76.8984 230.328C77.1536 230.328 77.362 230.27 77.5234 230.152C77.6849 230.033 77.8034 229.861 77.8789 229.637C77.9544 229.413 77.9922 229.143 77.9922 228.828C77.9922 228.513 77.9544 228.246 77.8789 228.027C77.8034 227.806 77.6849 227.638 77.5234 227.523C77.362 227.406 77.1523 227.348 76.8945 227.348C76.5143 227.348 76.237 227.475 76.0625 227.73C75.888 227.986 75.8008 228.352 75.8008 228.828ZM82.1836 226.594C82.2565 226.594 82.3359 226.598 82.4219 226.605C82.5078 226.613 82.582 226.624 82.6445 226.637L82.5586 227.496C82.5039 227.48 82.4362 227.469 82.3555 227.461C82.2773 227.453 82.207 227.449 82.1445 227.449C81.9805 227.449 81.8242 227.477 81.6758 227.531C81.5273 227.583 81.3958 227.664 81.2812 227.773C81.1667 227.88 81.0768 228.014 81.0117 228.176C80.9466 228.337 80.9141 228.525 80.9141 228.738V231H79.9922V226.676H80.7109L80.8359 227.438H80.8789C80.9648 227.284 81.0716 227.143 81.1992 227.016C81.3268 226.888 81.4727 226.786 81.6367 226.711C81.8034 226.633 81.9857 226.594 82.1836 226.594ZM85.0547 230.336C85.1745 230.336 85.293 230.326 85.4102 230.305C85.5273 230.281 85.6341 230.254 85.7305 230.223V230.918C85.6289 230.962 85.4974 231 85.3359 231.031C85.1745 231.062 85.0065 231.078 84.832 231.078C84.5872 231.078 84.3672 231.038 84.1719 230.957C83.9766 230.874 83.8216 230.732 83.707 230.531C83.5924 230.331 83.5352 230.053 83.5352 229.699V227.375H82.9453V226.965L83.5781 226.641L83.8789 225.715H84.457V226.676H85.6953V227.375H84.457V229.688C84.457 229.906 84.5117 230.069 84.6211 230.176C84.7305 230.283 84.875 230.336 85.0547 230.336Z" fill="#6F6F6F"/>
<path d="M39.125 227.403H38.375V226.653H39.125M39.125 230.403H38.375V228.153H39.125M38.75 224.778C38.2575 224.778 37.7699 224.875 37.3149 225.063C36.86 225.252 36.4466 225.528 36.0983 225.876C35.3951 226.579 35 227.533 35 228.528C35 229.522 35.3951 230.476 36.0983 231.179C36.4466 231.528 36.86 231.804 37.3149 231.992C37.7699 232.181 38.2575 232.278 38.75 232.278C39.7446 232.278 40.6984 231.883 41.4017 231.179C42.1049 230.476 42.5 229.522 42.5 228.528C42.5 228.035 42.403 227.548 42.2145 227.093C42.0261 226.638 41.7499 226.224 41.4017 225.876C41.0534 225.528 40.64 225.252 40.1851 225.063C39.7301 224.875 39.2425 224.778 38.75 224.778Z" fill="#4D4D4D"/>
<path d="M59.2539 117H58.3203V114.422H55.6875V117H54.75V111.289H55.6875V113.625H58.3203V111.289H59.2539V117ZM64.5 114.828C64.5 115.188 64.4531 115.507 64.3594 115.785C64.2656 116.064 64.1289 116.299 63.9492 116.492C63.7695 116.682 63.5534 116.828 63.3008 116.93C63.0482 117.029 62.763 117.078 62.4453 117.078C62.1484 117.078 61.8763 117.029 61.6289 116.93C61.3815 116.828 61.1667 116.682 60.9844 116.492C60.8047 116.299 60.6654 116.064 60.5664 115.785C60.4674 115.507 60.418 115.188 60.418 114.828C60.418 114.352 60.5 113.948 60.6641 113.617C60.8307 113.284 61.0677 113.03 61.375 112.855C61.6823 112.681 62.0482 112.594 62.4727 112.594C62.8711 112.594 63.2227 112.681 63.5273 112.855C63.832 113.03 64.0703 113.284 64.2422 113.617C64.4141 113.951 64.5 114.354 64.5 114.828ZM61.3633 114.828C61.3633 115.143 61.401 115.413 61.4766 115.637C61.5547 115.861 61.6745 116.033 61.8359 116.152C61.9974 116.27 62.2057 116.328 62.4609 116.328C62.7161 116.328 62.9245 116.27 63.0859 116.152C63.2474 116.033 63.3659 115.861 63.4414 115.637C63.5169 115.413 63.5547 115.143 63.5547 114.828C63.5547 114.513 63.5169 114.246 63.4414 114.027C63.3659 113.806 63.2474 113.638 63.0859 113.523C62.9245 113.406 62.7148 113.348 62.457 113.348C62.0768 113.348 61.7995 113.475 61.625 113.73C61.4505 113.986 61.3633 114.352 61.3633 114.828ZM70.4414 112.594C70.9258 112.594 71.2904 112.719 71.5352 112.969C71.7826 113.219 71.9062 113.62 71.9062 114.172V117H70.9883V114.336C70.9883 114.008 70.9245 113.76 70.7969 113.594C70.6693 113.427 70.4753 113.344 70.2148 113.344C69.8503 113.344 69.5872 113.461 69.4258 113.695C69.2669 113.927 69.1875 114.264 69.1875 114.707V117H68.2695V114.336C68.2695 114.117 68.2409 113.935 68.1836 113.789C68.1289 113.641 68.0443 113.53 67.9297 113.457C67.8151 113.382 67.6706 113.344 67.4961 113.344C67.2435 113.344 67.0417 113.401 66.8906 113.516C66.7422 113.63 66.6354 113.799 66.5703 114.023C66.5052 114.245 66.4727 114.517 66.4727 114.84V117H65.5547V112.676H66.2695L66.3984 113.258H66.4492C66.5378 113.107 66.6471 112.983 66.7773 112.887C66.9102 112.788 67.0573 112.715 67.2188 112.668C67.3802 112.618 67.5482 112.594 67.7227 112.594C68.0456 112.594 68.3177 112.651 68.5391 112.766C68.7604 112.878 68.9258 113.049 69.0352 113.281H69.1055C69.2409 113.047 69.4297 112.874 69.6719 112.762C69.9141 112.65 70.1706 112.594 70.4414 112.594ZM74.9102 112.594C75.2956 112.594 75.6263 112.673 75.9023 112.832C76.1784 112.991 76.3906 113.216 76.5391 113.508C76.6875 113.799 76.7617 114.148 76.7617 114.555V115.047H73.875C73.8854 115.466 73.9974 115.789 74.2109 116.016C74.4271 116.242 74.7292 116.355 75.1172 116.355C75.3932 116.355 75.6406 116.329 75.8594 116.277C76.0807 116.223 76.3086 116.143 76.543 116.039V116.785C76.3268 116.887 76.1068 116.961 75.8828 117.008C75.6589 117.055 75.3906 117.078 75.0781 117.078C74.6536 117.078 74.2799 116.996 73.957 116.832C73.6367 116.665 73.3854 116.418 73.2031 116.09C73.0234 115.762 72.9336 115.354 72.9336 114.867C72.9336 114.383 73.0156 113.971 73.1797 113.633C73.3438 113.294 73.5742 113.036 73.8711 112.859C74.168 112.682 74.5143 112.594 74.9102 112.594ZM74.9102 113.285C74.6211 113.285 74.3867 113.379 74.207 113.566C74.0299 113.754 73.9258 114.029 73.8945 114.391H75.8633C75.8607 114.174 75.8242 113.983 75.7539 113.816C75.6862 113.65 75.582 113.52 75.4414 113.426C75.3034 113.332 75.1263 113.285 74.9102 113.285Z" fill="#6F6F6F"/>
<path d="M37.6 117V114.529H39.4V117H41.65V113.706H43L38.5 110L34 113.706H35.35V117H37.6Z" fill="#4D4D4D"/>
<path d="M59.3867 159.09C59.3867 159.733 59.2669 160.271 59.0273 160.703C58.7878 161.133 58.4401 161.457 57.9844 161.676C57.5286 161.892 56.9792 162 56.3359 162H54.75V156.289H56.5078C57.099 156.289 57.6094 156.396 58.0391 156.609C58.4688 156.82 58.8008 157.134 59.0352 157.551C59.2695 157.965 59.3867 158.478 59.3867 159.09ZM58.4102 159.117C58.4102 158.648 58.3359 158.263 58.1875 157.961C58.0417 157.659 57.8255 157.435 57.5391 157.289C57.2552 157.141 56.9049 157.066 56.4883 157.066H55.6875V161.215H56.3516C57.0417 161.215 57.5573 161.039 57.8984 160.688C58.2396 160.336 58.4102 159.812 58.4102 159.117ZM62.2461 157.594C62.6315 157.594 62.9622 157.673 63.2383 157.832C63.5143 157.991 63.7266 158.216 63.875 158.508C64.0234 158.799 64.0977 159.148 64.0977 159.555V160.047H61.2109C61.2214 160.466 61.3333 160.789 61.5469 161.016C61.763 161.242 62.0651 161.355 62.4531 161.355C62.7292 161.355 62.9766 161.329 63.1953 161.277C63.4167 161.223 63.6445 161.143 63.8789 161.039V161.785C63.6628 161.887 63.4427 161.961 63.2188 162.008C62.9948 162.055 62.7266 162.078 62.4141 162.078C61.9896 162.078 61.6159 161.996 61.293 161.832C60.9727 161.665 60.7214 161.418 60.5391 161.09C60.3594 160.762 60.2695 160.354 60.2695 159.867C60.2695 159.383 60.3516 158.971 60.5156 158.633C60.6797 158.294 60.9102 158.036 61.207 157.859C61.5039 157.682 61.8503 157.594 62.2461 157.594ZM62.2461 158.285C61.957 158.285 61.7227 158.379 61.543 158.566C61.3659 158.754 61.2617 159.029 61.2305 159.391H63.1992C63.1966 159.174 63.1602 158.983 63.0898 158.816C63.0221 158.65 62.918 158.52 62.7773 158.426C62.6393 158.332 62.4622 158.285 62.2461 158.285ZM66.1211 162L64.4766 157.676H65.4492L66.3398 160.215C66.3971 160.376 66.4492 160.551 66.4961 160.738C66.543 160.926 66.5755 161.083 66.5938 161.211H66.625C66.6432 161.078 66.6784 160.919 66.7305 160.734C66.7826 160.547 66.8359 160.374 66.8906 160.215L67.7812 157.676H68.75L67.1055 162H66.1211ZM70.3242 157.676V162H69.4062V157.676H70.3242ZM69.8711 156.02C70.0117 156.02 70.1328 156.057 70.2344 156.133C70.3385 156.208 70.3906 156.339 70.3906 156.523C70.3906 156.706 70.3385 156.836 70.2344 156.914C70.1328 156.99 70.0117 157.027 69.8711 157.027C69.7253 157.027 69.6016 156.99 69.5 156.914C69.401 156.836 69.3516 156.706 69.3516 156.523C69.3516 156.339 69.401 156.208 69.5 156.133C69.6016 156.057 69.7253 156.02 69.8711 156.02ZM73.3828 162.078C72.974 162.078 72.6198 161.999 72.3203 161.84C72.0208 161.681 71.7904 161.438 71.6289 161.109C71.4674 160.781 71.3867 160.365 71.3867 159.859C71.3867 159.333 71.4753 158.904 71.6523 158.57C71.8294 158.237 72.0742 157.991 72.3867 157.832C72.7018 157.673 73.0625 157.594 73.4688 157.594C73.7266 157.594 73.9596 157.62 74.168 157.672C74.3789 157.721 74.5573 157.783 74.7031 157.855L74.4297 158.59C74.2708 158.525 74.1081 158.47 73.9414 158.426C73.7747 158.382 73.6146 158.359 73.4609 158.359C73.2083 158.359 72.9974 158.415 72.8281 158.527C72.6615 158.639 72.5365 158.806 72.4531 159.027C72.3724 159.249 72.332 159.523 72.332 159.852C72.332 160.169 72.3737 160.438 72.457 160.656C72.5404 160.872 72.6641 161.036 72.8281 161.148C72.9922 161.258 73.194 161.312 73.4336 161.312C73.6706 161.312 73.8828 161.284 74.0703 161.227C74.2578 161.169 74.4349 161.095 74.6016 161.004V161.801C74.4375 161.895 74.2617 161.964 74.0742 162.008C73.8867 162.055 73.6562 162.078 73.3828 162.078ZM77.3398 157.594C77.7253 157.594 78.056 157.673 78.332 157.832C78.6081 157.991 78.8203 158.216 78.9688 158.508C79.1172 158.799 79.1914 159.148 79.1914 159.555V160.047H76.3047C76.3151 160.466 76.4271 160.789 76.6406 161.016C76.8568 161.242 77.1589 161.355 77.5469 161.355C77.8229 161.355 78.0703 161.329 78.2891 161.277C78.5104 161.223 78.7383 161.143 78.9727 161.039V161.785C78.7565 161.887 78.5365 161.961 78.3125 162.008C78.0885 162.055 77.8203 162.078 77.5078 162.078C77.0833 162.078 76.7096 161.996 76.3867 161.832C76.0664 161.665 75.8151 161.418 75.6328 161.09C75.4531 160.762 75.3633 160.354 75.3633 159.867C75.3633 159.383 75.4453 158.971 75.6094 158.633C75.7734 158.294 76.0039 158.036 76.3008 157.859C76.5977 157.682 76.944 157.594 77.3398 157.594ZM77.3398 158.285C77.0508 158.285 76.8164 158.379 76.6367 158.566C76.4596 158.754 76.3555 159.029 76.3242 159.391H78.293C78.2904 159.174 78.2539 158.983 78.1836 158.816C78.1159 158.65 78.0117 158.52 77.8711 158.426C77.7331 158.332 77.556 158.285 77.3398 158.285ZM83.1328 160.766C83.1328 161.049 83.0638 161.289 82.9258 161.484C82.7878 161.68 82.5859 161.828 82.3203 161.93C82.0573 162.029 81.7344 162.078 81.3516 162.078C81.0495 162.078 80.7891 162.056 80.5703 162.012C80.3542 161.97 80.1497 161.905 79.957 161.816V161.023C80.1628 161.12 80.3932 161.203 80.6484 161.273C80.9062 161.344 81.1497 161.379 81.3789 161.379C81.681 161.379 81.8984 161.332 82.0312 161.238C82.1641 161.142 82.2305 161.014 82.2305 160.855C82.2305 160.762 82.2031 160.678 82.1484 160.605C82.0964 160.53 81.9974 160.453 81.8516 160.375C81.7083 160.294 81.4974 160.198 81.2188 160.086C80.9453 159.977 80.7148 159.867 80.5273 159.758C80.3398 159.648 80.1979 159.517 80.1016 159.363C80.0052 159.207 79.957 159.008 79.957 158.766C79.957 158.383 80.1081 158.092 80.4102 157.895C80.7148 157.694 81.1172 157.594 81.6172 157.594C81.8828 157.594 82.1328 157.621 82.3672 157.676C82.6042 157.728 82.8359 157.805 83.0625 157.906L82.7734 158.598C82.5781 158.512 82.3815 158.441 82.1836 158.387C81.9883 158.329 81.7891 158.301 81.5859 158.301C81.349 158.301 81.168 158.337 81.043 158.41C80.9206 158.483 80.8594 158.587 80.8594 158.723C80.8594 158.824 80.8893 158.91 80.9492 158.98C81.0091 159.051 81.112 159.121 81.2578 159.191C81.4062 159.262 81.612 159.349 81.875 159.453C82.1328 159.552 82.3555 159.656 82.543 159.766C82.7331 159.872 82.8789 160.004 82.9805 160.16C83.082 160.316 83.1328 160.518 83.1328 160.766Z" fill="#6F6F6F"/>
<path d="M38.1579 159.175V162.775H35V159.175H38.1579ZM37.3684 160.075H35.7895V161.875H37.3684V160.075ZM38.5526 154L40.7237 158.05H36.3816L38.5526 154ZM38.5526 155.737L37.7947 157.15H39.3105L38.5526 155.737ZM40.7237 158.95C41.7105 158.95 42.5 159.85 42.5 160.975C42.5 162.1 41.7105 163 40.7237 163C39.7368 163 38.9474 162.1 38.9474 160.975C38.9474 159.85 39.7368 158.95 40.7237 158.95ZM40.7237 159.85C40.462 159.85 40.211 159.969 40.0259 160.18C39.8408 160.39 39.7368 160.677 39.7368 160.975C39.7368 161.273 39.8408 161.56 40.0259 161.77C40.211 161.981 40.462 162.1 40.7237 162.1C40.9854 162.1 41.2364 161.981 41.4215 161.77C41.6066 161.56 41.7105 161.273 41.7105 160.975C41.7105 160.677 41.6066 160.39 41.4215 160.18C41.2364 159.969 40.9854 159.85 40.7237 159.85Z" fill="#4D4D4D"/>
<path d="M38 133C38.3978 133 38.7794 133.158 39.0607 133.439C39.342 133.721 39.5 134.102 39.5 134.5C39.5 134.898 39.342 135.279 39.0607 135.561C38.7794 135.842 38.3978 136 38 136C37.6022 136 37.2206 135.842 36.9393 135.561C36.658 135.279 36.5 134.898 36.5 134.5C36.5 134.102 36.658 133.721 36.9393 133.439C37.2206 133.158 37.6022 133 38 133ZM38 136.75C39.6575 136.75 41 137.421 41 138.25V139H35V138.25C35 137.421 36.3425 136.75 38 136.75Z" fill="#4D4D4D"/>
<path d="M58.2891 139L57.7305 137.414H55.5469L54.9883 139H54L56.125 133.266H57.1641L59.2852 139H58.2891ZM57.4883 136.609L56.9453 135.047C56.9245 134.979 56.8945 134.884 56.8555 134.762C56.8164 134.637 56.7773 134.51 56.7383 134.383C56.6992 134.253 56.6667 134.143 56.6406 134.055C56.6146 134.161 56.582 134.281 56.543 134.414C56.5065 134.544 56.4701 134.667 56.4336 134.781C56.3997 134.896 56.3737 134.984 56.3555 135.047L55.8086 136.609H57.4883ZM61.6875 139.078C61.2786 139.078 60.9245 138.999 60.625 138.84C60.3255 138.681 60.0951 138.438 59.9336 138.109C59.7721 137.781 59.6914 137.365 59.6914 136.859C59.6914 136.333 59.7799 135.904 59.957 135.57C60.1341 135.237 60.3789 134.991 60.6914 134.832C61.0065 134.673 61.3672 134.594 61.7734 134.594C62.0312 134.594 62.2643 134.62 62.4727 134.672C62.6836 134.721 62.862 134.783 63.0078 134.855L62.7344 135.59C62.5755 135.525 62.4128 135.47 62.2461 135.426C62.0794 135.382 61.9193 135.359 61.7656 135.359C61.513 135.359 61.3021 135.415 61.1328 135.527C60.9661 135.639 60.8411 135.806 60.7578 136.027C60.6771 136.249 60.6367 136.523 60.6367 136.852C60.6367 137.169 60.6784 137.438 60.7617 137.656C60.8451 137.872 60.9688 138.036 61.1328 138.148C61.2969 138.258 61.4987 138.312 61.7383 138.312C61.9753 138.312 62.1875 138.284 62.375 138.227C62.5625 138.169 62.7396 138.095 62.9062 138.004V138.801C62.7422 138.895 62.5664 138.964 62.3789 139.008C62.1914 139.055 61.9609 139.078 61.6875 139.078ZM65.6641 139.078C65.2552 139.078 64.901 138.999 64.6016 138.84C64.3021 138.681 64.0716 138.438 63.9102 138.109C63.7487 137.781 63.668 137.365 63.668 136.859C63.668 136.333 63.7565 135.904 63.9336 135.57C64.1107 135.237 64.3555 134.991 64.668 134.832C64.9831 134.673 65.3438 134.594 65.75 134.594C66.0078 134.594 66.2409 134.62 66.4492 134.672C66.6602 134.721 66.8385 134.783 66.9844 134.855L66.7109 135.59C66.5521 135.525 66.3893 135.47 66.2227 135.426C66.056 135.382 65.8958 135.359 65.7422 135.359C65.4896 135.359 65.2786 135.415 65.1094 135.527C64.9427 135.639 64.8177 135.806 64.7344 136.027C64.6536 136.249 64.6133 136.523 64.6133 136.852C64.6133 137.169 64.6549 137.438 64.7383 137.656C64.8216 137.872 64.9453 138.036 65.1094 138.148C65.2734 138.258 65.4753 138.312 65.7148 138.312C65.9518 138.312 66.1641 138.284 66.3516 138.227C66.5391 138.169 66.7161 138.095 66.8828 138.004V138.801C66.7188 138.895 66.543 138.964 66.3555 139.008C66.168 139.055 65.9375 139.078 65.6641 139.078ZM71.7266 136.828C71.7266 137.188 71.6797 137.507 71.5859 137.785C71.4922 138.064 71.3555 138.299 71.1758 138.492C70.9961 138.682 70.7799 138.828 70.5273 138.93C70.2747 139.029 69.9896 139.078 69.6719 139.078C69.375 139.078 69.1029 139.029 68.8555 138.93C68.6081 138.828 68.3932 138.682 68.2109 138.492C68.0312 138.299 67.8919 138.064 67.793 137.785C67.694 137.507 67.6445 137.188 67.6445 136.828C67.6445 136.352 67.7266 135.948 67.8906 135.617C68.0573 135.284 68.2943 135.03 68.6016 134.855C68.9089 134.681 69.2747 134.594 69.6992 134.594C70.0977 134.594 70.4492 134.681 70.7539 134.855C71.0586 135.03 71.2969 135.284 71.4688 135.617C71.6406 135.951 71.7266 136.354 71.7266 136.828ZM68.5898 136.828C68.5898 137.143 68.6276 137.413 68.7031 137.637C68.7812 137.861 68.901 138.033 69.0625 138.152C69.224 138.27 69.4323 138.328 69.6875 138.328C69.9427 138.328 70.151 138.27 70.3125 138.152C70.474 138.033 70.5924 137.861 70.668 137.637C70.7435 137.413 70.7812 137.143 70.7812 136.828C70.7812 136.513 70.7435 136.246 70.668 136.027C70.5924 135.806 70.474 135.638 70.3125 135.523C70.151 135.406 69.9414 135.348 69.6836 135.348C69.3034 135.348 69.026 135.475 68.8516 135.73C68.6771 135.986 68.5898 136.352 68.5898 136.828ZM76.5508 134.676V139H75.8281L75.7031 138.418H75.6523C75.5612 138.566 75.4453 138.69 75.3047 138.789C75.1641 138.885 75.0078 138.957 74.8359 139.004C74.6641 139.053 74.4831 139.078 74.293 139.078C73.9674 139.078 73.6888 139.023 73.457 138.914C73.2279 138.802 73.0521 138.63 72.9297 138.398C72.8073 138.167 72.7461 137.867 72.7461 137.5V134.676H73.668V137.328C73.668 137.664 73.7357 137.915 73.8711 138.082C74.0091 138.249 74.2227 138.332 74.5117 138.332C74.7904 138.332 75.0117 138.275 75.1758 138.16C75.3398 138.046 75.4557 137.876 75.5234 137.652C75.5938 137.428 75.6289 137.154 75.6289 136.828V134.676H76.5508ZM80.1211 134.594C80.6081 134.594 80.987 134.72 81.2578 134.973C81.5312 135.223 81.668 135.625 81.668 136.18V139H80.75V136.352C80.75 136.016 80.681 135.764 80.543 135.598C80.4049 135.428 80.1914 135.344 79.9023 135.344C79.4831 135.344 79.1914 135.473 79.0273 135.73C78.8659 135.988 78.7852 136.362 78.7852 136.852V139H77.8672V134.676H78.582L78.7109 135.262H78.7617C78.8555 135.111 78.9714 134.987 79.1094 134.891C79.25 134.792 79.4062 134.717 79.5781 134.668C79.7526 134.618 79.9336 134.594 80.1211 134.594ZM84.5625 138.336C84.6823 138.336 84.8008 138.326 84.918 138.305C85.0352 138.281 85.1419 138.254 85.2383 138.223V138.918C85.1367 138.962 85.0052 139 84.8438 139.031C84.6823 139.062 84.5143 139.078 84.3398 139.078C84.0951 139.078 83.875 139.038 83.6797 138.957C83.4844 138.874 83.3294 138.732 83.2148 138.531C83.1003 138.331 83.043 138.053 83.043 137.699V135.375H82.4531V134.965L83.0859 134.641L83.3867 133.715H83.9648V134.676H85.2031V135.375H83.9648V137.688C83.9648 137.906 84.0195 138.069 84.1289 138.176C84.2383 138.283 84.3828 138.336 84.5625 138.336Z" fill="#6F6F6F"/>
<defs>
<filter id="filter0_d_892_556" x="6" y="7" width="123" height="335" filterUnits="userSpaceOnUse" color-interpolation-filters="sRGB">
<feFlood flood-opacity="0" result="BackgroundImageFix"/>
<feColorMatrix in="SourceAlpha" type="matrix" values="0 0 0 0 0 0 0 0 0 0 0 0 0 0 0 0 0 0 127 0" result="hardAlpha"/>
<feOffset dx="2"/>
<feGaussianBlur stdDeviation="1"/>
<feComposite in2="hardAlpha" operator="out"/>
<feColorMatrix type="matrix" values="0 0 0 0 0.768627 0 0 0 0 0.768627 0 0 0 0 0.768627 0 0 0 0.22 0"/>
<feBlend mode="normal" in2="BackgroundImageFix" result="effect1_dropShadow_892_556"/>
<feBlend mode="normal" in="SourceGraphic" in2="effect1_dropShadow_892_556" result="shape"/>
</filter>
</defs>
</svg>
