<svg width="350" height="295" viewBox="0 0 350 295" fill="none" xmlns="http://www.w3.org/2000/svg">
<path d="M0 15C0 6.71573 6.71573 0 15 0H335C343.284 0 350 6.71573 350 15V280C350 288.284 343.284 295 335 295H15C6.71574 295 0 288.284 0 280V15Z" fill="#F8F8DD"/>
<path fill-rule="evenodd" clip-rule="evenodd" d="M114.831 104.099C113.565 104.436 112.593 105.199 111.988 106.323C111.946 106.401 111.907 106.455 111.872 106.504C111.86 106.52 111.849 106.535 111.838 106.551C111.454 107.107 111.454 107.94 111.456 138.52C111.457 140.971 111.457 143.613 111.457 146.461C111.457 179.235 111.473 185.049 111.571 185.499C111.694 186.061 111.996 186.72 112.331 187.154L112.527 187.419H97.3785L97.2314 187.587C97.0108 187.836 96.9781 188.117 97.0108 189.587L97.011 189.598C97.0353 190.888 97.0359 190.921 97.2559 191.201C97.3785 191.354 97.5828 191.53 97.7053 191.587C97.8361 191.643 97.9913 191.723 98.0567 191.763C98.122 191.803 98.4162 191.956 98.7103 192.093C99.0045 192.229 99.2986 192.39 99.3722 192.454C99.4457 192.51 99.8706 192.663 100.312 192.783L101.121 193H248.603L249.412 192.783C249.854 192.663 250.278 192.51 250.352 192.454C250.426 192.39 250.695 192.245 250.957 192.133C251.218 192.012 251.586 191.819 251.774 191.699C251.962 191.571 252.223 191.418 252.346 191.354C252.762 191.145 252.811 190.944 252.811 189.322C252.811 187.949 252.803 187.828 252.64 187.627L252.476 187.419H237.197L237.393 187.154C237.728 186.72 238.03 186.061 238.153 185.499C238.325 184.696 238.325 108.219 238.145 107.407C237.843 105.994 236.723 104.741 235.285 104.203L234.795 104.018L175.026 104.002C123.934 103.994 115.191 104.002 114.831 104.099ZM234.999 104.773C236.233 105.223 237.197 106.243 237.483 107.415C237.606 107.905 237.614 111.198 237.597 146.501L237.573 185.049L237.36 185.451C237.074 185.981 236.552 186.479 235.988 186.752L235.53 186.977L175.311 187.001C133.837 187.017 114.921 186.993 114.537 186.937C113.532 186.784 112.805 186.278 112.38 185.427L112.151 184.969L112.127 146.518C112.125 143.228 112.124 140.215 112.123 137.455C112.109 108.074 112.108 107.324 112.447 106.806C112.456 106.793 112.465 106.779 112.474 106.766C112.503 106.723 112.534 106.677 112.568 106.612C112.854 106.058 113.671 105.263 114.243 104.998C114.488 104.878 114.929 104.725 115.223 104.669C115.665 104.573 124.514 104.556 175.107 104.565L234.468 104.581L234.999 104.773ZM140.684 188.061H164.06L164.248 188.43C164.346 188.631 164.559 188.944 164.73 189.113L165.033 189.426H184.577L184.879 189.169C185.043 189.033 185.28 188.72 185.419 188.487L185.664 188.061H209.13C222.04 188.061 237.017 188.037 242.418 188.005L252.239 187.957V190.751L251.643 191.129C250.924 191.595 249.968 192.028 249.282 192.221C248.791 192.35 244.853 192.358 174.78 192.358H100.794L100.14 192.133C99.364 191.868 98.6776 191.53 98.0403 191.089L97.5664 190.767V187.957L107.437 188.005C112.862 188.037 127.823 188.061 140.684 188.061Z" fill="black" fill-opacity="0.4"/>
<rect x="141.5" y="161.5" width="10" height="11" rx="1.5" stroke="black" stroke-opacity="0.3"/>
<path d="M165.5 143C165.5 142.172 166.172 141.5 167 141.5H174C174.828 141.5 175.5 142.172 175.5 143V171C175.5 171.828 174.828 172.5 174 172.5H167C166.172 172.5 165.5 171.828 165.5 171V143Z" stroke="black" stroke-opacity="0.3"/>
<path d="M177.5 133C177.5 132.172 178.172 131.5 179 131.5H186C186.828 131.5 187.5 132.172 187.5 133V171C187.5 171.828 186.828 172.5 186 172.5H179C178.172 172.5 177.5 171.828 177.5 171V133Z" stroke="black" stroke-opacity="0.3"/>
<path d="M189.5 123C189.5 122.172 190.172 121.5 191 121.5H198C198.828 121.5 199.5 122.172 199.5 123V171C199.5 171.828 198.828 172.5 198 172.5H191C190.172 172.5 189.5 171.828 189.5 171V123Z" stroke="black" stroke-opacity="0.3"/>
<path d="M153.5 153C153.5 152.172 154.172 151.5 155 151.5H162C162.828 151.5 163.5 152.172 163.5 153V171C163.5 171.828 162.828 172.5 162 172.5H155C154.172 172.5 153.5 171.828 153.5 171V153Z" stroke="black" stroke-opacity="0.3"/>
<path opacity="0.5" fill-rule="evenodd" clip-rule="evenodd" d="M197.245 144.884C194.109 147.071 190.127 148.057 186.041 147.32C177.871 145.848 172.393 138.049 173.798 129.909C175.202 121.768 182.958 116.355 191.129 117.828C199.299 119.301 204.777 127.099 203.372 135.239C202.749 138.854 200.872 141.932 198.263 144.107C198.064 144.131 197.868 144.203 197.692 144.326C197.484 144.47 197.334 144.666 197.245 144.884ZM197.336 146.031C194.07 148.136 190.02 149.053 185.871 148.306C177.161 146.736 171.315 138.42 172.814 129.732C174.312 121.043 182.588 115.273 191.299 116.843C200.009 118.412 205.855 126.728 204.356 135.417C203.727 139.067 201.901 142.201 199.35 144.494C199.395 144.541 199.437 144.592 199.476 144.647L212.715 163.479C213.123 164.06 212.986 164.857 212.408 165.259C211.831 165.662 211.032 165.518 210.624 164.938L197.385 146.106C197.368 146.081 197.352 146.056 197.336 146.031Z" fill="black" fill-opacity="0.8"/>
</svg>
