<svg width="350" height="295" viewBox="0 0 350 295" fill="none" xmlns="http://www.w3.org/2000/svg">
<path d="M0 15C0 6.71573 6.71573 0 15 0H335C343.284 0 350 6.71573 350 15V280C350 288.284 343.284 295 335 295H15C6.71574 295 0 288.284 0 280V15Z" fill="#F8F8DD" fill-opacity="0.8"/>
<path fill-rule="evenodd" clip-rule="evenodd" d="M114.831 104.099C113.565 104.436 112.593 105.199 111.988 106.323C111.946 106.401 111.907 106.455 111.872 106.504C111.86 106.52 111.849 106.535 111.838 106.551C111.454 107.107 111.454 107.94 111.456 138.52C111.457 140.971 111.457 143.613 111.457 146.461C111.457 179.235 111.473 185.049 111.571 185.499C111.694 186.061 111.996 186.72 112.331 187.154L112.527 187.419H97.3785L97.2314 187.587C97.0108 187.836 96.9781 188.117 97.0108 189.587L97.011 189.598C97.0353 190.888 97.0359 190.921 97.2559 191.201C97.3785 191.354 97.5828 191.53 97.7053 191.587C97.8361 191.643 97.9913 191.723 98.0567 191.763C98.122 191.803 98.4162 191.956 98.7103 192.093C99.0045 192.229 99.2986 192.39 99.3722 192.454C99.4457 192.51 99.8706 192.663 100.312 192.783L101.121 193H248.603L249.412 192.783C249.854 192.663 250.278 192.51 250.352 192.454C250.426 192.39 250.695 192.245 250.957 192.133C251.218 192.012 251.586 191.819 251.774 191.699C251.962 191.571 252.223 191.418 252.346 191.354C252.762 191.145 252.811 190.944 252.811 189.322C252.811 187.949 252.803 187.828 252.64 187.627L252.476 187.419H237.197L237.393 187.154C237.728 186.72 238.03 186.061 238.153 185.499C238.325 184.696 238.325 108.219 238.145 107.407C237.843 105.994 236.723 104.741 235.285 104.203L234.795 104.018L175.026 104.002C123.934 103.994 115.191 104.002 114.831 104.099ZM234.999 104.773C236.233 105.223 237.197 106.243 237.483 107.415C237.606 107.905 237.614 111.198 237.597 146.501L237.573 185.049L237.36 185.451C237.074 185.981 236.552 186.479 235.988 186.752L235.53 186.977L175.311 187.001C133.837 187.017 114.921 186.993 114.537 186.937C113.532 186.784 112.805 186.278 112.38 185.427L112.151 184.969L112.127 146.518C112.125 143.228 112.124 140.215 112.123 137.455C112.109 108.074 112.108 107.324 112.447 106.806C112.456 106.793 112.465 106.779 112.474 106.766C112.503 106.723 112.534 106.677 112.568 106.612C112.854 106.058 113.671 105.263 114.243 104.998C114.488 104.878 114.929 104.725 115.223 104.669C115.665 104.573 124.514 104.556 175.107 104.565L234.468 104.581L234.999 104.773ZM140.684 188.061H164.06L164.248 188.43C164.346 188.631 164.559 188.944 164.73 189.113L165.033 189.426H184.577L184.879 189.169C185.043 189.033 185.28 188.72 185.419 188.487L185.664 188.061H209.13C222.04 188.061 237.017 188.037 242.418 188.005L252.239 187.957V190.751L251.643 191.129C250.924 191.595 249.968 192.028 249.282 192.221C248.791 192.35 244.853 192.358 174.78 192.358H100.794L100.14 192.133C99.364 191.868 98.6776 191.53 98.0403 191.089L97.5664 190.767V187.957L107.437 188.005C112.862 188.037 127.823 188.061 140.684 188.061Z" fill="black" fill-opacity="0.4"/>
<rect x="160.5" y="162.5" width="10" height="11" rx="1.5" stroke="black" stroke-opacity="0.3"/>
<path d="M184.5 144C184.5 143.172 185.172 142.5 186 142.5H193C193.828 142.5 194.5 143.172 194.5 144V172C194.5 172.828 193.828 173.5 193 173.5H186C185.172 173.5 184.5 172.828 184.5 172V144Z" stroke="black" stroke-opacity="0.3"/>
<path d="M196.5 134C196.5 133.172 197.172 132.5 198 132.5H205C205.828 132.5 206.5 133.172 206.5 134V172C206.5 172.828 205.828 173.5 205 173.5H198C197.172 173.5 196.5 172.828 196.5 172V134Z" stroke="black" stroke-opacity="0.3"/>
<path d="M208.5 124C208.5 123.172 209.172 122.5 210 122.5H217C217.828 122.5 218.5 123.172 218.5 124V172C218.5 172.828 217.828 173.5 217 173.5H210C209.172 173.5 208.5 172.828 208.5 172V124Z" stroke="black" stroke-opacity="0.3"/>
<path d="M172.5 154C172.5 153.172 173.172 152.5 174 152.5H181C181.828 152.5 182.5 153.172 182.5 154V172C182.5 172.828 181.828 173.5 181 173.5H174C173.172 173.5 172.5 172.828 172.5 172V154Z" stroke="black" stroke-opacity="0.3"/>
<path opacity="0.5" fill-rule="evenodd" clip-rule="evenodd" d="M216.245 145.884C213.109 148.071 209.127 149.057 205.041 148.32C196.871 146.848 191.393 139.049 192.798 130.909C194.202 122.768 201.958 117.355 210.129 118.828C218.299 120.301 223.777 128.099 222.372 136.239C221.749 139.854 219.872 142.932 217.263 145.107C217.064 145.131 216.868 145.203 216.692 145.326C216.484 145.47 216.334 145.666 216.245 145.884ZM216.336 147.031C213.07 149.136 209.02 150.053 204.871 149.306C196.161 147.736 190.315 139.42 191.814 130.732C193.312 122.043 201.588 116.273 210.299 117.843C219.009 119.412 224.855 127.728 223.356 136.417C222.727 140.067 220.901 143.201 218.35 145.494C218.395 145.541 218.437 145.592 218.476 145.647L231.715 164.479C232.123 165.06 231.986 165.857 231.408 166.259C230.831 166.662 230.032 166.518 229.624 165.938L216.385 147.106C216.368 147.081 216.352 147.056 216.336 147.031Z" fill="black"/>
<path d="M145.777 137.634C143.47 140.102 140.241 141.868 136.521 141.9V129.214H142.843H149.487C149.454 132.019 148.079 135.172 145.777 137.634Z" stroke="black" stroke-opacity="0.5" stroke-width="0.2"/>
<mask id="path-10-inside-1_659_21" fill="white">
<path fill-rule="evenodd" clip-rule="evenodd" d="M135.794 128.5L135.794 142C128.176 142 122 135.956 122 128.5C122 121.044 128.176 115 135.794 115C138.562 115 141.14 115.798 143.301 117.173L135.794 128.5Z"/>
</mask>
<path d="M135.794 142V142.2H135.994L135.994 142L135.794 142ZM135.794 128.5L135.627 128.39L135.594 128.44L135.594 128.5L135.794 128.5ZM143.301 117.173L143.467 117.283L143.58 117.113L143.408 117.004L143.301 117.173ZM135.994 142L135.994 128.5L135.594 128.5L135.594 142L135.994 142ZM121.8 128.5C121.8 136.07 128.069 142.2 135.794 142.2V141.8C128.282 141.8 122.2 135.841 122.2 128.5H121.8ZM135.794 114.8C128.069 114.8 121.8 120.93 121.8 128.5H122.2C122.2 121.159 128.282 115.2 135.794 115.2V114.8ZM143.408 117.004C141.216 115.61 138.601 114.8 135.794 114.8V115.2C138.523 115.2 141.064 115.987 143.193 117.341L143.408 117.004ZM135.96 128.61L143.467 117.283L143.134 117.062L135.627 128.39L135.96 128.61Z" fill="black" fill-opacity="0.5" mask="url(#path-10-inside-1_659_21)"/>
<path d="M149.274 128.5L136.421 128.5L143.701 117.658C146.565 119.528 149.056 124.16 149.274 128.5Z" fill="black" fill-opacity="0.5"/>
</svg>
