<svg width="350" height="295" viewBox="0 0 350 295" fill="none" xmlns="http://www.w3.org/2000/svg">
<rect width="350" height="295" rx="15" fill="#EBFAEC"/>
<path opacity="0.7" d="M148.196 91.936C148.516 92.632 148.756 93.116 148.916 93.388C149.084 93.66 149.236 93.836 149.372 93.916V93.988C149.276 94.028 149.176 94.048 149.072 94.048C148.96 94.048 148.86 94.008 148.772 93.928C148.684 93.848 148.564 93.676 148.412 93.412C148.268 93.14 148.068 92.72 147.812 92.152C147.516 91.488 147.26 91.004 147.044 90.7C146.828 90.388 146.572 90.156 146.276 90.004C146.084 90.02 145.94 90.028 145.844 90.028H144.512V93.628C144.512 93.908 144.412 94.048 144.212 94.048C144.164 94.048 144.112 94.032 144.056 94V87.832C144.056 87.296 144.032 86.868 143.984 86.548C143.944 86.228 143.864 85.948 143.744 85.708L143.816 85.552C144.136 85.552 144.464 85.54 144.8 85.516C144.904 85.508 145.06 85.5 145.268 85.492C145.484 85.484 145.676 85.48 145.844 85.48C146.74 85.48 147.452 85.684 147.98 86.092C148.516 86.492 148.784 87.036 148.784 87.724C148.784 88.284 148.612 88.756 148.268 89.14C147.924 89.524 147.448 89.784 146.84 89.92C147.072 90.056 147.284 90.272 147.476 90.568C147.676 90.864 147.916 91.32 148.196 91.936ZM144.284 85.936C144.436 86.336 144.512 86.968 144.512 87.832V89.656H146.036C146.732 89.656 147.284 89.484 147.692 89.14C148.108 88.788 148.316 88.316 148.316 87.724C148.316 87.156 148.108 86.704 147.692 86.368C147.284 86.032 146.732 85.864 146.036 85.864C145.828 85.864 145.632 85.868 145.448 85.876C145.264 85.884 145.104 85.892 144.968 85.9C144.712 85.924 144.484 85.936 144.284 85.936ZM156.436 93.616C156.46 93.664 156.472 93.712 156.472 93.76C156.472 93.84 156.44 93.9 156.376 93.94C156.32 93.98 156.236 94 156.124 94H151.72L151.648 93.844C151.768 93.604 151.848 93.328 151.888 93.016C151.936 92.704 151.96 92.28 151.96 91.744V87.832C151.96 87.296 151.936 86.876 151.888 86.572C151.848 86.268 151.768 85.996 151.648 85.756L151.72 85.6H156.244C156.268 85.648 156.28 85.696 156.28 85.744C156.28 85.824 156.248 85.884 156.184 85.924C156.128 85.964 156.044 85.984 155.932 85.984H152.2C152.344 86.36 152.416 86.976 152.416 87.832V89.368H155.86C155.884 89.416 155.896 89.464 155.896 89.512C155.896 89.664 155.78 89.74 155.548 89.74H152.416V91.744C152.416 92.616 152.344 93.24 152.2 93.616H156.436ZM161.344 94.12C160.816 94.12 160.344 94.052 159.928 93.916C159.512 93.772 159.184 93.612 158.944 93.436C158.704 93.252 158.584 93.112 158.584 93.016C158.584 92.872 158.664 92.8 158.824 92.8C159.416 93.432 160.228 93.748 161.26 93.748C162.004 93.748 162.568 93.588 162.952 93.268C163.336 92.948 163.528 92.492 163.528 91.9C163.528 91.548 163.452 91.244 163.3 90.988C163.148 90.732 162.9 90.5 162.556 90.292C162.212 90.076 161.744 89.868 161.152 89.668C160.32 89.38 159.732 89.064 159.388 88.72C159.044 88.376 158.872 87.94 158.872 87.412C158.872 86.788 159.072 86.312 159.472 85.984C159.872 85.648 160.44 85.48 161.176 85.48C161.656 85.48 162.096 85.552 162.496 85.696C162.896 85.832 163.212 85.992 163.444 86.176C163.676 86.352 163.792 86.488 163.792 86.584C163.792 86.728 163.712 86.8 163.552 86.8C163.264 86.496 162.924 86.264 162.532 86.104C162.14 85.936 161.708 85.852 161.236 85.852C160.628 85.852 160.156 85.988 159.82 86.26C159.492 86.532 159.328 86.908 159.328 87.388C159.328 87.812 159.488 88.168 159.808 88.456C160.128 88.736 160.68 89.016 161.464 89.296C162.088 89.52 162.58 89.752 162.94 89.992C163.308 90.232 163.572 90.5 163.732 90.796C163.9 91.084 163.984 91.432 163.984 91.84C163.984 92.568 163.756 93.132 163.3 93.532C162.844 93.924 162.192 94.12 161.344 94.12ZM171.269 93.616C171.293 93.664 171.305 93.712 171.305 93.76C171.305 93.84 171.273 93.9 171.209 93.94C171.153 93.98 171.069 94 170.957 94H166.553L166.481 93.844C166.601 93.604 166.681 93.328 166.721 93.016C166.769 92.704 166.793 92.28 166.793 91.744V87.832C166.793 87.296 166.769 86.876 166.721 86.572C166.681 86.268 166.601 85.996 166.481 85.756L166.553 85.6H171.077C171.101 85.648 171.113 85.696 171.113 85.744C171.113 85.824 171.081 85.884 171.017 85.924C170.961 85.964 170.877 85.984 170.765 85.984H167.033C167.177 86.36 167.249 86.976 167.249 87.832V89.368H170.693C170.717 89.416 170.729 89.464 170.729 89.512C170.729 89.664 170.613 89.74 170.381 89.74H167.249V91.744C167.249 92.616 167.177 93.24 167.033 93.616H171.269ZM173.489 94.072C173.417 94.072 173.345 94.048 173.273 94L176.093 85.948C176.149 85.796 176.209 85.688 176.273 85.624C176.337 85.56 176.417 85.528 176.513 85.528C176.577 85.528 176.637 85.54 176.693 85.564L179.513 93.628C179.537 93.7 179.549 93.764 179.549 93.82C179.549 93.988 179.437 94.072 179.213 94.072L178.229 91.276H174.689L173.825 93.724C173.745 93.956 173.633 94.072 173.489 94.072ZM178.097 90.892L176.453 86.212L174.821 90.892H178.097ZM186.305 91.936C186.625 92.632 186.865 93.116 187.025 93.388C187.193 93.66 187.345 93.836 187.481 93.916V93.988C187.385 94.028 187.285 94.048 187.181 94.048C187.069 94.048 186.969 94.008 186.881 93.928C186.793 93.848 186.673 93.676 186.521 93.412C186.377 93.14 186.177 92.72 185.921 92.152C185.625 91.488 185.369 91.004 185.153 90.7C184.937 90.388 184.681 90.156 184.385 90.004C184.193 90.02 184.049 90.028 183.953 90.028H182.621V93.628C182.621 93.908 182.521 94.048 182.321 94.048C182.273 94.048 182.221 94.032 182.165 94V87.832C182.165 87.296 182.141 86.868 182.093 86.548C182.053 86.228 181.973 85.948 181.853 85.708L181.925 85.552C182.245 85.552 182.573 85.54 182.909 85.516C183.013 85.508 183.169 85.5 183.377 85.492C183.593 85.484 183.785 85.48 183.953 85.48C184.849 85.48 185.561 85.684 186.089 86.092C186.625 86.492 186.893 87.036 186.893 87.724C186.893 88.284 186.721 88.756 186.377 89.14C186.033 89.524 185.557 89.784 184.949 89.92C185.181 90.056 185.393 90.272 185.585 90.568C185.785 90.864 186.025 91.32 186.305 91.936ZM182.393 85.936C182.545 86.336 182.621 86.968 182.621 87.832V89.656H184.145C184.841 89.656 185.393 89.484 185.801 89.14C186.217 88.788 186.425 88.316 186.425 87.724C186.425 87.156 186.217 86.704 185.801 86.368C185.393 86.032 184.841 85.864 184.145 85.864C183.937 85.864 183.741 85.868 183.557 85.876C183.373 85.884 183.213 85.892 183.077 85.9C182.821 85.924 182.593 85.936 182.393 85.936ZM193.405 94.12C192.637 94.12 191.965 93.944 191.389 93.592C190.813 93.24 190.369 92.74 190.057 92.092C189.745 91.436 189.589 90.672 189.589 89.8C189.589 88.928 189.745 88.168 190.057 87.52C190.369 86.864 190.813 86.36 191.389 86.008C191.965 85.656 192.637 85.48 193.405 85.48C193.845 85.48 194.253 85.552 194.629 85.696C195.013 85.832 195.317 85.992 195.541 86.176C195.773 86.352 195.889 86.488 195.889 86.584C195.889 86.728 195.809 86.8 195.649 86.8C195.361 86.496 195.017 86.264 194.617 86.104C194.225 85.936 193.789 85.852 193.309 85.852C192.653 85.852 192.077 86.016 191.581 86.344C191.093 86.664 190.717 87.12 190.453 87.712C190.189 88.304 190.057 89 190.057 89.8C190.057 90.6 190.189 91.296 190.453 91.888C190.717 92.48 191.093 92.94 191.581 93.268C192.077 93.588 192.653 93.748 193.309 93.748C193.789 93.748 194.225 93.668 194.617 93.508C195.017 93.34 195.361 93.104 195.649 92.8C195.809 92.8 195.889 92.872 195.889 93.016C195.889 93.112 195.773 93.252 195.541 93.436C195.317 93.612 195.013 93.772 194.629 93.916C194.253 94.052 193.845 94.12 193.405 94.12ZM204.301 85.552C204.349 85.552 204.401 85.568 204.457 85.6V93.628C204.457 93.908 204.357 94.048 204.157 94.048C204.109 94.048 204.057 94.032 204.001 94V89.92H199.153V93.628C199.153 93.908 199.053 94.048 198.853 94.048C198.805 94.048 198.753 94.032 198.697 94V85.972C198.697 85.692 198.797 85.552 198.997 85.552C199.045 85.552 199.097 85.568 199.153 85.6V89.536H204.001V85.972C204.001 85.692 204.101 85.552 204.301 85.552Z" fill="black"/>
<rect opacity="0.4" x="185" y="99" width="32" height="31" rx="3" fill="#4D4D4D"/>
<g opacity="0.4">
<rect opacity="0.7" x="184.743" y="133.518" width="32.5744" height="2.14815" rx="1.07407" fill="#4D4D4D"/>
<rect opacity="0.7" x="184.743" y="137.815" width="32.5744" height="3.22222" rx="1.61111" fill="#4D4D4D"/>
<rect opacity="0.7" x="184.743" y="143.185" width="32.5744" height="2.14815" rx="1.07407" fill="#4D4D4D"/>
<rect opacity="0.7" x="184.743" y="191.518" width="32.5744" height="2.14815" rx="1.07407" fill="#4D4D4D"/>
<rect opacity="0.7" x="184.743" y="195.815" width="32.5744" height="3.22222" rx="1.61111" fill="#4D4D4D"/>
<rect opacity="0.7" x="184.743" y="201.185" width="32.5744" height="2.14815" rx="1.07407" fill="#4D4D4D"/>
<rect opacity="0.7" x="184.743" y="147.481" width="32.5744" height="3.22222" rx="1.61111" fill="#4D4D4D"/>
<rect opacity="0.7" x="184.743" y="157.148" width="32.5744" height="3.22222" rx="1.61111" fill="#4D4D4D"/>
<rect opacity="0.7" x="184.743" y="152.852" width="32.5744" height="2.14815" rx="1.07407" fill="#4D4D4D"/>
<rect opacity="0.7" x="184.743" y="162.518" width="32.5744" height="2.14815" rx="1.07407" fill="#4D4D4D"/>
<rect opacity="0.7" x="184.743" y="166.815" width="32.5744" height="3.22222" rx="1.61111" fill="#4D4D4D"/>
<rect opacity="0.7" x="184.743" y="172.185" width="32.5744" height="2.14815" rx="1.07407" fill="#4D4D4D"/>
<rect opacity="0.7" x="184.743" y="176.481" width="32.5744" height="3.22222" rx="1.61111" fill="#4D4D4D"/>
<rect opacity="0.7" x="184.743" y="186.148" width="32.5744" height="3.22222" rx="1.61111" fill="#4D4D4D"/>
<rect opacity="0.7" x="184.743" y="181.852" width="32.5744" height="2.14815" rx="1.07407" fill="#4D4D4D"/>
</g>
<g opacity="0.4">
<rect opacity="0.7" x="142.711" y="101.296" width="32.5744" height="2.14815" rx="1.07407" fill="#4D4D4D"/>
<rect opacity="0.7" x="142.711" y="105.593" width="32.5744" height="3.22222" rx="1.61111" fill="#4D4D4D"/>
<rect opacity="0.7" x="142.711" y="110.963" width="32.5744" height="2.14815" rx="1.07407" fill="#4D4D4D"/>
<rect opacity="0.7" x="142.711" y="159.296" width="32.5744" height="2.14815" rx="1.07407" fill="#4D4D4D"/>
<rect opacity="0.7" x="142.711" y="163.593" width="32.5744" height="3.22222" rx="1.61111" fill="#4D4D4D"/>
<rect opacity="0.7" x="142.711" y="168.963" width="32.5744" height="2.14815" rx="1.07407" fill="#4D4D4D"/>
<rect opacity="0.7" x="142.711" y="115.259" width="32.5744" height="3.22222" rx="1.61111" fill="#4D4D4D"/>
<rect opacity="0.7" x="142.711" y="124.926" width="32.5744" height="3.22222" rx="1.61111" fill="#4D4D4D"/>
<rect opacity="0.7" x="142.711" y="120.63" width="32.5744" height="2.14815" rx="1.07407" fill="#4D4D4D"/>
<rect opacity="0.7" x="142.711" y="130.296" width="32.5744" height="2.14815" rx="1.07407" fill="#4D4D4D"/>
<rect opacity="0.7" x="142.711" y="134.593" width="32.5744" height="3.22222" rx="1.61111" fill="#4D4D4D"/>
<rect opacity="0.7" x="142.711" y="139.963" width="32.5744" height="2.14815" rx="1.07407" fill="#4D4D4D"/>
<rect opacity="0.7" x="142.711" y="144.259" width="32.5744" height="3.22222" rx="1.61111" fill="#4D4D4D"/>
<rect opacity="0.7" x="142.711" y="153.926" width="32.5744" height="3.22222" rx="1.61111" fill="#4D4D4D"/>
<rect opacity="0.7" x="142.711" y="149.63" width="32.5744" height="2.14815" rx="1.07407" fill="#4D4D4D"/>
<rect opacity="0.7" x="142.711" y="202.259" width="32.5744" height="2.14815" rx="1.07407" fill="#4D4D4D"/>
<rect opacity="0.7" x="142.711" y="173.259" width="32.5744" height="2.14815" rx="1.07407" fill="#4D4D4D"/>
<rect opacity="0.7" x="142.711" y="177.556" width="32.5744" height="3.22222" rx="1.61111" fill="#4D4D4D"/>
<rect opacity="0.7" x="142.711" y="182.926" width="32.5744" height="2.14815" rx="1.07407" fill="#4D4D4D"/>
<rect opacity="0.7" x="142.711" y="187.222" width="32.5744" height="3.22222" rx="1.61111" fill="#4D4D4D"/>
<rect opacity="0.7" x="142.711" y="196.889" width="32.5744" height="3.22222" rx="1.61111" fill="#4D4D4D"/>
<rect opacity="0.7" x="142.711" y="192.593" width="32.5744" height="2.14815" rx="1.07407" fill="#4D4D4D"/>
</g>
<path opacity="0.5" fill-rule="evenodd" clip-rule="evenodd" d="M235.003 98.8842C231.867 101.071 227.885 102.057 223.8 101.32C215.629 99.8476 210.152 92.0494 211.556 83.9089C212.96 75.7685 220.717 70.3554 228.887 71.828C237.057 73.3006 242.535 81.0988 241.131 89.2393C240.507 92.8545 238.631 95.9317 236.021 98.1069C235.822 98.1313 235.626 98.2032 235.45 98.3257C235.243 98.4704 235.092 98.666 235.003 98.8842ZM235.095 100.031C231.828 102.136 227.778 103.053 223.63 102.306C214.919 100.736 209.073 92.4199 210.572 83.7316C212.071 75.0433 220.347 69.2727 229.057 70.8426C237.767 72.4125 243.614 80.7284 242.115 89.4167C241.485 93.0665 239.66 96.2015 237.108 98.4936C237.154 98.5408 237.196 98.5921 237.235 98.6473L250.474 117.479C250.882 118.06 250.744 118.857 250.167 119.259C249.589 119.662 248.79 119.518 248.382 118.938L235.143 100.106C235.126 100.081 235.11 100.056 235.095 100.031Z" fill="#4D4D4D"/>
<path opacity="0.5" fill-rule="evenodd" clip-rule="evenodd" d="M213.276 78.1667C213.276 77.8905 213.053 77.6667 212.776 77.6667H129V77.6667C128.448 77.6667 128 78.1144 128 78.6667V78.6667V212V212C128 212.552 128.448 213 129 213V213H227.876V213C228.428 213 228.876 212.552 228.876 212V212V102.177C228.876 101.901 228.652 101.677 228.376 101.677V101.677C228.1 101.677 227.876 101.901 227.876 102.177V210C227.876 211.105 226.98 212 225.876 212H131C129.895 212 129 211.105 129 210V80.6667C129 79.5621 129.895 78.6667 131 78.6667H212.776C213.053 78.6667 213.276 78.4428 213.276 78.1667V78.1667Z" fill="#4D4D4D"/>
</svg>
