<svg width="350" height="295" viewBox="0 0 350 295" fill="none" xmlns="http://www.w3.org/2000/svg">
<rect width="350" height="295" rx="15" fill="#EAF5FA"/>
<path d="M136.718 214.645C136.727 216.297 137.084 217.931 137.79 219.43C138.548 221.039 139.69 222.462 141.101 223.562C142.486 224.64 144.125 225.397 145.851 225.755C146.772 225.947 147.7 226 148.637 226C149.652 226 150.667 226 151.682 226C153.49 226 155.299 226 157.108 226C159.471 226 161.833 226 164.195 226C166.883 226 169.571 226 172.259 226C175.049 226 177.838 226 180.628 226C183.278 226 185.929 226 188.579 226C190.846 226 193.112 226 195.379 226C197.054 226 198.729 226 200.404 226C201.24 226 202.077 226 202.913 226C204.102 226 205.278 225.851 206.418 225.509C208.119 224.998 209.694 224.096 210.984 222.89C212.28 221.678 213.281 220.172 213.89 218.516C214.349 217.267 214.577 215.948 214.579 214.62C214.58 214.316 214.579 214.011 214.579 213.706C214.579 212.99 214.579 212.274 214.579 211.559C214.579 210.466 214.579 209.374 214.579 208.281C214.579 206.851 214.579 205.422 214.579 203.992C214.579 202.273 214.579 200.554 214.579 198.835C214.579 196.846 214.579 194.857 214.579 192.868C214.579 190.656 214.579 188.443 214.579 186.231C214.579 183.833 214.579 181.435 214.579 179.037C214.579 176.506 214.579 173.975 214.579 171.444C214.579 168.79 214.579 166.135 214.579 163.481C214.579 160.756 214.579 158.03 214.579 155.304C214.579 152.552 214.579 149.801 214.579 147.049C214.579 144.301 214.579 141.554 214.579 138.806C214.579 136.094 214.579 133.381 214.579 130.668C214.579 128.036 214.579 125.404 214.579 122.771C214.579 120.27 214.579 117.77 214.579 115.269C214.579 112.91 214.579 110.552 214.579 108.193C214.579 106.028 214.579 103.864 214.579 101.699C214.579 99.7671 214.579 97.8346 214.579 95.9023C214.579 94.2485 214.579 92.5946 214.579 90.9405C214.579 89.5848 214.579 88.2291 214.579 86.8732C214.579 85.8634 214.579 84.8537 214.579 83.8439C214.579 83.2193 214.579 82.5949 214.579 81.9703C214.579 81.7084 214.582 81.4463 214.578 81.1844C214.553 79.5294 214.157 77.8848 213.424 76.3957C212.634 74.7905 211.458 73.3768 210.015 72.3004C208.627 71.2653 207.005 70.5471 205.298 70.2148C204.404 70.0406 203.504 70 202.596 70C201.547 70 200.497 70 199.448 70C197.613 70 195.778 70 193.944 70C191.572 70 189.199 70 186.827 70C184.125 70 181.422 70 178.719 70C175.93 70 173.142 70 170.353 70C167.713 70 165.072 70 162.432 70C160.184 70 157.936 70 155.689 70C154.041 70 152.394 70 150.747 70C149.947 70 149.148 70 148.348 70C147.105 70 145.873 70.172 144.689 70.5501C143.002 71.0884 141.452 72.0118 140.184 73.2329C138.898 74.4713 137.915 76.0092 137.335 77.6873C136.923 78.8801 136.72 80.1309 136.718 81.3903C136.717 81.7102 136.718 82.0299 136.718 82.3498C136.718 83.082 136.718 83.8142 136.718 84.5464C136.718 85.6525 136.718 86.7588 136.718 87.8648C136.718 89.3068 136.718 90.7486 136.718 92.1907C136.718 93.9202 136.718 95.6497 136.718 97.3792C136.718 99.3775 136.718 101.376 136.718 103.374C136.718 105.594 136.718 107.815 136.718 110.035C136.718 112.432 136.718 114.83 136.718 117.227C136.718 119.77 136.718 122.313 136.718 124.855C136.718 127.513 136.718 130.17 136.718 132.828C136.718 135.556 136.718 138.284 136.718 141.011C136.718 143.756 136.718 146.501 136.718 149.245C136.718 151.999 136.718 154.754 136.718 157.508C136.718 160.218 136.718 162.928 136.718 165.639C136.718 168.267 136.718 170.896 136.718 173.525C136.718 176.02 136.718 178.516 136.718 181.011C136.718 183.363 136.718 185.715 136.718 188.067C136.718 190.223 136.718 192.38 136.718 194.536C136.718 196.454 136.718 198.372 136.718 200.29C136.718 201.937 136.718 203.585 136.718 205.233C136.718 206.576 136.718 207.92 136.718 209.263C136.718 210.258 136.718 211.254 136.718 212.25C136.718 212.858 136.718 213.466 136.718 214.074C136.718 214.264 136.718 214.455 136.718 214.645Z" stroke="black" stroke-opacity="0.4" stroke-width="0.5" stroke-miterlimit="10" stroke-linecap="round" stroke-linejoin="round"/>
<path d="M182.699 75.2377C182.698 74.7199 182.36 74.2457 181.865 74.071C181.371 73.8965 180.803 74.0512 180.47 74.4513C180.137 74.8513 180.093 75.4303 180.363 75.8742C180.633 76.3183 181.171 76.5537 181.686 76.4532C182.199 76.3529 182.605 75.9354 182.684 75.4256C182.694 75.3635 182.699 75.3006 182.699 75.2377Z" stroke="black" stroke-opacity="0.7" stroke-width="0.5" stroke-miterlimit="10" stroke-linecap="round" stroke-linejoin="round"/>
<path d="M177.894 75.233C177.894 74.8395 177.653 74.4851 177.317 74.3845C177.181 74.344 177.039 74.3552 176.9 74.3552C176.529 74.3552 176.159 74.3552 175.788 74.3552C174.676 74.3552 173.564 74.3552 172.452 74.3552C171.872 74.3552 171.217 74.3552 170.683 74.3599C169.911 74.4532 169.738 75.6823 170.451 76.0366C170.579 76.1001 170.709 76.1103 170.846 76.1109C171.147 76.1122 171.447 76.1109 171.747 76.1109C172.84 76.1109 173.933 76.1109 175.026 76.1109C175.72 76.1109 176.418 76.137 177.112 76.1109C177.445 76.0983 177.743 75.8804 177.852 75.5158C177.88 75.4249 177.894 75.3289 177.894 75.233Z" stroke="black" stroke-opacity="0.7" stroke-width="0.5" stroke-miterlimit="10" stroke-linecap="round" stroke-linejoin="round"/>
<path d="M156.996 74.2489C154.99 74.2489 152.983 74.2489 150.976 74.2489C150.084 74.2489 149.191 74.2485 148.299 74.2489C147.679 74.2491 147.065 74.3098 146.462 74.4568C145.022 74.8078 143.709 75.6061 142.744 76.7145C141.78 77.8232 141.181 79.2224 141.052 80.6759C141.019 81.0405 141.024 81.4053 141.024 81.7708C141.024 82.3321 141.024 82.8932 141.024 83.4545C141.024 84.3874 141.024 85.3206 141.024 86.2535C141.024 87.5268 141.024 88.8001 141.024 90.0731C141.024 91.6485 141.024 93.2242 141.024 94.7996C141.024 96.6363 141.024 98.4727 141.024 100.309C141.024 102.375 141.024 104.442 141.024 106.507C141.024 108.774 141.024 111.041 141.024 113.307C141.024 115.733 141.024 118.159 141.024 120.585C141.024 123.127 141.024 125.668 141.024 128.21C141.024 130.84 141.024 133.469 141.024 136.098C141.024 138.794 141.024 141.49 141.024 144.186C141.024 146.883 141.024 149.58 141.024 152.277C141.024 154.954 141.024 157.632 141.024 160.309C141.024 162.932 141.024 165.554 141.024 168.177C141.024 170.722 141.024 173.268 141.024 175.814C141.024 178.219 141.024 180.623 141.024 183.028C141.024 185.271 141.024 187.514 141.024 189.758C141.024 191.803 141.024 193.849 141.024 195.895C141.024 197.717 141.024 199.54 141.024 201.362C141.024 202.905 141.024 204.448 141.024 205.991C141.024 207.23 141.024 208.469 141.024 209.707C141.024 210.608 141.024 211.51 141.024 212.411C141.024 212.935 141.024 213.459 141.024 213.983C141.024 214.458 141.032 214.93 141.104 215.402C141.323 216.838 142 218.19 143.023 219.237C144.051 220.289 145.407 221.011 146.865 221.28C147.563 221.408 148.26 221.401 148.966 221.401C150.117 221.401 151.269 221.401 152.421 221.401C154.295 221.401 156.17 221.401 158.044 221.401C160.43 221.401 162.815 221.401 165.201 221.401C167.872 221.401 170.544 221.401 173.215 221.401C175.944 221.401 178.674 221.401 181.403 221.401C183.978 221.401 186.553 221.401 189.128 221.401C191.341 221.401 193.554 221.401 195.767 221.401C197.373 221.401 198.979 221.401 200.585 221.401C201.379 221.401 202.173 221.401 202.967 221.401C204.058 221.401 205.124 221.201 206.117 220.75C207.469 220.136 208.606 219.104 209.341 217.832C209.956 216.767 210.27 215.559 210.274 214.336C210.275 214.053 210.274 213.77 210.274 213.487C210.274 212.808 210.274 212.128 210.274 211.449C210.274 210.402 210.274 209.356 210.274 208.309C210.274 206.941 210.274 205.574 210.274 204.207C210.274 202.55 210.274 200.894 210.274 199.237C210.274 197.32 210.274 195.404 210.274 193.487C210.274 191.351 210.274 189.215 210.274 187.079C210.274 184.765 210.274 182.452 210.274 180.139C210.274 177.678 210.274 175.217 210.274 172.757C210.274 170.177 210.274 167.597 210.274 165.017C210.274 162.36 210.274 159.704 210.274 157.047C210.274 154.358 210.274 151.668 210.274 148.978C210.274 146.284 210.274 143.589 210.274 140.894C210.274 138.215 210.274 135.536 210.274 132.857C210.274 130.259 210.274 127.661 210.274 125.063C210.274 122.567 210.274 120.071 210.274 117.574C210.274 115.215 210.274 112.856 210.274 110.497C210.274 108.3 210.274 106.102 210.274 103.904C210.274 101.927 210.274 99.9502 210.274 97.9736C210.274 96.2407 210.274 94.5081 210.274 92.7753C210.274 91.322 210.274 89.8687 210.274 88.4154C210.274 87.2717 210.274 86.128 210.274 84.9843C210.274 84.1986 210.274 83.4129 210.274 82.6272C210.274 82.2278 210.274 81.8284 210.274 81.4288C210.274 80.5834 210.152 79.7509 209.866 78.9515C209.37 77.5708 208.435 76.3599 207.215 75.5208C206.013 74.6945 204.572 74.255 203.107 74.2487C201.087 74.2401 199.066 74.2487 197.045 74.2487C196.16 74.2487 195.275 74.2478 194.39 74.2487C194.057 74.2491 193.743 74.3165 193.528 74.5882C193.177 75.0314 193.219 75.7074 193.095 76.2285C192.926 76.938 192.643 77.6415 192.154 78.1993C191.346 79.1222 190.154 79.1973 188.978 79.1973C186.832 79.1973 184.687 79.1973 182.541 79.1973C180.363 79.1973 178.185 79.1973 176.008 79.1973C174.902 79.1973 173.796 79.1973 172.691 79.1973C170.095 79.1973 167.499 79.1973 164.903 79.1973C164.023 79.1973 163.144 79.1973 162.264 79.1973C161.777 79.1973 161.346 79.3142 160.868 79.2057C159.4 78.8725 158.564 77.6764 158.22 76.3002C158.03 75.5364 158.113 74.2476 156.996 74.2489Z" stroke="black" stroke-opacity="0.4" stroke-width="0.5" stroke-miterlimit="10" stroke-linecap="round" stroke-linejoin="round"/>
<path d="M158.85 153.8C158.862 153.824 158.868 153.848 158.868 153.872C158.868 153.912 158.852 153.942 158.82 153.962C158.792 153.982 158.75 153.992 158.694 153.992H157.626V157.814C157.626 157.954 157.576 158.024 157.476 158.024C157.452 158.024 157.426 158.016 157.398 158V153.992H156.174C156.162 153.968 156.156 153.944 156.156 153.92C156.156 153.88 156.17 153.85 156.198 153.83C156.23 153.81 156.274 153.8 156.33 153.8H158.85ZM162.221 156.968C162.381 157.316 162.501 157.558 162.581 157.694C162.665 157.83 162.741 157.918 162.809 157.958V157.994C162.761 158.014 162.711 158.024 162.659 158.024C162.603 158.024 162.553 158.004 162.509 157.964C162.465 157.924 162.405 157.838 162.329 157.706C162.257 157.57 162.157 157.36 162.029 157.076C161.881 156.744 161.753 156.502 161.645 156.35C161.537 156.194 161.409 156.078 161.261 156.002C161.165 156.01 161.093 156.014 161.045 156.014H160.379V157.814C160.379 157.954 160.329 158.024 160.229 158.024C160.205 158.024 160.179 158.016 160.151 158V154.916C160.151 154.648 160.139 154.434 160.115 154.274C160.095 154.114 160.055 153.974 159.995 153.854L160.031 153.776C160.191 153.776 160.355 153.77 160.523 153.758C160.575 153.754 160.653 153.75 160.757 153.746C160.865 153.742 160.961 153.74 161.045 153.74C161.493 153.74 161.849 153.842 162.113 154.046C162.381 154.246 162.515 154.518 162.515 154.862C162.515 155.142 162.429 155.378 162.257 155.57C162.085 155.762 161.847 155.892 161.543 155.96C161.659 156.028 161.765 156.136 161.861 156.284C161.961 156.432 162.081 156.66 162.221 156.968ZM160.265 153.968C160.341 154.168 160.379 154.484 160.379 154.916V155.828H161.141C161.489 155.828 161.765 155.742 161.969 155.57C162.177 155.394 162.281 155.158 162.281 154.862C162.281 154.578 162.177 154.352 161.969 154.184C161.765 154.016 161.489 153.932 161.141 153.932C161.037 153.932 160.939 153.934 160.847 153.938C160.755 153.942 160.675 153.946 160.607 153.95C160.479 153.962 160.365 153.968 160.265 153.968ZM163.851 158.036C163.815 158.036 163.779 158.024 163.743 158L165.153 153.974C165.181 153.898 165.211 153.844 165.243 153.812C165.275 153.78 165.315 153.764 165.363 153.764C165.395 153.764 165.425 153.77 165.453 153.782L166.863 157.814C166.875 157.85 166.881 157.882 166.881 157.91C166.881 157.994 166.825 158.036 166.713 158.036L166.221 156.638H164.451L164.019 157.862C163.979 157.978 163.923 158.036 163.851 158.036ZM166.155 156.446L165.333 154.106L164.517 156.446H166.155ZM168.435 158.024C168.411 158.024 168.385 158.016 168.357 158V156.272L167.091 153.992C167.063 153.936 167.049 153.896 167.049 153.872C167.049 153.808 167.099 153.776 167.199 153.776L168.471 156.074L169.665 153.92C169.697 153.864 169.725 153.826 169.749 153.806C169.773 153.786 169.805 153.776 169.845 153.776C169.889 153.776 169.927 153.784 169.959 153.8L168.585 156.272V157.814C168.585 157.954 168.535 158.024 168.435 158.024ZM174.954 153.878C174.902 153.958 174.866 154.042 174.846 154.13C174.83 154.218 174.822 154.346 174.822 154.514V157.814C174.822 157.954 174.772 158.024 174.672 158.024C174.648 158.024 174.622 158.016 174.594 158V154.514C174.594 154.326 174.6 154.192 174.612 154.112C174.588 154.16 174.526 154.3 174.426 154.532L173.046 157.58H172.95L171.402 154.16V157.814C171.402 157.954 171.352 158.024 171.252 158.024C171.228 158.024 171.202 158.016 171.174 158V154.016C171.174 153.856 171.24 153.776 171.372 153.776C171.408 153.776 171.442 153.784 171.474 153.8L172.998 157.196L174.432 154.004C174.472 153.916 174.51 153.856 174.546 153.824C174.582 153.792 174.632 153.776 174.696 153.776C174.728 153.776 174.764 153.78 174.804 153.788C174.844 153.796 174.882 153.8 174.918 153.8L174.954 153.878ZM176.546 158.024C176.522 158.024 176.496 158.016 176.468 158V153.986C176.468 153.846 176.518 153.776 176.618 153.776C176.642 153.776 176.668 153.784 176.696 153.8V157.814C176.696 157.954 176.646 158.024 176.546 158.024ZM178.416 158.024C178.392 158.024 178.366 158.016 178.338 158V154.016C178.338 153.856 178.404 153.776 178.536 153.776C178.572 153.776 178.606 153.784 178.638 153.8L180.942 157.682V153.986C180.942 153.846 180.992 153.776 181.092 153.776C181.116 153.776 181.142 153.784 181.17 153.8V157.784C181.17 157.944 181.104 158.024 180.972 158.024C180.936 158.024 180.902 158.016 180.87 158L178.566 154.118V157.814C178.566 157.954 178.516 158.024 178.416 158.024ZM183.73 153.74C184.126 153.74 184.472 153.828 184.768 154.004C185.064 154.18 185.292 154.43 185.452 154.754C185.612 155.078 185.692 155.458 185.692 155.894C185.692 156.334 185.612 156.718 185.452 157.046C185.292 157.37 185.064 157.62 184.768 157.796C184.472 157.972 184.126 158.06 183.73 158.06C183.61 158.06 183.43 158.052 183.19 158.036C182.958 158.02 182.792 158.012 182.692 158.012L182.656 157.934C182.716 157.814 182.756 157.674 182.776 157.514C182.8 157.354 182.812 157.14 182.812 156.872V154.916C182.812 154.648 182.8 154.434 182.776 154.274C182.756 154.114 182.716 153.974 182.656 153.854L182.692 153.776C182.852 153.776 183.018 153.77 183.19 153.758C183.25 153.754 183.324 153.75 183.412 153.746C183.504 153.742 183.61 153.74 183.73 153.74ZM183.742 157.868C184.09 157.868 184.392 157.788 184.648 157.628C184.908 157.464 185.108 157.234 185.248 156.938C185.388 156.642 185.458 156.294 185.458 155.894C185.458 155.498 185.388 155.152 185.248 154.856C185.108 154.56 184.908 154.332 184.648 154.172C184.392 154.012 184.09 153.932 183.742 153.932C183.642 153.932 183.55 153.934 183.466 153.938C183.382 153.942 183.308 153.946 183.244 153.95C183.132 153.962 183.026 153.968 182.926 153.968C183.002 154.168 183.04 154.484 183.04 154.916V156.872C183.04 157.312 183.002 157.632 182.926 157.832C183.026 157.832 183.132 157.838 183.244 157.85C183.308 157.854 183.382 157.858 183.466 157.862C183.55 157.866 183.642 157.868 183.742 157.868ZM189.371 157.808C189.383 157.832 189.389 157.856 189.389 157.88C189.389 157.92 189.373 157.95 189.341 157.97C189.313 157.99 189.271 158 189.215 158H187.013L186.977 157.922C187.037 157.802 187.077 157.664 187.097 157.508C187.121 157.352 187.133 157.14 187.133 156.872V154.916C187.133 154.648 187.121 154.438 187.097 154.286C187.077 154.134 187.037 153.998 186.977 153.878L187.013 153.8H189.275C189.287 153.824 189.293 153.848 189.293 153.872C189.293 153.912 189.277 153.942 189.245 153.962C189.217 153.982 189.175 153.992 189.119 153.992H187.253C187.325 154.18 187.361 154.488 187.361 154.916V155.684H189.083C189.095 155.708 189.101 155.732 189.101 155.756C189.101 155.832 189.043 155.87 188.927 155.87H187.361V156.872C187.361 157.308 187.325 157.62 187.253 157.808H189.371ZM192.791 156.968C192.951 157.316 193.071 157.558 193.151 157.694C193.235 157.83 193.311 157.918 193.379 157.958V157.994C193.331 158.014 193.281 158.024 193.229 158.024C193.173 158.024 193.123 158.004 193.079 157.964C193.035 157.924 192.975 157.838 192.899 157.706C192.827 157.57 192.727 157.36 192.599 157.076C192.451 156.744 192.323 156.502 192.215 156.35C192.107 156.194 191.979 156.078 191.831 156.002C191.735 156.01 191.663 156.014 191.615 156.014H190.949V157.814C190.949 157.954 190.899 158.024 190.799 158.024C190.775 158.024 190.749 158.016 190.721 158V154.916C190.721 154.648 190.709 154.434 190.685 154.274C190.665 154.114 190.625 153.974 190.565 153.854L190.601 153.776C190.761 153.776 190.925 153.77 191.093 153.758C191.145 153.754 191.223 153.75 191.327 153.746C191.435 153.742 191.531 153.74 191.615 153.74C192.063 153.74 192.419 153.842 192.683 154.046C192.951 154.246 193.085 154.518 193.085 154.862C193.085 155.142 192.999 155.378 192.827 155.57C192.655 155.762 192.417 155.892 192.113 155.96C192.229 156.028 192.335 156.136 192.431 156.284C192.531 156.432 192.651 156.66 192.791 156.968ZM190.835 153.968C190.911 154.168 190.949 154.484 190.949 154.916V155.828H191.711C192.059 155.828 192.335 155.742 192.539 155.57C192.747 155.394 192.851 155.158 192.851 154.862C192.851 154.578 192.747 154.352 192.539 154.184C192.335 154.016 192.059 153.932 191.711 153.932C191.607 153.932 191.509 153.934 191.417 153.938C191.325 153.942 191.245 153.946 191.177 153.95C191.049 153.962 190.935 153.968 190.835 153.968Z" fill="black"/>
<circle cx="168.043" cy="131.043" r="2.89348" stroke="black" stroke-opacity="0.5" stroke-width="0.3"/>
<circle cx="175" cy="131.043" r="2.89348" stroke="black" stroke-opacity="0.5" stroke-width="0.3"/>
<circle cx="181.957" cy="131.043" r="2.89348" stroke="black" stroke-opacity="0.5" stroke-width="0.3"/>
<circle cx="175" cy="138" r="2.89348" stroke="black" stroke-opacity="0.5" stroke-width="0.3"/>
<circle cx="175" cy="144.957" r="2.89348" stroke="black" stroke-opacity="0.5" stroke-width="0.3"/>
<circle cx="181.957" cy="138" r="2.89348" stroke="black" stroke-opacity="0.5" stroke-width="0.3"/>
<circle cx="181.957" cy="144.957" r="2.89348" stroke="black" stroke-opacity="0.5" stroke-width="0.3"/>
<circle cx="168.043" cy="138" r="2.89348" stroke="black" stroke-opacity="0.5" stroke-width="0.3"/>
<circle cx="168.043" cy="144.957" r="2.89348" stroke="black" stroke-opacity="0.5" stroke-width="0.3"/>
</svg>
