<svg width="160" height="152" viewBox="0 0 160 152" fill="none" xmlns="http://www.w3.org/2000/svg">
<path d="M159.5 76C159.5 117.674 123.931 151.5 80 151.5C36.0689 151.5 0.5 117.674 0.5 76C0.5 34.3264 36.0689 0.5 80 0.5C123.931 0.5 159.5 34.3264 159.5 76Z" stroke="black"/>
<path fill-rule="evenodd" clip-rule="evenodd" d="M48.7013 25.3334L46.7761 26.0244C46.6332 26.3008 46.4808 26.5786 46.3273 26.8582L46.3272 26.8583C45.7091 27.9843 45.074 29.1413 44.9812 30.3727C44.9648 30.5912 44.989 30.8098 45.0133 31.0285L45.0133 31.0285C45.0253 31.1374 45.0374 31.2463 45.0445 31.3551C45.6278 33.2327 47.6023 33.8565 49.7256 34.2254C50.5624 34.3314 51.4011 34.4185 52.2392 34.5056L52.2393 34.5056L52.2393 34.5056C53.8152 34.6694 55.3887 34.8329 56.9424 35.1206C57.7561 35.2747 58.5631 35.477 59.3717 35.6797C60.8834 36.0586 62.4009 36.439 63.9794 36.5089C65.25 36.5652 66.0358 36.446 67.1152 36.2824L67.1154 36.2824C67.3461 36.2474 67.5903 36.2104 67.8555 36.1726C68.7314 36.0091 69.5948 35.8025 70.4576 35.5961C72.0936 35.2048 73.7279 34.8138 75.4427 34.717C76.7021 34.646 77.1621 34.6957 78.1132 34.7986L78.1134 34.7986C78.3113 34.8201 78.5304 34.8438 78.7824 34.8692C80.6071 35.1327 82.1468 35.9 83.6912 36.6697L83.6912 36.6697C84.4421 37.0439 85.1941 37.4186 85.9804 37.7363C87.904 38.4629 89.9907 38.4994 92.0677 38.5356C92.6222 38.5453 93.1759 38.555 93.7257 38.5778C95.2885 38.6988 96.2847 39.465 97.3534 40.2869L97.4704 40.3768C98.2315 40.9611 98.412 41.0794 98.9902 41.4581L98.9907 41.4584L98.9936 41.4603L98.9945 41.4609C99.1341 41.5523 99.2968 41.6589 99.4964 41.7908C99.9623 42.0974 100.485 42.3613 101.01 42.6261C102.062 43.1574 103.122 43.6926 103.747 44.5843C104.338 45.4275 104.38 45.9738 104.442 46.7779C104.457 46.9693 104.473 47.1753 104.498 47.4034C104.345 48.9752 103.645 50.4386 102.946 51.9017C102.296 53.2611 101.646 54.6201 101.435 56.0656C101.392 56.362 101.41 56.6612 101.428 56.9604C101.437 57.1099 101.446 57.2593 101.447 57.4083C101.448 58.2633 102.006 58.9458 102.564 59.6275C103.086 60.2656 103.607 60.903 103.67 61.6806C103.693 61.9684 103.644 62.2558 103.595 62.5431L103.595 62.5433L103.595 62.5435L103.595 62.5437C103.57 62.687 103.546 62.8303 103.53 62.9736C103.209 64.0967 102.706 65.1806 102.203 66.2646C101.541 67.6908 100.879 69.1171 100.63 70.6327C100.407 71.9954 100.539 72.5312 100.793 73.5632L100.793 73.5639C100.846 73.7784 100.904 74.0143 100.965 74.2836C101.018 74.4279 101.076 74.5806 101.136 74.7394C101.471 75.6227 101.876 76.6921 101.935 77.5311C102.126 80.2195 101.144 82.5446 99.5418 84.829C97.5853 87.1068 97.2075 90.0571 98.1273 92.713C98.2688 93.1217 98.4701 93.5146 98.6713 93.9075L98.6716 93.908C98.7722 94.1045 98.8728 94.3009 98.9659 94.4993C100.509 96.9207 101.841 99.4099 101.879 102.18C101.89 103.015 101.722 104.072 101.577 104.977C101.553 105.127 101.53 105.274 101.508 105.414C101.521 105.535 101.518 105.659 101.515 105.783C101.509 106.032 101.502 106.28 101.624 106.501C102.002 107.188 104.107 108.306 105.595 109.096C106.16 109.396 106.636 109.649 106.894 109.813C108.607 110.899 110.212 112.131 111.797 113.348L111.798 113.349C112.139 113.61 112.479 113.872 112.82 114.13C118.649 118.998 125.773 122.694 133.263 125.653C133.432 125.63 133.594 125.61 133.749 125.591L133.752 125.591L133.754 125.591L133.757 125.59L133.759 125.59C134.751 125.469 135.447 125.384 135.936 124.68L135.952 124.667L135.962 124.657C136.192 124.634 136.347 124.581 136.27 124.44C136.251 124.407 136.228 124.379 136.2 124.354C136.248 124.266 136.286 124.167 136.315 124.057L136.335 123.929L136.336 123.918C136.416 123.839 136.486 123.768 136.534 123.72L136.348 123.784C136.399 123.623 136.446 123.445 136.489 123.249C136.636 122.589 134.39 119.351 133.959 118.731L133.924 118.68L133.897 118.641C132.385 116.418 132.13 116.101 132.026 115.97C132.013 115.954 132.003 115.942 131.993 115.929C131.944 115.864 131.901 115.795 131.646 115.381L131.645 115.38L131.645 115.38C131.423 115.02 131.04 114.4 130.353 113.296C129.35 111.482 129.162 109.641 129.172 107.698L127.305 108.469C127.317 110.434 127.526 112.301 128.546 114.131C128.729 114.425 128.909 114.719 129.089 115.014C129.448 115.601 129.806 116.187 130.188 116.764C130.502 117.237 130.931 117.841 131.391 118.489L131.391 118.489L131.392 118.49L131.392 118.49L131.392 118.49L131.392 118.491C132.248 119.695 133.209 121.047 133.73 121.984C133.875 122.244 133.955 122.532 134.034 122.818C134.154 123.25 134.273 123.68 134.614 124.01C134.689 124.082 134.79 124.125 134.907 124.152C134.8 124.29 134.673 124.417 134.535 124.536C127.216 121.64 120.276 118.007 114.585 113.247C114.255 112.996 113.921 112.739 113.584 112.479L113.584 112.479L113.581 112.477C111.996 111.257 110.336 109.979 108.652 108.905C108.45 108.776 108.009 108.539 107.464 108.248L107.464 108.248L107.464 108.248L107.464 108.248L107.463 108.247C106.001 107.465 103.796 106.285 103.487 105.716C103.37 105.501 103.379 105.26 103.388 105.019C103.393 104.899 103.397 104.778 103.386 104.661C103.408 104.516 103.431 104.365 103.454 104.212L103.454 104.212L103.454 104.212C103.594 103.295 103.751 102.263 103.732 101.398C103.669 98.6169 102.343 96.1098 100.793 93.6754C100.702 93.4796 100.603 93.2859 100.505 93.0923C100.308 92.7059 100.111 92.3196 99.9734 91.9172C99.0703 89.2707 99.5221 86.3988 101.453 84.1364C103.032 81.81 103.992 79.4456 103.781 76.7328C103.716 75.8957 103.314 74.8247 102.981 73.9401L102.981 73.9401C102.922 73.7823 102.865 73.6305 102.812 73.487C102.753 73.2202 102.697 72.9873 102.647 72.7762L102.647 72.7749L102.646 72.7745C102.403 71.7597 102.28 71.2495 102.513 69.9001C102.767 68.428 103.407 67.0411 104.048 65.6541C104.57 64.5228 105.093 63.3915 105.405 62.2138C105.417 62.0645 105.439 61.9152 105.46 61.7659C105.502 61.4667 105.544 61.1674 105.514 60.8687C105.436 60.0965 104.927 59.4647 104.419 58.833C103.876 58.1579 103.332 57.4829 103.314 56.6365C103.315 56.4919 103.308 56.3468 103.302 56.2018V56.2017C103.289 55.9098 103.276 55.6178 103.321 55.329C103.543 53.918 104.174 52.5872 104.805 51.2562C105.519 49.7496 106.234 48.2428 106.355 46.6195C106.326 46.3833 106.307 46.171 106.289 45.9746L106.289 45.9742C106.213 45.1405 106.163 44.5922 105.545 43.71C104.897 42.7849 103.805 42.2301 102.72 41.6791L102.72 41.679C102.222 41.426 101.726 41.1738 101.274 40.8869C101.078 40.7575 100.916 40.6519 100.775 40.5601C100.208 40.1907 99.9848 40.0457 99.2603 39.4873C99.196 39.4378 99.1321 39.3883 99.0684 39.339C98.0018 38.5132 96.9946 37.7335 95.4316 37.585C94.8176 37.5563 94.198 37.5472 93.5777 37.5381C91.5851 37.5088 89.5845 37.4793 87.7328 36.8011C86.906 36.4728 86.1193 36.0796 85.334 35.6871C83.8102 34.9254 82.2914 34.1663 80.4943 33.8884C80.2379 33.8601 80.0155 33.8339 79.815 33.8102C78.8563 33.6972 78.3971 33.6431 77.1209 33.7026C75.3225 33.7865 73.6132 34.1988 71.9017 34.6116C71.1135 34.8017 70.3249 34.9919 69.5268 35.1502C69.277 35.1884 69.0425 35.2264 68.8177 35.2629L68.817 35.263L68.8169 35.263C67.7524 35.4355 66.9069 35.5726 65.6912 35.5313C64.0928 35.477 62.5556 35.0886 61.026 34.7022L61.026 34.7022C60.2397 34.5035 59.4555 34.3054 58.6661 34.1534C57.013 33.8346 55.3361 33.6629 53.6559 33.4909C52.9207 33.4157 52.1849 33.3404 51.4503 33.2526C49.4165 32.9254 47.4572 32.3909 46.9114 30.5753C46.9066 30.4694 46.8968 30.3636 46.887 30.2578V30.2577V30.2577V30.2577V30.2576V30.2576V30.2576V30.2576V30.2575V30.2575V30.2575V30.2575V30.2574V30.2574V30.2574V30.2573V30.2573V30.2573C46.8676 30.0471 46.8481 29.837 46.8679 29.6273C46.9868 28.3625 47.6628 27.1715 48.3161 26.0205C48.4469 25.79 48.5769 25.561 48.7013 25.3334ZM135.449 124.199L135.5 124.2L135.466 124.231L135.36 124.272C135.387 124.248 135.415 124.223 135.441 124.199L135.446 124.199L135.449 124.199ZM135.013 124.607C135.003 124.627 134.994 124.646 134.987 124.662C134.981 124.669 134.974 124.676 134.968 124.683L134.961 124.692L134.954 124.7L134.851 124.66C134.876 124.644 134.9 124.627 134.924 124.61C134.943 124.597 134.963 124.583 134.982 124.569C135.006 124.552 135.03 124.535 135.053 124.517C135.039 124.55 135.025 124.58 135.013 124.606L135.013 124.606L135.013 124.607L135.013 124.607ZM135.336 124.685L135.332 124.685L135.365 124.672L135.36 124.681L135.336 124.685ZM46.2586 36.3832L48.1502 35.6338H48.1502C47.7898 37.306 47.6278 38.9482 48.1897 40.5962C48.7191 41.6434 49.5444 42.5562 50.3661 43.4651L50.3662 43.4652C50.5974 43.721 50.8283 43.9764 51.0523 44.2344C51.8584 45.1933 52.2232 46.2648 52.3858 47.4002C52.4809 48.5107 52.4735 49.6243 52.466 50.7371V50.7371V50.7373V50.7375V50.7376V50.7378C52.4648 50.9125 52.4636 51.0871 52.4629 51.2617C52.511 51.9771 52.6576 52.6778 52.8625 53.3684C53.4222 53.474 53.9672 53.5563 54.5202 53.5959C55.1733 53.5911 55.8266 53.5771 56.4771 53.5263C56.5376 53.521 56.5981 53.5154 56.6586 53.5096C56.7059 53.5021 56.7534 53.4942 56.8011 53.486C57.0445 53.448 57.2874 53.4099 57.5297 53.3708C58.9694 53.0598 60.3945 52.6895 61.7519 52.1916C61.8319 52.1598 61.9075 52.1302 61.9802 52.1017C62.5753 51.8288 63.1441 51.5171 63.6885 51.182L63.6884 51.1818L63.9137 51.1998C63.9507 51.1553 64.0112 51.1453 64.1113 51.2156L64.3781 51.2369C64.5079 51.2371 64.5858 51.3025 64.5658 51.475L64.5656 51.4765L64.5655 51.477C64.5623 51.5017 64.5591 51.5266 64.5552 51.5515L64.6432 51.5236L64.6432 51.5236L64.5515 51.574C64.5329 51.6809 64.499 51.7852 64.4009 51.8646L64.3449 51.9178C64.1358 52.1172 63.9372 52.3066 63.6229 52.4169C62.4405 52.87 61.2031 53.2255 59.9434 53.5102C59.8092 53.5363 59.6747 53.5613 59.5401 53.5855C58.1212 53.9848 56.6514 54.2809 55.1279 54.5108C54.5149 54.5606 53.9019 54.6082 53.29 54.6135C53.5188 55.2105 53.7736 55.8016 54.0273 56.3901L54.0274 56.3902L54.0335 56.4043C54.608 57.8656 55.2811 59.3029 56.0821 60.6926C56.9337 62.2277 57.8041 63.7444 58.8539 65.1995C59.3173 65.8307 59.7744 66.4649 60.2315 67.099L60.2316 67.0992C61.0836 68.281 61.9354 69.4628 62.8277 70.6255C64.1657 72.4135 65.7575 74.0724 67.5533 75.5719C68.8474 76.714 70.3641 77.6302 71.9589 78.4711C73.2814 79.0818 74.6876 79.5668 76.1639 79.8682C77.5964 80.1144 79.0651 80.1275 80.5236 80.1406L80.769 80.1428C82.3924 80.0616 83.9358 79.7001 85.3869 79.1444C85.1951 79.0771 85.467 78.9707 85.7536 78.8585C85.9148 78.7953 86.0807 78.7304 86.1712 78.6696C86.9516 78.1456 87.7103 77.5499 88.3947 76.9442C88.7144 76.5861 89.073 76.2551 89.4318 75.924C89.681 75.6939 89.9303 75.4638 90.1668 75.2244C90.1915 75.1986 90.2121 75.1772 90.2295 75.1592L90.2676 75.1201L90.2681 75.1196L90.2698 75.1179L90.2702 75.1174L90.2706 75.1171L90.2708 75.1169C90.3026 75.0843 90.3183 75.0682 90.3326 75.0508C90.3465 75.0338 90.3589 75.0155 90.3835 74.9794L90.414 74.9348C90.4268 74.9161 90.442 74.8942 90.4602 74.8681L92.3795 74.1628C92.3485 74.2229 92.3283 74.2642 92.3136 74.2944C92.2942 74.3342 92.2843 74.3546 92.2715 74.373C92.2581 74.3922 92.2415 74.4092 92.2077 74.444C92.1836 74.4688 92.1507 74.5026 92.1039 74.5527C91.8646 74.8 91.6097 75.0348 91.3552 75.2694L91.3551 75.2694L91.3551 75.2694L91.355 75.2695L91.355 75.2695L91.3549 75.2696L91.3549 75.2696L91.3549 75.2697L91.3548 75.2697L91.3548 75.2698L91.3547 75.2698L91.3547 75.2699L91.3546 75.2699L91.3546 75.2699L91.3545 75.27L91.3545 75.27L91.3544 75.2701L91.3544 75.2701L91.3543 75.2702L91.3543 75.2702L91.3543 75.2703C90.9995 75.5972 90.6454 75.9235 90.3347 76.2821C88.7715 77.7509 86.8514 78.908 84.731 79.8073C82.9746 80.5719 81.073 81.0745 79.066 81.1428L78.9026 81.141C77.4056 81.1246 75.8976 81.108 74.4313 80.8354C72.9435 80.5139 71.5191 80.0211 70.1888 79.3918C68.5834 78.5426 67.0655 77.6074 65.7605 76.459C63.9593 74.9476 62.3596 73.2788 61.0132 71.4814C60.1297 70.3294 59.2854 69.1588 58.4411 67.9881L58.4409 67.9879L58.4407 67.9876L58.4405 67.9873L58.4403 67.987L58.4401 67.9868L58.4399 67.9865L58.4397 67.9862L58.4395 67.9859L58.4393 67.9857L58.4391 67.9854L58.4389 67.9851L58.4388 67.9848L58.4386 67.9846L58.4384 67.9843L58.4382 67.984L58.438 67.9837L58.4378 67.9835L58.4376 67.9832L58.4374 67.9829L58.4372 67.9826C57.9721 67.3379 57.507 66.6931 57.0353 66.0514C55.9822 64.5919 55.1064 63.0713 54.2518 61.5317C53.4464 60.1372 52.7705 58.6946 52.1952 57.2274C51.9846 56.7388 51.7775 56.2477 51.5798 55.7542C51.5864 55.6701 51.5816 55.5722 51.5482 55.4419C51.4869 55.2028 51.4183 55.0288 51.3367 54.9046C51.2547 54.9767 51.1716 55.048 51.0871 55.1182L50.8743 55.1047C50.7295 55.1856 50.5805 55.2622 50.4286 55.3356C50.3088 55.3898 50.203 55.4316 50.1044 55.4625C50.0763 55.4761 50.0472 55.4862 50.0156 55.488C49.7553 55.555 49.5347 55.5432 49.2167 55.4825C48.6841 55.4733 48.1836 55.4467 48.4925 55.365C48.5336 55.3542 48.5627 55.3472 48.5826 55.3431C48.5443 55.3305 48.6291 55.3115 48.7138 55.2926C48.7585 55.2826 48.8033 55.2726 48.8299 55.2635C49.2901 55.0734 49.7058 54.8201 50.1091 54.5605L50.1591 54.5641C50.2689 54.4804 50.3735 54.3916 50.4722 54.2969V54.2969L50.5081 54.2988C50.5674 54.2413 50.6262 54.1834 50.6847 54.1252L50.7062 54.1265C50.6752 54.0348 50.639 53.949 50.5959 53.8711C50.5954 53.8645 50.5943 53.8584 50.5939 53.8519C50.6898 53.8059 50.7866 53.7609 50.884 53.7166C50.7385 53.1639 50.6333 52.6043 50.589 52.0352C50.5899 51.8621 50.591 51.689 50.5922 51.5159V51.5157V51.5154V51.5152V51.5149V51.5147V51.5144V51.5142V51.5139V51.5137V51.5134V51.5132V51.513C50.5998 50.4054 50.6074 49.2968 50.5219 48.1912C50.3727 47.0818 50.0315 46.0361 49.2407 45.0999C49.0194 44.8451 48.7917 44.5928 48.5637 44.3401C47.7263 43.4121 46.8854 42.4802 46.3445 41.4113C45.7619 39.7417 45.8975 38.0819 46.2586 36.3832ZM48.6467 55.3579C48.6347 55.3552 48.6226 55.3525 48.6104 55.3497C48.6031 55.3543 48.5928 55.3598 48.5833 55.3648C48.5514 55.3818 48.5275 55.3945 48.6467 55.3579ZM66.7503 88.6748C68.8373 86.9771 70.4754 85.0635 70.8762 82.6301L72.7651 81.8771C72.3726 84.3312 70.7626 86.2856 68.6862 88.0232C65.64 90.1044 61.9576 91.2562 58.1211 91.9252C54.0765 92.3947 50.031 92.8619 45.9692 93.2228C45.1401 93.2864 44.3056 93.328 43.4711 93.3696H43.4709H43.4708H43.4707H43.4706H43.4705H43.4703H43.4702H43.4701H43.47H43.4699H43.4697H43.4696H43.4695H43.4694H43.4693H43.4691H43.469H43.4689H43.4688H43.4687C40.7334 93.506 37.9967 93.6423 35.4424 94.5495C35.0165 94.7008 34.6112 94.8865 34.2059 95.0721C34.0032 95.165 33.8006 95.2578 33.5954 95.3463C33.615 95.383 33.6331 95.4164 33.6496 95.4469C33.7485 95.6295 33.7914 95.7088 33.7703 95.7632C33.754 95.8049 33.7 95.832 33.6046 95.8799C33.3876 95.9886 32.9564 96.2047 32.2677 96.9446C30.4382 98.91 29.3055 101.16 28.3703 103.477C27.4067 106.262 26.8882 109.117 26.5795 111.992C26.4478 113.371 26.4251 114.754 26.4055 116.137L24.5335 116.908C24.5525 115.521 24.5728 114.134 24.702 112.751C25.0087 109.864 25.5232 106.998 26.4776 104.2C27.4026 101.862 28.5328 99.6019 30.3421 97.6057C30.4014 97.5403 30.4604 97.4743 30.5195 97.4083L30.5204 97.4073C30.9013 96.9818 31.2863 96.5518 31.7809 96.2155C32.4942 95.7306 33.2775 95.3201 34.0608 94.9096C34.4524 94.7043 34.8441 94.4991 35.227 94.2845C35.5525 94.1491 35.824 94.0329 36.0626 93.9307L36.0663 93.9291L36.0673 93.9286C37.1082 93.4828 37.5234 93.305 39.0768 92.9666C40.8769 92.5744 42.7248 92.4897 44.5739 92.405H44.5741C45.6011 92.3579 46.6284 92.3108 47.6482 92.211C51.7064 91.8458 55.7511 91.3869 59.789 90.8976C62.7741 90.3557 65.5739 89.6322 66.7503 88.6748ZM77.7326 47.0331C77.5112 47.1939 77.1085 47.4865 77.0693 47.6584L77.0053 47.6824C76.9912 47.6843 76.9848 47.6853 76.9967 47.6846L77.0001 47.6844C75.6485 48.1956 76.0944 48.1538 76.9002 48.0643C76.9271 48.1026 77.0865 48.0882 77.3776 48.0621L77.3777 48.062L77.3777 48.062L77.3778 48.062C77.5013 48.0509 77.6484 48.0377 77.8191 48.0254C80.0478 47.8612 82.2613 47.6089 84.3821 47.0178C84.7463 46.897 85.1099 46.7748 85.4732 46.6522C87.4155 46.1876 88.9074 45.1593 90.0449 43.8546L90.1133 43.8037C90.3326 43.6404 90.4534 43.5504 90.4439 43.5336C90.4324 43.5131 90.225 43.6025 89.7635 43.8017L89.5385 43.8987C89.59 43.847 89.6385 43.7934 89.6864 43.7394L89.2121 43.7153C89.1782 43.7531 89.144 43.7908 89.1086 43.8276C89.0475 43.8347 88.9965 43.8415 88.9524 43.8488L88.9436 43.8445L88.9387 43.8419L88.9666 43.817C88.9762 43.8083 88.92 43.8297 88.9311 43.8371C88.9335 43.8388 88.936 43.8403 88.9387 43.8419L88.9254 43.8535C88.762 43.8831 88.6947 43.9232 88.5241 44.0249L88.524 44.025L88.524 44.025L88.5239 44.025L88.5238 44.0251C88.4772 44.0529 88.423 44.0852 88.357 44.1232C88.0412 44.3097 87.7274 44.4984 87.4178 44.6916C87.3288 44.7342 87.2421 44.7873 87.1552 44.8406C87.04 44.9112 86.9245 44.982 86.8027 45.0287C86.6165 45.1001 86.4275 45.1668 86.238 45.2324L86.2141 45.2307L86.1795 45.2527L86.0724 45.2896C85.9499 45.3318 85.8274 45.374 85.7055 45.4171C84.663 45.8231 83.5823 46.1464 82.4774 46.4044C81.7498 46.4654 81.0202 46.4974 80.2947 46.4995L80.2153 46.5463C79.9835 46.4967 79.7462 46.4658 79.5071 46.4472C79.3702 46.4384 79.2328 46.4334 79.0955 46.4317L78.624 46.4919C78.7621 46.4918 78.9002 46.4964 79.0379 46.504C79.3704 46.526 79.7003 46.5719 80.0162 46.6614L80.0186 46.662L79.8228 46.6241C79.7511 46.6166 79.6818 46.6089 79.6146 46.6014C78.8518 46.5169 78.3683 46.4633 77.8392 46.9545C77.8138 46.9741 77.7768 47.0009 77.7326 47.0331ZM87.1159 45.4402L87.0126 45.432L87.0162 45.43L87.1927 45.4427L87.2067 45.4336C87.167 45.467 87.1266 45.5001 87.0855 45.5328L86.9303 45.5191C87.0183 45.4762 87.0863 45.4461 87.1159 45.4402ZM87.3461 45.3125L87.2454 45.3052L87.4217 45.2094L87.4857 45.1747L87.368 45.2927L87.3461 45.3125ZM85.7648 45.9275L85.7278 45.926C85.6692 45.9236 85.6106 45.9212 85.5521 45.9186C85.4646 45.9534 85.3769 45.9878 85.2889 46.022C85.4481 45.9919 85.6068 45.9604 85.7648 45.9275ZM125.373 87.4373C121.571 84.8354 119.327 81.136 117.666 77.4144L119.488 76.5584C121.129 80.2713 123.338 83.975 127.15 86.5541C127.577 86.8436 128.051 87.0833 128.525 87.3231C128.762 87.443 128.999 87.5628 129.23 87.6889L127.47 88.6007C127.237 88.4714 126.998 88.3483 126.76 88.2251C126.282 87.9788 125.805 87.7325 125.373 87.4373Z" fill="black"/>
</svg>
