<svg width="350" height="295" viewBox="0 0 350 295" fill="none" xmlns="http://www.w3.org/2000/svg">
<rect width="350" height="295" rx="15" fill="#EAF5FA"/>
<g opacity="0.5">
<rect x="33.5" y="123.5" width="284" height="47" rx="23.5" fill="white" stroke="#4D4D4D"/>
<rect x="34" y="124" width="56" height="46" rx="23" fill="#F2F2F2"/>
<path d="M69.4672 141.931C69.1449 141.904 68.8599 142.125 68.8305 142.426L68.7529 143.221C67.4357 141.29 65.1493 140 62.5 140C59.65 140 57.1383 141.518 55.8915 143.797C55.7443 144.066 55.8586 144.395 56.1468 144.533C56.4351 144.67 56.788 144.563 56.9352 144.294C57.9903 142.366 60.1093 141.094 62.5 141.094C64.679 141.094 66.6455 142.153 67.7721 143.812L66.9366 143.255C66.6733 143.08 66.3073 143.136 66.1193 143.382C65.9312 143.628 65.9922 143.97 66.2555 144.145L68.789 145.834C69.1603 146.081 69.6724 145.855 69.713 145.438L69.9975 142.526C70.0269 142.225 69.7895 141.959 69.4672 141.931Z" fill="black"/>
<path d="M68.8533 149.467C68.565 149.33 68.2121 149.437 68.0649 149.706C67.0098 151.634 64.8908 152.906 62.5001 152.906C60.3211 152.906 58.3546 151.847 57.228 150.188L58.0635 150.745C58.3268 150.92 58.6928 150.864 58.8808 150.618C59.0689 150.372 59.0079 150.03 58.7446 149.855L56.2111 148.166C55.8444 147.922 55.3281 148.141 55.2871 148.562L55.0026 151.474C54.9732 151.775 55.2106 152.041 55.5329 152.069C55.8556 152.096 56.1402 151.874 56.1696 151.574L56.2472 150.779C57.5644 152.71 59.8508 154 62.5001 154C65.3501 154 67.8618 152.482 69.1086 150.203C69.2558 149.934 69.1415 149.605 68.8533 149.467Z" fill="black"/>
<path d="M104.094 141.92H104.318L106.852 146.708H106.432L104.206 142.536L101.98 146.708H101.56L104.094 141.92ZM113.852 152.14C112.993 152.14 112.233 151.935 111.57 151.524C110.917 151.113 110.408 150.53 110.044 149.774C109.689 149.009 109.512 148.117 109.512 147.1C109.512 146.083 109.694 145.196 110.058 144.44C110.431 143.675 110.959 143.087 111.64 142.676C112.321 142.265 113.124 142.06 114.048 142.06C114.58 142.06 115.07 142.144 115.518 142.312C115.966 142.471 116.325 142.657 116.596 142.872C116.867 143.077 117.002 143.236 117.002 143.348C117.002 143.516 116.909 143.6 116.722 143.6C116.031 142.863 115.103 142.494 113.936 142.494C113.143 142.494 112.452 142.681 111.864 143.054C111.285 143.427 110.837 143.964 110.52 144.664C110.212 145.355 110.058 146.167 110.058 147.1C110.058 148.033 110.212 148.845 110.52 149.536C110.828 150.227 111.267 150.763 111.836 151.146C112.415 151.519 113.087 151.706 113.852 151.706C114.851 151.706 115.607 151.365 116.12 150.684C116.643 149.993 116.904 148.962 116.904 147.59H113.866C113.838 147.534 113.824 147.478 113.824 147.422C113.824 147.245 113.959 147.156 114.23 147.156H117.394C117.431 147.296 117.45 147.487 117.45 147.73C117.45 149.158 117.137 150.25 116.512 151.006C115.887 151.762 115 152.14 113.852 152.14ZM120.824 152.056C120.768 152.056 120.707 152.037 120.642 152V142.354C120.642 142.027 120.754 141.864 120.978 141.864C121.034 141.864 121.095 141.883 121.16 141.92V146.288C121.356 145.821 121.65 145.443 122.042 145.154C122.434 144.865 122.901 144.72 123.442 144.72C124.161 144.72 124.73 144.953 125.15 145.42C125.579 145.887 125.794 146.517 125.794 147.31V151.566C125.794 151.893 125.682 152.056 125.458 152.056C125.402 152.056 125.341 152.037 125.276 152V147.31C125.276 146.647 125.108 146.125 124.772 145.742C124.445 145.35 124.002 145.154 123.442 145.154C122.985 145.154 122.583 145.289 122.238 145.56C121.893 145.821 121.627 146.19 121.44 146.666C121.253 147.142 121.16 147.693 121.16 148.318V151.566C121.16 151.893 121.048 152.056 120.824 152.056ZM131.839 152.14C131.353 152.14 130.905 152.051 130.495 151.874C130.084 151.687 129.757 151.477 129.515 151.244C129.272 151.001 129.151 150.81 129.151 150.67C129.151 150.502 129.253 150.418 129.459 150.418C129.748 150.829 130.103 151.146 130.523 151.37C130.943 151.594 131.381 151.706 131.839 151.706C132.735 151.706 133.439 151.272 133.953 150.404C134.475 149.536 134.774 148.337 134.849 146.806C134.382 147.991 133.369 148.584 131.811 148.584C130.887 148.584 130.149 148.304 129.599 147.744C129.057 147.175 128.787 146.414 128.787 145.462C128.787 144.417 129.067 143.591 129.627 142.984C130.196 142.368 130.961 142.06 131.923 142.06C133.08 142.06 133.948 142.405 134.527 143.096C135.115 143.787 135.409 144.79 135.409 146.106C135.409 147.982 135.101 149.457 134.485 150.53C133.869 151.603 132.987 152.14 131.839 152.14ZM131.811 148.15C132.716 148.15 133.439 147.898 133.981 147.394C134.522 146.89 134.793 146.209 134.793 145.35C134.793 144.473 134.531 143.777 134.009 143.264C133.495 142.751 132.8 142.494 131.923 142.494C131.129 142.494 130.499 142.765 130.033 143.306C129.566 143.838 129.333 144.557 129.333 145.462C129.333 146.283 129.557 146.937 130.005 147.422C130.453 147.907 131.055 148.15 131.811 148.15ZM138.819 152.056C138.725 152.056 138.623 152.028 138.511 151.972L142.039 142.62H137.139C137.111 142.564 137.097 142.513 137.097 142.466C137.097 142.289 137.223 142.2 137.475 142.2H142.697V142.424L139.267 151.538C139.183 151.753 139.108 151.893 139.043 151.958C138.987 152.023 138.912 152.056 138.819 152.056ZM147.448 141.92H147.672L150.206 146.708H149.786L147.56 142.536L145.334 146.708H144.914L147.448 141.92ZM155.652 151.23C155.801 151.23 155.876 151.305 155.876 151.454C155.876 151.613 155.773 151.753 155.568 151.874C155.372 151.995 155.129 152.056 154.84 152.056C154.466 152.056 154.177 151.944 153.972 151.72C153.776 151.487 153.678 151.16 153.678 150.74V145.28H152.656C152.628 145.224 152.614 145.173 152.614 145.126C152.614 145.042 152.646 144.977 152.712 144.93C152.786 144.883 152.889 144.86 153.02 144.86H153.678V143.53C153.678 143.203 153.79 143.04 154.014 143.04C154.07 143.04 154.13 143.059 154.196 143.096V144.86H155.834C155.862 144.916 155.876 144.967 155.876 145.014C155.876 145.098 155.838 145.163 155.764 145.21C155.698 145.257 155.6 145.28 155.47 145.28H154.196V150.684C154.196 150.992 154.252 151.23 154.364 151.398C154.485 151.557 154.662 151.636 154.896 151.636C155.232 151.636 155.484 151.501 155.652 151.23ZM157.808 151.664C159.227 150.432 160.305 149.447 161.042 148.71C161.78 147.973 162.321 147.305 162.666 146.708C163.021 146.111 163.198 145.509 163.198 144.902C163.198 144.174 162.979 143.591 162.54 143.152C162.111 142.713 161.528 142.494 160.79 142.494C160.361 142.494 159.936 142.587 159.516 142.774C159.106 142.961 158.756 143.25 158.466 143.642C158.261 143.642 158.158 143.558 158.158 143.39C158.158 143.25 158.275 143.073 158.508 142.858C158.751 142.643 159.073 142.457 159.474 142.298C159.876 142.139 160.314 142.06 160.79 142.06C161.696 142.06 162.414 142.321 162.946 142.844C163.478 143.357 163.744 144.043 163.744 144.902C163.744 145.527 163.576 146.148 163.24 146.764C162.914 147.38 162.386 148.061 161.658 148.808C160.93 149.555 159.908 150.479 158.592 151.58H164.038C164.066 151.636 164.08 151.687 164.08 151.734C164.08 151.818 164.048 151.883 163.982 151.93C163.917 151.977 163.824 152 163.702 152H157.808V151.664ZM172.407 142.2C172.435 142.256 172.449 142.312 172.449 142.368C172.449 142.461 172.411 142.531 172.337 142.578C172.271 142.625 172.173 142.648 172.043 142.648H167.689C167.857 143.087 167.941 143.805 167.941 144.804V146.736H171.735C171.763 146.792 171.777 146.848 171.777 146.904C171.777 147.081 171.641 147.17 171.371 147.17H167.941V151.566C167.941 151.893 167.824 152.056 167.591 152.056C167.535 152.056 167.474 152.037 167.409 152V144.804C167.409 144.179 167.381 143.689 167.325 143.334C167.278 142.979 167.185 142.662 167.045 142.382L167.129 142.2H172.407ZM175.578 143.278V141.92H176.166V143.278L176.026 149.214H175.704L175.578 143.278ZM175.872 152.112C175.713 152.112 175.583 152.061 175.48 151.958C175.377 151.855 175.326 151.725 175.326 151.566C175.326 151.407 175.377 151.277 175.48 151.174C175.583 151.071 175.713 151.02 175.872 151.02C176.031 151.02 176.161 151.071 176.264 151.174C176.367 151.277 176.418 151.407 176.418 151.566C176.418 151.725 176.367 151.855 176.264 151.958C176.161 152.061 176.031 152.112 175.872 152.112ZM182.823 152.14C181.833 152.14 181.045 151.888 180.457 151.384C179.878 150.871 179.589 150.185 179.589 149.326C179.589 148.757 179.747 148.243 180.065 147.786C180.391 147.329 180.83 146.993 181.381 146.778C180.97 146.545 180.643 146.227 180.401 145.826C180.158 145.415 180.037 144.977 180.037 144.51C180.037 143.763 180.289 143.171 180.793 142.732C181.297 142.284 181.973 142.06 182.823 142.06C183.681 142.06 184.363 142.284 184.867 142.732C185.371 143.171 185.623 143.763 185.623 144.51C185.623 144.977 185.501 145.415 185.259 145.826C185.016 146.237 184.689 146.559 184.279 146.792C184.829 147.007 185.263 147.343 185.581 147.8C185.907 148.248 186.071 148.757 186.071 149.326C186.071 150.185 185.777 150.871 185.189 151.384C184.601 151.888 183.812 152.14 182.823 152.14ZM182.823 146.554C183.513 146.554 184.059 146.372 184.461 146.008C184.871 145.635 185.077 145.135 185.077 144.51C185.077 143.894 184.871 143.404 184.461 143.04C184.059 142.676 183.513 142.494 182.823 142.494C182.141 142.494 181.595 142.676 181.185 143.04C180.783 143.404 180.583 143.894 180.583 144.51C180.583 145.135 180.783 145.635 181.185 146.008C181.595 146.372 182.141 146.554 182.823 146.554ZM182.823 151.706C183.653 151.706 184.311 151.491 184.797 151.062C185.282 150.633 185.525 150.054 185.525 149.326C185.525 148.607 185.282 148.038 184.797 147.618C184.311 147.189 183.653 146.974 182.823 146.974C182.001 146.974 181.348 147.189 180.863 147.618C180.377 148.038 180.135 148.607 180.135 149.326C180.135 150.054 180.377 150.633 180.863 151.062C181.348 151.491 182.001 151.706 182.823 151.706ZM188.597 142.69C188.579 142.597 188.569 142.531 188.569 142.494C188.569 142.261 188.709 142.144 188.989 142.144L191.341 150.6L193.567 142.564C193.651 142.284 193.819 142.144 194.071 142.144C194.155 142.144 194.235 142.163 194.309 142.2L196.633 150.614L198.901 142.438C198.957 142.242 199.079 142.144 199.265 142.144C199.359 142.144 199.443 142.163 199.517 142.2L196.745 152H196.521L193.987 142.956L191.453 152H191.229L188.597 142.69ZM201.644 145.308C201.625 145.261 201.616 145.201 201.616 145.126C201.616 145.023 201.653 144.944 201.728 144.888C201.802 144.832 201.896 144.804 202.008 144.804L204.01 150.726L205.522 145.28C205.615 144.963 205.806 144.804 206.096 144.804C206.189 144.804 206.278 144.823 206.362 144.86L207.986 150.726L209.89 145.126C209.964 144.911 210.086 144.804 210.254 144.804C210.347 144.804 210.431 144.823 210.506 144.86L208.084 152H207.804L205.998 145.476L204.192 152H203.912L201.644 145.308ZM213.568 152.056C213.512 152.056 213.451 152.037 213.386 152V142.704C213.386 142.331 213.54 142.144 213.848 142.144C213.932 142.144 214.011 142.163 214.086 142.2L219.462 151.258V142.634C219.462 142.307 219.578 142.144 219.812 142.144C219.868 142.144 219.928 142.163 219.994 142.2V151.496C219.994 151.869 219.84 152.056 219.532 152.056C219.448 152.056 219.368 152.037 219.294 152L213.918 142.942V151.566C213.918 151.893 213.801 152.056 213.568 152.056ZM226.737 144.72C227.596 144.72 228.272 145.033 228.767 145.658C229.262 146.283 229.509 147.151 229.509 148.262C229.509 149.438 229.224 150.381 228.655 151.09C228.095 151.79 227.297 152.14 226.261 152.14C226.028 152.14 225.808 152.121 225.603 152.084C225.398 152.056 225.136 152.009 224.819 151.944C224.52 151.879 224.268 151.832 224.063 151.804C223.858 151.767 223.638 151.748 223.405 151.748L223.321 151.566C223.48 151.267 223.587 150.973 223.643 150.684C223.708 150.395 223.741 149.956 223.741 149.368V142.41C223.741 142.083 223.853 141.92 224.077 141.92C224.133 141.92 224.194 141.939 224.259 141.976V146.204C224.53 145.737 224.875 145.373 225.295 145.112C225.715 144.851 226.196 144.72 226.737 144.72ZM226.415 151.72C227.236 151.72 227.866 151.407 228.305 150.782C228.753 150.157 228.977 149.321 228.977 148.276C228.977 147.287 228.781 146.517 228.389 145.966C227.997 145.415 227.446 145.14 226.737 145.14C226.261 145.14 225.832 145.266 225.449 145.518C225.076 145.761 224.782 146.101 224.567 146.54C224.362 146.969 224.259 147.459 224.259 148.01V149.368C224.259 149.788 224.236 150.157 224.189 150.474C224.142 150.791 224.058 151.076 223.937 151.328C224.161 151.337 224.394 151.37 224.637 151.426C224.88 151.482 225.029 151.515 225.085 151.524C225.374 151.589 225.617 151.641 225.813 151.678C226.009 151.706 226.21 151.72 226.415 151.72ZM234.711 151.23C234.86 151.23 234.935 151.305 234.935 151.454C234.935 151.613 234.832 151.753 234.627 151.874C234.431 151.995 234.188 152.056 233.899 152.056C233.525 152.056 233.236 151.944 233.031 151.72C232.835 151.487 232.737 151.16 232.737 150.74V145.28H231.715C231.687 145.224 231.673 145.173 231.673 145.126C231.673 145.042 231.705 144.977 231.771 144.93C231.845 144.883 231.948 144.86 232.079 144.86H232.737V143.53C232.737 143.203 232.849 143.04 233.073 143.04C233.129 143.04 233.189 143.059 233.255 143.096V144.86H234.893C234.921 144.916 234.935 144.967 234.935 145.014C234.935 145.098 234.897 145.163 234.823 145.21C234.757 145.257 234.659 145.28 234.529 145.28H233.255V150.684C233.255 150.992 233.311 151.23 233.423 151.398C233.544 151.557 233.721 151.636 233.955 151.636C234.291 151.636 234.543 151.501 234.711 151.23ZM240.423 152.14C239.938 152.14 239.49 152.051 239.079 151.874C238.669 151.687 238.342 151.477 238.099 151.244C237.857 151.001 237.735 150.81 237.735 150.67C237.735 150.502 237.838 150.418 238.043 150.418C238.333 150.829 238.687 151.146 239.107 151.37C239.527 151.594 239.966 151.706 240.423 151.706C241.319 151.706 242.024 151.272 242.537 150.404C243.06 149.536 243.359 148.337 243.433 146.806C242.967 147.991 241.954 148.584 240.395 148.584C239.471 148.584 238.734 148.304 238.183 147.744C237.642 147.175 237.371 146.414 237.371 145.462C237.371 144.417 237.651 143.591 238.211 142.984C238.781 142.368 239.546 142.06 240.507 142.06C241.665 142.06 242.533 142.405 243.111 143.096C243.699 143.787 243.993 144.79 243.993 146.106C243.993 147.982 243.685 149.457 243.069 150.53C242.453 151.603 241.571 152.14 240.423 152.14ZM240.395 148.15C241.301 148.15 242.024 147.898 242.565 147.394C243.107 146.89 243.377 146.209 243.377 145.35C243.377 144.473 243.116 143.777 242.593 143.264C242.08 142.751 241.385 142.494 240.507 142.494C239.714 142.494 239.084 142.765 238.617 143.306C238.151 143.838 237.917 144.557 237.917 145.462C237.917 146.283 238.141 146.937 238.589 147.422C239.037 147.907 239.639 148.15 240.395 148.15ZM249.47 142.06C250.188 142.06 250.814 142.172 251.346 142.396C251.878 142.62 252.288 142.942 252.578 143.362C252.867 143.782 253.012 144.272 253.012 144.832C253.012 145.392 252.867 145.882 252.578 146.302C252.288 146.713 251.878 147.03 251.346 147.254C250.814 147.478 250.188 147.59 249.47 147.59H247.916V151.566C247.916 151.893 247.799 152.056 247.566 152.056C247.51 152.056 247.449 152.037 247.384 152V144.804C247.384 144.179 247.356 143.679 247.3 143.306C247.253 142.933 247.16 142.606 247.02 142.326L247.104 142.144C247.477 142.144 247.86 142.13 248.252 142.102C248.373 142.093 248.555 142.083 248.798 142.074C249.05 142.065 249.274 142.06 249.47 142.06ZM249.694 147.156C250.543 147.156 251.215 146.946 251.71 146.526C252.214 146.106 252.466 145.541 252.466 144.832C252.466 144.123 252.214 143.558 251.71 143.138C251.215 142.718 250.543 142.508 249.694 142.508C249.451 142.508 249.222 142.513 249.008 142.522C248.793 142.531 248.606 142.541 248.448 142.55C248.149 142.578 247.883 142.592 247.65 142.592C247.827 143.059 247.916 143.796 247.916 144.804V147.156H249.694ZM258.268 142.06C259.192 142.06 259.999 142.265 260.69 142.676C261.381 143.087 261.913 143.67 262.286 144.426C262.659 145.182 262.846 146.069 262.846 147.086C262.846 148.113 262.659 149.009 262.286 149.774C261.913 150.53 261.381 151.113 260.69 151.524C259.999 151.935 259.192 152.14 258.268 152.14C257.988 152.14 257.568 152.121 257.008 152.084C256.467 152.047 256.079 152.028 255.846 152.028L255.762 151.846C255.902 151.566 255.995 151.239 256.042 150.866C256.098 150.493 256.126 149.993 256.126 149.368V144.804C256.126 144.179 256.098 143.679 256.042 143.306C255.995 142.933 255.902 142.606 255.762 142.326L255.846 142.144C256.219 142.144 256.607 142.13 257.008 142.102C257.148 142.093 257.321 142.083 257.526 142.074C257.741 142.065 257.988 142.06 258.268 142.06ZM258.296 151.692C259.108 151.692 259.813 151.505 260.41 151.132C261.017 150.749 261.483 150.213 261.81 149.522C262.137 148.831 262.3 148.019 262.3 147.086C262.3 146.162 262.137 145.355 261.81 144.664C261.483 143.973 261.017 143.441 260.41 143.068C259.813 142.695 259.108 142.508 258.296 142.508C258.063 142.508 257.848 142.513 257.652 142.522C257.456 142.531 257.283 142.541 257.134 142.55C256.873 142.578 256.625 142.592 256.392 142.592C256.569 143.059 256.658 143.796 256.658 144.804V149.368C256.658 150.395 256.569 151.141 256.392 151.608C256.625 151.608 256.873 151.622 257.134 151.65C257.283 151.659 257.456 151.669 257.652 151.678C257.848 151.687 258.063 151.692 258.296 151.692Z" fill="#585858"/>
</g>
</svg>
