<svg width="350" height="295" viewBox="0 0 350 295" fill="none" xmlns="http://www.w3.org/2000/svg">
<rect width="350" height="295" rx="15" fill="#F4F2F7"/>
<path d="M136.718 214.645C136.727 216.297 137.084 217.931 137.79 219.43C138.548 221.039 139.69 222.462 141.101 223.562C142.486 224.64 144.125 225.397 145.851 225.755C146.772 225.947 147.7 226 148.637 226C149.652 226 150.667 226 151.682 226C153.49 226 155.299 226 157.108 226C159.471 226 161.833 226 164.195 226C166.883 226 169.571 226 172.259 226C175.049 226 177.838 226 180.628 226C183.278 226 185.929 226 188.579 226C190.846 226 193.112 226 195.379 226C197.054 226 198.729 226 200.404 226C201.24 226 202.077 226 202.913 226C204.102 226 205.278 225.851 206.418 225.509C208.119 224.998 209.694 224.096 210.984 222.89C212.28 221.678 213.281 220.172 213.89 218.516C214.349 217.267 214.577 215.948 214.579 214.62C214.58 214.316 214.579 214.011 214.579 213.706C214.579 212.99 214.579 212.274 214.579 211.559C214.579 210.466 214.579 209.374 214.579 208.281C214.579 206.851 214.579 205.422 214.579 203.992C214.579 202.273 214.579 200.554 214.579 198.835C214.579 196.846 214.579 194.857 214.579 192.868C214.579 190.656 214.579 188.443 214.579 186.231C214.579 183.833 214.579 181.435 214.579 179.037C214.579 176.506 214.579 173.975 214.579 171.444C214.579 168.79 214.579 166.135 214.579 163.481C214.579 160.756 214.579 158.03 214.579 155.304C214.579 152.552 214.579 149.801 214.579 147.049C214.579 144.301 214.579 141.554 214.579 138.806C214.579 136.094 214.579 133.381 214.579 130.668C214.579 128.036 214.579 125.404 214.579 122.771C214.579 120.27 214.579 117.77 214.579 115.269C214.579 112.91 214.579 110.552 214.579 108.193C214.579 106.028 214.579 103.864 214.579 101.699C214.579 99.7671 214.579 97.8346 214.579 95.9023C214.579 94.2485 214.579 92.5946 214.579 90.9405C214.579 89.5848 214.579 88.2291 214.579 86.8732C214.579 85.8634 214.579 84.8537 214.579 83.8439C214.579 83.2193 214.579 82.5949 214.579 81.9703C214.579 81.7084 214.582 81.4463 214.578 81.1844C214.553 79.5294 214.157 77.8848 213.424 76.3957C212.634 74.7905 211.458 73.3768 210.015 72.3004C208.627 71.2653 207.005 70.5471 205.298 70.2148C204.404 70.0406 203.504 70 202.596 70C201.547 70 200.497 70 199.448 70C197.613 70 195.778 70 193.944 70C191.572 70 189.199 70 186.827 70C184.125 70 181.422 70 178.719 70C175.93 70 173.142 70 170.353 70C167.713 70 165.072 70 162.432 70C160.184 70 157.936 70 155.689 70C154.041 70 152.394 70 150.747 70C149.947 70 149.148 70 148.348 70C147.105 70 145.873 70.172 144.689 70.5501C143.002 71.0884 141.452 72.0118 140.184 73.2329C138.898 74.4713 137.915 76.0092 137.335 77.6873C136.923 78.8801 136.72 80.1309 136.718 81.3903C136.717 81.7102 136.718 82.0299 136.718 82.3498C136.718 83.082 136.718 83.8142 136.718 84.5464C136.718 85.6525 136.718 86.7588 136.718 87.8648C136.718 89.3068 136.718 90.7486 136.718 92.1907C136.718 93.9202 136.718 95.6497 136.718 97.3792C136.718 99.3775 136.718 101.376 136.718 103.374C136.718 105.594 136.718 107.815 136.718 110.035C136.718 112.432 136.718 114.83 136.718 117.227C136.718 119.77 136.718 122.313 136.718 124.855C136.718 127.513 136.718 130.17 136.718 132.828C136.718 135.556 136.718 138.284 136.718 141.011C136.718 143.756 136.718 146.501 136.718 149.245C136.718 151.999 136.718 154.754 136.718 157.508C136.718 160.218 136.718 162.928 136.718 165.639C136.718 168.267 136.718 170.896 136.718 173.525C136.718 176.02 136.718 178.516 136.718 181.011C136.718 183.363 136.718 185.715 136.718 188.067C136.718 190.223 136.718 192.38 136.718 194.536C136.718 196.454 136.718 198.372 136.718 200.29C136.718 201.937 136.718 203.585 136.718 205.233C136.718 206.576 136.718 207.92 136.718 209.263C136.718 210.258 136.718 211.254 136.718 212.25C136.718 212.858 136.718 213.466 136.718 214.074C136.718 214.264 136.718 214.455 136.718 214.645Z" stroke="black" stroke-opacity="0.4" stroke-width="0.5" stroke-miterlimit="10" stroke-linecap="round" stroke-linejoin="round"/>
<path d="M182.699 75.2377C182.698 74.7199 182.36 74.2457 181.865 74.071C181.371 73.8965 180.803 74.0512 180.47 74.4513C180.137 74.8513 180.093 75.4303 180.363 75.8742C180.633 76.3183 181.171 76.5537 181.686 76.4532C182.199 76.3529 182.605 75.9354 182.684 75.4256C182.694 75.3635 182.699 75.3006 182.699 75.2377Z" stroke="black" stroke-opacity="0.7" stroke-width="0.5" stroke-miterlimit="10" stroke-linecap="round" stroke-linejoin="round"/>
<path d="M177.894 75.233C177.894 74.8394 177.653 74.4851 177.317 74.3845C177.181 74.344 177.039 74.3552 176.9 74.3552C176.529 74.3552 176.159 74.3552 175.788 74.3552C174.676 74.3552 173.564 74.3552 172.452 74.3552C171.872 74.3552 171.217 74.3552 170.683 74.3599C169.911 74.4532 169.738 75.6823 170.451 76.0366C170.579 76.1001 170.709 76.1103 170.846 76.1109C171.147 76.1122 171.447 76.1109 171.747 76.1109C172.84 76.1109 173.933 76.1109 175.026 76.1109C175.72 76.1109 176.418 76.137 177.112 76.1109C177.445 76.0983 177.743 75.8804 177.852 75.5158C177.88 75.4248 177.894 75.3289 177.894 75.233Z" stroke="black" stroke-opacity="0.7" stroke-width="0.5" stroke-miterlimit="10" stroke-linecap="round" stroke-linejoin="round"/>
<path d="M156.996 74.2489C154.99 74.2489 152.983 74.2489 150.976 74.2489C150.084 74.2489 149.191 74.2485 148.299 74.2489C147.679 74.2491 147.065 74.3098 146.462 74.4568C145.022 74.8078 143.709 75.6061 142.744 76.7145C141.78 77.8232 141.181 79.2224 141.052 80.6759C141.019 81.0405 141.024 81.4053 141.024 81.7708C141.024 82.3321 141.024 82.8932 141.024 83.4545C141.024 84.3874 141.024 85.3206 141.024 86.2535C141.024 87.5268 141.024 88.8001 141.024 90.0731C141.024 91.6485 141.024 93.2242 141.024 94.7996C141.024 96.6363 141.024 98.4727 141.024 100.309C141.024 102.375 141.024 104.442 141.024 106.507C141.024 108.774 141.024 111.041 141.024 113.307C141.024 115.733 141.024 118.159 141.024 120.585C141.024 123.127 141.024 125.668 141.024 128.21C141.024 130.84 141.024 133.469 141.024 136.098C141.024 138.794 141.024 141.49 141.024 144.186C141.024 146.883 141.024 149.58 141.024 152.277C141.024 154.954 141.024 157.632 141.024 160.309C141.024 162.932 141.024 165.554 141.024 168.177C141.024 170.722 141.024 173.268 141.024 175.814C141.024 178.219 141.024 180.623 141.024 183.028C141.024 185.271 141.024 187.514 141.024 189.758C141.024 191.803 141.024 193.849 141.024 195.895C141.024 197.717 141.024 199.54 141.024 201.362C141.024 202.905 141.024 204.448 141.024 205.991C141.024 207.23 141.024 208.469 141.024 209.707C141.024 210.608 141.024 211.51 141.024 212.411C141.024 212.935 141.024 213.459 141.024 213.983C141.024 214.458 141.032 214.93 141.104 215.402C141.323 216.838 142 218.19 143.023 219.237C144.051 220.289 145.407 221.011 146.865 221.28C147.563 221.408 148.26 221.401 148.966 221.401C150.117 221.401 151.269 221.401 152.421 221.401C154.295 221.401 156.17 221.401 158.044 221.401C160.43 221.401 162.815 221.401 165.201 221.401C167.872 221.401 170.544 221.401 173.215 221.401C175.944 221.401 178.674 221.401 181.403 221.401C183.978 221.401 186.553 221.401 189.128 221.401C191.341 221.401 193.554 221.401 195.767 221.401C197.373 221.401 198.979 221.401 200.585 221.401C201.379 221.401 202.173 221.401 202.967 221.401C204.058 221.401 205.124 221.201 206.117 220.75C207.469 220.136 208.606 219.104 209.341 217.832C209.956 216.767 210.27 215.559 210.274 214.336C210.275 214.053 210.274 213.77 210.274 213.487C210.274 212.808 210.274 212.128 210.274 211.449C210.274 210.402 210.274 209.356 210.274 208.309C210.274 206.941 210.274 205.574 210.274 204.207C210.274 202.55 210.274 200.894 210.274 199.237C210.274 197.32 210.274 195.404 210.274 193.487C210.274 191.351 210.274 189.215 210.274 187.079C210.274 184.765 210.274 182.452 210.274 180.139C210.274 177.678 210.274 175.217 210.274 172.757C210.274 170.177 210.274 167.597 210.274 165.017C210.274 162.36 210.274 159.704 210.274 157.047C210.274 154.358 210.274 151.668 210.274 148.978C210.274 146.284 210.274 143.589 210.274 140.894C210.274 138.215 210.274 135.536 210.274 132.857C210.274 130.259 210.274 127.661 210.274 125.063C210.274 122.567 210.274 120.071 210.274 117.574C210.274 115.215 210.274 112.856 210.274 110.497C210.274 108.3 210.274 106.102 210.274 103.904C210.274 101.927 210.274 99.9502 210.274 97.9736C210.274 96.2407 210.274 94.5081 210.274 92.7753C210.274 91.322 210.274 89.8687 210.274 88.4154C210.274 87.2717 210.274 86.128 210.274 84.9843C210.274 84.1986 210.274 83.4129 210.274 82.6272C210.274 82.2278 210.274 81.8284 210.274 81.4288C210.274 80.5834 210.152 79.7509 209.866 78.9515C209.37 77.5708 208.435 76.3599 207.215 75.5208C206.013 74.6945 204.572 74.255 203.107 74.2487C201.087 74.2401 199.066 74.2487 197.045 74.2487C196.16 74.2487 195.275 74.2478 194.39 74.2487C194.057 74.2491 193.743 74.3165 193.528 74.5882C193.177 75.0314 193.219 75.7074 193.095 76.2285C192.926 76.938 192.643 77.6415 192.154 78.1993C191.346 79.1222 190.154 79.1973 188.978 79.1973C186.832 79.1973 184.687 79.1973 182.541 79.1973C180.363 79.1973 178.185 79.1973 176.008 79.1973C174.902 79.1973 173.796 79.1973 172.691 79.1973C170.095 79.1973 167.499 79.1973 164.903 79.1973C164.023 79.1973 163.144 79.1973 162.264 79.1973C161.777 79.1973 161.346 79.3142 160.868 79.2057C159.4 78.8725 158.564 77.6764 158.22 76.3002C158.03 75.5364 158.113 74.2476 156.996 74.2489Z" stroke="black" stroke-opacity="0.4" stroke-width="0.5" stroke-miterlimit="10" stroke-linecap="round" stroke-linejoin="round"/>
<path d="M180.734 122.087C182.845 123.497 184.301 125.738 184.596 128.325M166.52 128.375C166.652 127.135 167.06 125.937 167.715 124.861C168.371 123.785 169.258 122.856 170.319 122.138M171.479 137.067C172.704 137.665 174.096 138 175.563 138C176.977 138 178.307 137.696 179.499 137.138M175.563 123.639C176.341 123.639 177.088 123.342 177.638 122.813C178.188 122.284 178.497 121.567 178.497 120.819C178.497 120.072 178.188 119.355 177.638 118.826C177.088 118.297 176.341 118 175.563 118C174.785 118 174.039 118.297 173.489 118.826C172.939 119.355 172.63 120.072 172.63 120.819C172.63 121.567 172.939 122.284 173.489 122.813C174.039 123.342 174.785 123.639 175.563 123.639ZM167.934 136.032C168.712 136.032 169.458 135.735 170.008 135.207C170.558 134.678 170.867 133.961 170.867 133.213C170.867 132.465 170.558 131.748 170.008 131.219C169.458 130.691 168.712 130.394 167.934 130.394C167.156 130.394 166.409 130.691 165.859 131.219C165.309 131.748 165 132.465 165 133.213C165 133.961 165.309 134.678 165.859 135.207C166.409 135.735 167.156 136.032 167.934 136.032ZM183.066 136.032C183.844 136.032 184.591 135.735 185.141 135.207C185.691 134.678 186 133.961 186 133.213C186 132.465 185.691 131.748 185.141 131.219C184.591 130.691 183.844 130.394 183.066 130.394C182.288 130.394 181.542 130.691 180.992 131.219C180.442 131.748 180.133 132.465 180.133 133.213C180.133 133.961 180.442 134.678 180.992 135.207C181.542 135.735 182.288 136.032 183.066 136.032Z" stroke="black" stroke-opacity="0.52" stroke-width="0.75" stroke-linecap="round" stroke-linejoin="round"/>
<path d="M165.686 150.723C165.63 150.723 165.583 150.707 165.546 150.674C165.513 150.637 165.497 150.59 165.497 150.534C165.497 150.478 165.513 150.434 165.546 150.401C165.583 150.364 165.63 150.345 165.686 150.345C165.742 150.345 165.789 150.364 165.826 150.401C165.863 150.434 165.882 150.478 165.882 150.534C165.882 150.59 165.863 150.637 165.826 150.674C165.789 150.707 165.742 150.723 165.686 150.723ZM165.651 155.028C165.623 155.028 165.593 155.019 165.56 155V151.647C165.56 151.484 165.616 151.402 165.728 151.402C165.756 151.402 165.786 151.411 165.819 151.43V154.783C165.819 154.946 165.763 155.028 165.651 155.028ZM168.985 155.07C168.677 155.07 168.402 155.03 168.159 154.951C167.916 154.867 167.725 154.774 167.585 154.671C167.445 154.564 167.375 154.482 167.375 154.426C167.375 154.342 167.422 154.3 167.515 154.3C167.86 154.669 168.334 154.853 168.936 154.853C169.37 154.853 169.699 154.76 169.923 154.573C170.147 154.386 170.259 154.12 170.259 153.775C170.259 153.57 170.215 153.392 170.126 153.243C170.037 153.094 169.893 152.958 169.692 152.837C169.491 152.711 169.218 152.59 168.873 152.473C168.388 152.305 168.045 152.121 167.844 151.92C167.643 151.719 167.543 151.465 167.543 151.157C167.543 150.793 167.66 150.515 167.893 150.324C168.126 150.128 168.458 150.03 168.887 150.03C169.167 150.03 169.424 150.072 169.657 150.156C169.89 150.235 170.075 150.329 170.21 150.436C170.345 150.539 170.413 150.618 170.413 150.674C170.413 150.758 170.366 150.8 170.273 150.8C170.105 150.623 169.907 150.487 169.678 150.394C169.449 150.296 169.197 150.247 168.922 150.247C168.567 150.247 168.292 150.326 168.096 150.485C167.905 150.644 167.809 150.863 167.809 151.143C167.809 151.39 167.902 151.598 168.089 151.766C168.276 151.929 168.598 152.093 169.055 152.256C169.419 152.387 169.706 152.522 169.916 152.662C170.131 152.802 170.285 152.958 170.378 153.131C170.476 153.299 170.525 153.502 170.525 153.74C170.525 154.165 170.392 154.494 170.126 154.727C169.86 154.956 169.48 155.07 168.985 155.07ZM172.171 155.028C172.143 155.028 172.112 155.019 172.08 155V150.177C172.08 150.014 172.136 149.932 172.248 149.932C172.276 149.932 172.306 149.941 172.339 149.96V152.144C172.437 151.911 172.584 151.722 172.78 151.577C172.976 151.432 173.209 151.36 173.48 151.36C173.839 151.36 174.124 151.477 174.334 151.71C174.548 151.943 174.656 152.258 174.656 152.655V154.783C174.656 154.946 174.6 155.028 174.488 155.028C174.46 155.028 174.429 155.019 174.397 155V152.655C174.397 152.324 174.313 152.062 174.145 151.871C173.981 151.675 173.76 151.577 173.48 151.577C173.251 151.577 173.05 151.645 172.878 151.78C172.705 151.911 172.572 152.095 172.479 152.333C172.385 152.571 172.339 152.846 172.339 153.159V154.783C172.339 154.946 172.283 155.028 172.171 155.028ZM177.237 155.07C176.906 155.07 176.642 154.972 176.446 154.776C176.25 154.58 176.152 154.316 176.152 153.985C176.152 153.644 176.262 153.376 176.481 153.18C176.705 152.979 177.004 152.879 177.377 152.879C177.592 152.879 177.783 152.909 177.951 152.97C178.119 153.031 178.254 153.115 178.357 153.222V152.69C178.357 152.349 178.266 152.079 178.084 151.878C177.907 151.673 177.666 151.57 177.363 151.57C177.008 151.57 176.689 151.719 176.404 152.018C176.311 152.018 176.264 151.976 176.264 151.892C176.264 151.841 176.315 151.773 176.418 151.689C176.525 151.6 176.665 151.523 176.838 151.458C177.011 151.393 177.195 151.36 177.391 151.36C177.76 151.36 178.056 151.481 178.28 151.724C178.504 151.967 178.616 152.289 178.616 152.69V154.783C178.616 154.946 178.56 155.028 178.448 155.028C178.42 155.028 178.39 155.019 178.357 155V154.552C178.226 154.711 178.063 154.837 177.867 154.93C177.671 155.023 177.461 155.07 177.237 155.07ZM177.209 154.86C177.396 154.86 177.578 154.823 177.755 154.748C177.932 154.669 178.077 154.559 178.189 154.419C178.301 154.279 178.357 154.118 178.357 153.936V153.705C178.357 153.504 178.257 153.353 178.056 153.25C177.86 153.143 177.622 153.089 177.342 153.089C177.057 153.089 176.831 153.171 176.663 153.334C176.5 153.497 176.418 153.717 176.418 153.992C176.418 154.258 176.488 154.47 176.628 154.629C176.773 154.783 176.966 154.86 177.209 154.86ZM180.4 155.028C180.372 155.028 180.342 155.019 180.309 155V151.647C180.309 151.484 180.365 151.402 180.477 151.402C180.505 151.402 180.535 151.411 180.568 151.43V152.046C180.647 151.836 180.757 151.67 180.897 151.549C181.037 151.423 181.198 151.36 181.38 151.36C181.464 151.36 181.536 151.374 181.597 151.402C181.658 151.425 181.688 151.463 181.688 151.514C181.688 151.542 181.679 151.565 181.66 151.584C181.646 151.598 181.627 151.605 181.604 151.605C181.529 151.586 181.455 151.577 181.38 151.577C181.231 151.577 181.093 151.638 180.967 151.759C180.846 151.88 180.748 152.048 180.673 152.263C180.603 152.473 180.568 152.713 180.568 152.984V154.783C180.568 154.946 180.512 155.028 180.4 155.028ZM184.17 155.07C183.853 155.07 183.577 154.995 183.344 154.846C183.111 154.697 182.929 154.482 182.798 154.202C182.672 153.922 182.609 153.591 182.609 153.208C182.609 152.835 182.67 152.51 182.791 152.235C182.912 151.955 183.085 151.74 183.309 151.591C183.533 151.437 183.797 151.36 184.1 151.36C184.539 151.36 184.882 151.514 185.129 151.822C185.381 152.125 185.507 152.531 185.507 153.04C185.507 153.138 185.498 153.217 185.479 153.278H182.875C182.884 153.763 183.003 154.148 183.232 154.433C183.461 154.718 183.773 154.86 184.17 154.86C184.581 154.86 184.945 154.706 185.262 154.398C185.309 154.398 185.344 154.41 185.367 154.433C185.39 154.452 185.402 154.475 185.402 154.503C185.402 154.564 185.346 154.641 185.234 154.734C185.122 154.823 184.973 154.902 184.786 154.972C184.599 155.037 184.394 155.07 184.17 155.07ZM185.241 153.04C185.222 152.583 185.115 152.223 184.919 151.962C184.723 151.701 184.445 151.57 184.086 151.57C183.713 151.57 183.419 151.708 183.204 151.983C182.994 152.258 182.884 152.625 182.875 153.082L185.241 153.04Z" fill="black"/>
</svg>
